{"glyphs":{"0":{"ha":787,"x_min":61,"x_max":726,"o":"m 547 607 q 540 643 547 626 q 520 673 532 660 q 490 693 507 686 q 454 700 473 700 l 334 700 q 297 693 314 700 q 268 673 280 686 q 248 643 255 660 q 240 607 240 626 l 240 364 q 248 329 240 345 q 268 299 255 312 q 297 279 280 287 q 334 272 314 272 l 454 272 q 491 279 474 272 q 520 299 508 286 q 540 328 533 311 q 547 364 547 345 l 547 607 m 726 243 q 707 138 726 185 q 647 50 688 90 q 560 -10 608 9 q 454 -29 512 -29 l 334 -29 q 228 -10 276 -29 q 140 50 180 9 q 80 138 100 90 q 61 243 61 186 l 61 729 q 80 833 61 786 q 140 921 100 881 q 334 1002 219 1002 l 454 1002 q 646 921 567 1002 q 726 729 726 842 l 726 243 m 697 243 l 697 729 q 627 900 697 828 q 547 954 590 936 q 454 972 505 972 l 334 972 q 240 954 283 972 q 160 900 197 936 q 90 729 90 830 l 90 243 q 107 150 90 193 q 160 71 124 106 q 334 0 233 0 l 454 0 q 627 71 555 0 q 680 149 663 106 q 697 243 697 192 m 576 364 q 567 316 576 338 q 541 278 557 294 q 503 252 525 262 q 454 243 480 243 l 334 243 q 286 252 309 243 q 247 278 264 262 q 221 317 231 295 q 211 364 211 339 l 211 607 q 221 654 211 632 q 247 693 231 677 q 286 720 264 710 q 334 729 309 729 l 454 729 q 502 720 479 729 q 540 693 524 710 q 567 654 557 677 q 576 607 576 632 l 576 364 z "},"1":{"ha":787,"x_min":243,"x_max":545,"o":"m 272 -29 q 252 -20 260 -29 q 243 0 243 -12 l 243 243 q 252 263 243 254 q 272 272 260 272 l 304 272 l 304 700 l 272 700 q 252 709 260 700 q 243 729 243 718 l 243 972 q 252 993 243 984 q 272 1002 260 1002 l 454 1002 q 475 993 467 1002 q 484 972 484 984 l 484 272 l 515 272 q 536 263 527 272 q 545 243 545 254 l 545 0 q 536 -20 545 -12 q 515 -29 527 -29 l 272 -29 m 515 0 l 515 243 l 454 243 l 454 972 l 272 972 l 272 729 l 334 729 l 334 243 l 272 243 l 272 0 l 515 0 z "},"2":{"ha":787,"x_min":61,"x_max":726,"o":"m 90 -29 q 70 -20 78 -29 q 61 0 61 -12 l 61 304 q 81 408 61 361 q 140 496 100 455 q 229 556 181 536 q 334 576 276 576 l 424 576 q 448 581 437 576 q 468 594 460 586 q 481 614 477 603 q 486 637 486 625 q 481 662 486 650 q 468 682 477 673 q 448 695 460 690 q 424 700 437 700 l 90 700 q 70 709 78 700 q 61 729 61 718 l 61 972 q 70 993 61 984 q 90 1002 78 1002 l 454 1002 q 646 921 567 1002 q 726 729 726 842 l 726 668 q 646 476 726 555 q 454 396 566 396 l 302 396 q 278 391 290 396 q 258 378 267 387 q 245 358 250 370 q 240 335 240 347 l 240 272 l 697 272 q 718 263 710 272 q 726 243 726 254 l 726 0 q 718 -20 726 -12 q 697 -29 710 -29 l 90 -29 m 697 0 l 697 243 l 211 243 l 211 335 q 218 370 211 353 q 238 398 226 386 q 268 418 251 410 q 302 425 284 425 l 454 425 q 547 444 505 425 q 627 497 590 462 q 697 668 697 569 l 697 729 q 627 900 697 828 q 547 954 590 936 q 454 972 505 972 l 90 972 l 90 729 l 424 729 q 459 722 442 729 q 488 702 475 715 q 508 673 500 690 q 515 637 515 656 q 508 602 515 618 q 488 574 500 586 q 459 554 475 562 q 424 547 442 547 l 334 547 q 161 475 233 547 q 90 304 90 404 l 90 0 l 697 0 z "},"3":{"ha":787,"x_min":61,"x_max":726,"o":"m 726 243 q 646 52 726 130 q 454 -29 567 -29 l 90 -29 q 70 -20 78 -29 q 61 0 61 -12 l 61 243 q 70 263 61 254 q 90 272 78 272 l 424 272 q 448 277 437 272 q 468 290 460 281 q 481 310 477 299 q 486 335 486 321 q 481 358 486 347 q 468 378 477 370 q 448 391 460 387 q 424 396 437 396 l 211 396 q 191 405 199 396 q 182 425 182 414 l 182 547 q 191 568 182 559 q 211 576 199 576 l 424 576 q 448 581 437 576 q 468 594 460 586 q 481 614 477 603 q 486 637 486 625 q 481 662 486 650 q 468 682 477 673 q 448 695 460 690 q 424 700 437 700 l 90 700 q 70 709 78 700 q 61 729 61 718 l 61 972 q 70 993 61 984 q 90 1002 78 1002 l 454 1002 q 646 921 567 1002 q 726 729 726 842 l 726 717 q 714 634 726 673 q 673 558 701 595 l 675 558 q 599 486 644 513 q 693 385 661 448 q 726 243 726 321 m 697 243 q 686 323 697 285 q 653 394 675 362 q 601 450 632 426 q 529 486 569 473 q 597 520 567 498 q 650 575 627 543 q 686 642 674 606 q 697 717 697 678 l 697 729 q 627 900 697 828 q 547 954 590 936 q 454 972 505 972 l 90 972 l 90 729 l 424 729 q 459 722 442 729 q 488 702 475 715 q 508 673 500 690 q 515 637 515 656 q 508 602 515 618 q 488 574 500 586 q 459 554 475 562 q 424 547 442 547 l 211 547 l 211 425 l 424 425 q 459 418 442 425 q 488 398 475 410 q 508 370 500 386 q 515 335 515 353 q 508 299 515 316 q 488 270 500 283 q 459 250 475 258 q 424 243 442 243 l 90 243 l 90 0 l 454 0 q 627 72 554 0 q 697 243 697 144 z "},"4":{"ha":787,"x_min":61,"x_max":726,"o":"m 576 -29 q 555 -20 564 -29 q 547 0 547 -12 l 547 140 l 90 140 q 70 149 78 140 q 61 170 61 158 l 61 729 q 70 749 61 741 q 90 758 78 758 l 211 758 q 232 749 224 758 q 240 729 240 741 l 240 441 l 547 441 l 547 972 q 555 993 547 984 q 576 1002 564 1002 l 697 1002 q 718 993 710 1002 q 726 972 726 984 l 726 0 q 718 -20 726 -12 q 697 -29 710 -29 l 576 -29 m 697 0 l 697 972 l 576 972 l 576 412 l 211 412 l 211 729 l 90 729 l 90 170 l 576 170 l 576 0 l 697 0 z "},"5":{"ha":787,"x_min":61,"x_max":726,"o":"m 726 243 q 646 52 726 130 q 454 -29 567 -29 l 90 -29 q 70 -20 78 -29 q 61 0 61 -12 l 61 243 q 70 263 61 254 q 90 272 78 272 l 424 272 q 448 277 437 272 q 468 290 460 281 q 481 310 477 299 q 486 335 486 321 q 481 358 486 347 q 468 378 477 370 q 448 391 460 387 q 424 396 437 396 l 90 396 q 70 405 78 396 q 61 425 61 414 l 61 972 q 70 993 61 984 q 90 1002 78 1002 l 636 1002 q 657 993 649 1002 q 665 972 665 984 l 665 729 q 657 709 665 718 q 636 700 649 700 l 240 700 l 240 576 l 454 576 q 646 496 565 576 q 726 304 726 415 l 726 243 m 697 243 l 697 304 q 627 475 697 404 q 547 529 590 511 q 454 547 505 547 l 211 547 l 211 729 l 636 729 l 636 972 l 90 972 l 90 425 l 424 425 q 459 418 442 425 q 488 398 475 410 q 508 370 500 386 q 515 335 515 353 q 508 299 515 316 q 488 270 500 283 q 459 250 475 258 q 424 243 442 243 l 90 243 l 90 0 l 454 0 q 627 72 554 0 q 697 243 697 144 z "},"6":{"ha":787,"x_min":61,"x_max":726,"o":"m 547 335 q 543 358 547 347 q 529 378 538 370 q 509 391 521 387 q 485 396 498 396 l 302 396 q 278 391 290 396 q 258 378 267 387 q 245 358 250 370 q 240 335 240 347 q 245 310 240 321 q 258 290 250 299 q 278 277 267 281 q 302 272 290 272 l 485 272 q 509 277 498 272 q 529 290 521 281 q 543 310 538 299 q 547 335 547 321 m 726 243 q 707 138 726 185 q 647 50 688 90 q 560 -10 608 9 q 454 -29 512 -29 l 334 -29 q 229 -9 276 -29 q 140 52 181 11 q 61 243 61 131 l 61 729 q 80 834 61 787 q 140 922 100 882 q 228 982 180 963 q 334 1002 276 1002 l 636 1002 q 657 993 649 1002 q 665 972 665 984 l 665 729 q 657 709 665 718 q 636 700 649 700 l 334 700 q 297 693 314 700 q 267 673 279 686 q 247 644 254 661 q 240 607 240 627 l 240 555 q 272 571 255 565 q 309 576 290 576 l 454 576 q 646 496 565 576 q 726 304 726 415 l 726 243 m 697 243 l 697 304 q 627 475 697 404 q 547 529 590 511 q 454 547 505 547 l 309 547 q 271 539 289 547 q 240 518 253 532 q 219 488 227 505 q 211 450 211 470 l 211 607 q 220 655 211 633 q 246 694 230 677 q 285 720 262 710 q 334 729 307 729 l 636 729 l 636 972 l 334 972 q 160 901 232 972 q 90 729 90 832 l 90 243 q 161 72 90 143 q 334 0 231 0 l 454 0 q 627 71 555 0 q 680 149 663 106 q 697 243 697 192 m 576 335 q 569 299 576 316 q 549 270 562 283 q 520 250 536 258 q 485 243 503 243 l 302 243 q 268 250 284 243 q 238 270 251 258 q 218 299 226 283 q 211 335 211 316 q 218 370 211 353 q 238 398 226 386 q 268 418 251 410 q 302 425 284 425 l 485 425 q 520 418 503 425 q 549 398 536 410 q 569 370 562 386 q 576 335 576 353 z "},"7":{"ha":787,"x_min":60,"x_max":726,"o":"m 286 -16 q 274 -25 283 -21 q 260 -29 265 -29 l 90 -29 q 74 -25 81 -29 q 63 -15 67 -21 q 60 -1 60 -9 q 64 14 60 6 l 475 700 l 90 700 q 70 709 78 700 q 61 729 61 718 l 61 972 q 70 993 61 984 q 90 1002 78 1002 l 697 1002 q 718 993 710 1002 q 726 972 726 984 l 726 721 l 286 -16 m 697 729 l 697 972 l 90 972 l 90 729 l 528 729 l 90 0 l 260 0 l 697 729 z "},"8":{"ha":787,"x_min":61,"x_max":726,"o":"m 547 637 q 543 662 547 650 q 529 682 538 673 q 509 695 521 690 q 485 700 498 700 l 302 700 q 278 695 290 700 q 258 682 267 690 q 245 662 250 673 q 240 637 240 650 q 245 614 240 625 q 258 594 250 603 q 278 581 267 586 q 302 576 290 576 l 485 576 q 509 581 498 576 q 529 594 521 586 q 543 614 538 603 q 547 637 547 625 m 547 335 q 543 358 547 347 q 529 378 538 370 q 509 391 521 387 q 485 396 498 396 l 302 396 q 278 391 290 396 q 258 378 267 387 q 245 358 250 370 q 240 335 240 347 q 245 310 240 321 q 258 290 250 299 q 278 277 267 281 q 302 272 290 272 l 485 272 q 509 277 498 272 q 529 290 521 281 q 543 310 538 299 q 547 335 547 321 m 726 243 q 707 138 726 185 q 647 50 688 90 q 560 -10 608 9 q 454 -29 512 -29 l 334 -29 q 228 -10 276 -29 q 140 50 180 9 q 80 138 100 90 q 61 243 61 185 l 61 279 q 85 395 61 345 q 155 486 109 446 q 61 693 61 564 l 61 729 q 80 834 61 787 q 140 922 100 882 q 228 982 180 963 q 334 1002 276 1002 l 454 1002 q 560 982 512 1002 q 647 922 608 963 q 707 834 688 882 q 726 729 726 787 l 726 693 q 631 486 726 564 q 726 279 726 407 l 726 243 m 697 243 l 697 279 q 582 486 697 415 q 697 693 697 557 l 697 729 q 680 823 697 781 q 627 901 663 866 q 454 972 555 972 l 334 972 q 160 901 232 972 q 90 729 90 832 l 90 693 q 205 486 90 557 q 90 279 90 415 l 90 243 q 160 71 90 140 q 334 0 233 0 l 454 0 q 627 71 555 0 q 680 149 663 106 q 697 243 697 192 m 576 637 q 569 602 576 618 q 549 574 562 586 q 520 554 536 562 q 485 547 503 547 l 302 547 q 268 554 284 547 q 238 574 251 562 q 218 602 226 586 q 211 637 211 618 q 218 673 211 656 q 238 702 226 690 q 268 722 251 715 q 302 729 284 729 l 485 729 q 520 722 503 729 q 549 702 536 715 q 569 673 562 690 q 576 637 576 656 m 576 335 q 569 299 576 316 q 549 270 562 283 q 520 250 536 258 q 485 243 503 243 l 302 243 q 268 250 284 243 q 238 270 251 258 q 218 299 226 283 q 211 335 211 316 q 218 370 211 353 q 238 398 226 386 q 268 418 251 410 q 302 425 284 425 l 485 425 q 520 418 503 425 q 549 398 536 410 q 569 370 562 386 q 576 335 576 353 z "},"9":{"ha":787,"x_min":61,"x_max":726,"o":"m 547 637 q 543 662 547 650 q 529 682 538 673 q 509 695 521 690 q 485 700 498 700 l 302 700 q 278 695 290 700 q 258 682 267 690 q 245 662 250 673 q 240 637 240 650 q 245 614 240 625 q 258 594 250 603 q 278 581 267 586 q 302 576 290 576 l 485 576 q 509 581 498 576 q 529 594 521 586 q 543 614 538 603 q 547 637 547 625 m 726 243 q 707 138 726 185 q 647 50 688 90 q 560 -10 608 9 q 454 -29 512 -29 l 150 -29 q 130 -20 138 -29 q 121 0 121 -12 l 121 243 q 130 263 121 254 q 150 272 138 272 l 454 272 q 491 279 474 272 q 520 299 508 286 q 540 328 533 311 q 547 364 547 345 l 547 415 q 515 401 532 406 q 479 396 497 396 l 334 396 q 229 416 276 396 q 140 476 181 435 q 61 668 61 555 l 61 729 q 80 834 61 787 q 140 922 100 882 q 228 982 180 963 q 334 1002 276 1002 l 454 1002 q 646 921 567 1002 q 726 729 726 842 l 726 243 m 697 243 l 697 729 q 627 900 697 828 q 547 954 590 936 q 454 972 505 972 l 334 972 q 160 901 232 972 q 90 729 90 832 l 90 668 q 161 497 90 568 q 240 444 197 462 q 334 425 283 425 l 479 425 q 517 433 499 425 q 548 454 534 441 q 569 485 561 467 q 576 522 576 503 l 576 364 q 567 316 576 338 q 541 278 557 294 q 503 252 525 262 q 454 243 480 243 l 150 243 l 150 0 l 454 0 q 627 71 555 0 q 680 149 663 106 q 697 243 697 192 m 576 637 q 569 602 576 618 q 549 574 562 586 q 520 554 536 562 q 485 547 503 547 l 302 547 q 268 554 284 547 q 238 574 251 562 q 218 602 226 586 q 211 637 211 618 q 218 673 211 656 q 238 702 226 690 q 268 722 251 715 q 302 729 284 729 l 485 729 q 520 722 503 729 q 549 702 536 715 q 569 673 562 690 q 576 637 576 656 z "}," ":{"ha":547,"x_min":0,"x_max":0,"o":""},"!":{"ha":350,"x_min":60,"x_max":290,"o":"m 90 -29 q 70 -20 78 -29 q 61 0 61 -12 l 61 170 q 70 190 61 182 q 90 199 78 199 l 260 199 q 281 190 273 199 q 289 170 289 182 l 289 0 q 281 -20 289 -12 q 260 -29 273 -29 l 90 -29 m 240 289 q 231 271 239 279 q 211 262 222 262 l 139 262 q 119 271 127 262 q 110 289 111 279 l 61 970 q 68 992 60 982 q 90 1002 77 1002 l 260 1002 q 281 992 273 1002 q 289 970 290 982 l 240 289 m 260 972 l 90 972 l 139 292 l 211 292 l 260 972 m 260 0 l 260 170 l 90 170 l 90 0 l 260 0 z "},"\"":{"ha":616,"x_min":59,"x_max":558,"o":"m 240 689 q 230 671 238 678 q 211 664 222 664 l 139 664 q 120 671 128 664 q 110 689 111 678 l 61 1029 q 68 1053 59 1043 q 90 1063 77 1063 l 260 1063 q 282 1053 273 1063 q 289 1029 291 1043 l 240 689 m 509 689 q 497 671 506 678 q 479 664 489 664 l 406 664 q 387 671 396 664 q 376 689 378 678 l 328 1029 q 334 1053 326 1043 q 357 1063 343 1063 l 528 1063 q 550 1053 541 1063 q 557 1029 558 1043 l 509 689 m 528 1034 l 357 1034 l 406 693 l 479 693 l 528 1034 m 260 1034 l 90 1034 l 139 693 l 211 693 l 260 1034 z "},"#":{"ha":811,"x_min":61,"x_max":751,"o":"m 358 612 l 446 612 l 453 700 l 367 700 l 358 612 m 587 457 l 578 338 q 569 319 578 327 q 549 311 560 311 l 452 311 q 431 320 439 311 q 422 343 422 330 l 432 457 l 345 457 l 335 338 q 326 319 335 327 q 306 311 317 311 l 208 311 q 188 320 196 311 q 179 343 179 330 l 189 457 l 90 457 q 70 466 78 457 q 61 486 61 475 l 61 583 q 70 604 61 595 q 90 612 78 612 l 203 612 l 210 700 l 90 700 q 70 709 78 700 q 61 729 61 718 l 61 827 q 70 847 61 838 q 90 856 78 856 l 225 856 l 235 975 q 244 994 236 985 q 264 1002 252 1002 l 361 1002 q 382 992 374 1002 q 390 970 391 982 l 380 856 l 468 856 l 478 975 q 488 994 479 985 q 507 1002 496 1002 l 604 1002 q 626 992 616 1002 q 633 970 635 982 l 624 856 l 722 856 q 743 847 734 856 q 751 827 751 838 l 751 729 q 743 709 751 718 q 722 700 734 700 l 610 700 l 602 612 l 722 612 q 743 604 734 612 q 751 583 751 595 l 751 486 q 743 466 751 475 q 722 457 734 457 l 587 457 m 722 486 l 722 583 l 570 583 l 583 729 l 722 729 l 722 827 l 591 827 l 604 972 l 507 972 l 494 827 l 349 827 l 361 972 l 264 972 l 252 827 l 90 827 l 90 729 l 243 729 l 229 583 l 90 583 l 90 486 l 221 486 l 208 340 l 306 340 l 318 486 l 464 486 l 452 340 l 549 340 l 561 486 l 722 486 m 486 729 l 472 583 l 326 583 l 340 729 l 486 729 z "},"$":{"ha":787,"x_min":61,"x_max":726,"o":"m 726 364 q 646 172 726 253 q 484 93 578 103 l 484 0 q 475 -20 484 -12 q 454 -29 467 -29 l 334 -29 q 313 -20 321 -29 q 304 0 304 -12 l 304 92 l 90 92 q 70 100 78 92 q 61 121 61 109 l 61 364 q 70 385 61 376 q 90 393 78 393 l 454 393 q 476 403 467 393 q 486 425 486 412 q 476 447 486 437 q 454 457 467 457 l 334 457 q 229 477 276 457 q 140 538 181 497 q 61 729 61 616 q 140 921 61 842 q 216 976 176 956 q 304 1000 256 996 l 304 1093 q 313 1114 304 1105 q 334 1122 321 1122 l 454 1122 q 475 1114 467 1122 q 484 1093 484 1105 l 484 1002 l 697 1002 q 718 993 710 1002 q 726 972 726 984 l 726 729 q 718 709 726 718 q 697 700 710 700 l 334 700 q 311 690 320 700 q 301 668 301 681 q 311 646 301 656 q 334 636 320 636 l 454 636 q 646 557 566 636 q 706 469 686 516 q 726 364 726 422 m 697 364 q 627 536 697 465 q 454 607 553 607 l 334 607 q 310 612 321 607 q 290 626 298 617 q 277 645 281 634 q 272 668 272 656 q 290 711 272 693 q 334 729 308 729 l 697 729 l 697 972 l 454 972 l 454 1093 l 334 1093 l 334 972 q 161 900 233 972 q 90 729 90 829 q 161 558 90 629 q 334 486 231 486 l 454 486 q 497 468 479 486 q 515 425 515 450 q 511 402 515 413 q 497 383 506 391 q 478 369 489 374 q 454 364 467 364 l 90 364 l 90 121 l 334 121 l 334 0 l 454 0 l 454 121 q 547 139 505 121 q 627 193 590 157 q 697 364 697 264 z "},"%":{"ha":1358,"x_min":61,"x_max":1297,"o":"m 1149 364 q 1144 389 1149 377 q 1131 409 1139 400 q 1111 422 1122 417 q 1086 427 1099 427 l 996 427 q 971 422 983 427 q 951 409 960 417 q 938 389 943 400 q 933 364 933 377 l 933 273 q 938 249 933 260 q 951 229 943 237 q 971 216 960 220 q 996 211 983 211 l 1086 211 q 1131 229 1114 211 q 1149 273 1149 246 l 1149 364 m 425 699 q 420 723 425 711 q 407 743 416 734 q 388 756 399 751 q 364 761 376 761 l 272 761 q 248 756 259 761 q 228 743 236 751 q 214 723 219 734 q 210 699 210 711 l 210 607 q 214 584 210 595 q 228 564 219 572 q 248 551 236 555 q 272 546 259 546 l 364 546 q 408 564 390 546 q 425 607 425 581 l 425 699 m 618 -29 q 597 -20 606 -29 q 589 0 589 -12 l 589 972 q 597 993 589 984 q 618 1002 606 1002 l 741 1002 q 761 993 752 1002 q 770 972 770 984 l 770 0 q 761 -20 770 -12 q 741 -29 752 -29 l 618 -29 m 575 517 q 513 366 575 428 q 364 306 451 306 l 272 306 q 191 320 228 306 q 122 367 154 335 q 61 517 61 430 l 61 790 q 122 939 61 878 q 272 1002 185 1002 l 364 1002 q 445 986 408 1002 q 513 939 481 970 q 575 790 575 878 l 575 517 m 1297 182 q 1236 32 1297 91 q 1086 -29 1175 -29 l 996 -29 q 846 33 909 -29 q 783 182 783 94 l 783 456 q 846 606 783 542 q 915 651 878 636 q 996 667 951 667 l 1086 667 q 1167 651 1131 667 q 1236 606 1204 636 q 1297 456 1297 544 l 1297 182 m 1268 182 l 1268 456 q 1215 585 1268 530 q 1086 637 1162 637 l 996 637 q 867 585 920 637 q 812 456 812 530 l 812 182 q 867 53 812 107 q 996 0 920 0 l 1086 0 q 1215 53 1164 0 q 1268 182 1268 106 m 741 0 l 741 972 l 618 972 l 618 0 l 741 0 m 546 517 l 546 790 q 492 918 546 866 q 433 959 466 945 q 364 972 401 972 l 272 972 q 143 918 197 972 q 90 790 90 865 l 90 517 q 143 387 90 441 q 272 335 197 335 l 364 335 q 434 348 401 335 q 492 386 466 360 q 532 446 519 414 q 546 517 546 478 m 1178 273 q 1171 237 1178 254 q 1152 208 1164 220 q 1123 189 1139 196 q 1086 182 1106 182 l 996 182 q 961 189 977 182 q 931 209 944 197 q 911 238 919 222 q 904 273 904 255 l 904 364 q 911 399 904 382 q 931 428 919 416 q 961 448 944 441 q 996 456 977 456 l 1086 456 q 1121 448 1105 456 q 1151 428 1138 441 q 1171 399 1163 416 q 1178 364 1178 382 l 1178 273 m 454 607 q 448 571 454 587 q 429 543 441 555 q 400 524 416 530 q 364 517 383 517 l 272 517 q 237 524 254 517 q 208 544 220 531 q 188 572 195 556 q 180 607 180 589 l 180 699 q 188 734 180 718 q 208 763 195 751 q 237 783 220 776 q 272 790 254 790 l 364 790 q 399 783 382 790 q 427 763 415 776 q 447 734 439 751 q 454 699 454 718 l 454 607 z "},"&":{"ha":787,"x_min":61,"x_max":726,"o":"m 301 335 q 319 290 301 309 q 364 272 338 272 l 473 272 l 473 396 l 364 396 q 339 391 351 396 q 319 378 328 387 q 306 358 311 370 q 301 335 301 347 m 334 -29 q 229 -9 276 -29 q 140 52 181 11 q 61 243 61 131 q 94 384 61 321 q 187 486 127 448 q 94 588 127 524 q 61 729 61 652 q 140 921 61 842 q 229 982 181 962 q 334 1002 276 1002 l 697 1002 q 718 993 710 1002 q 726 972 726 984 l 726 729 q 718 709 726 718 q 697 700 710 700 l 364 700 q 339 695 351 700 q 319 682 328 690 q 306 662 311 673 q 301 637 301 650 q 306 614 301 625 q 319 594 311 603 q 339 581 328 586 q 364 576 351 576 l 697 576 q 718 568 710 576 q 726 547 726 559 l 726 425 q 718 405 726 414 q 697 396 710 396 l 654 396 l 654 272 l 697 272 q 718 263 710 272 q 726 243 726 254 l 726 0 q 718 -20 726 -12 q 697 -29 710 -29 l 334 -29 m 697 0 l 697 243 l 625 243 l 625 425 l 697 425 l 697 547 l 364 547 q 329 554 345 547 q 299 574 312 562 q 279 602 287 586 q 272 637 272 618 q 279 673 272 656 q 299 702 287 690 q 329 722 312 715 q 364 729 345 729 l 697 729 l 697 972 l 334 972 q 161 900 233 972 q 90 729 90 829 q 101 649 90 687 q 134 578 113 610 q 186 523 155 547 q 257 486 217 499 q 186 450 217 473 q 134 394 155 426 q 101 323 113 362 q 90 243 90 285 q 161 72 90 143 q 334 0 231 0 l 697 0 m 503 243 l 364 243 q 329 250 345 243 q 299 270 312 258 q 279 299 287 283 q 272 335 272 316 q 279 370 272 353 q 299 398 287 386 q 329 418 312 410 q 364 425 345 425 l 503 425 l 503 243 z "},"'":{"ha":350,"x_min":59,"x_max":291,"o":"m 240 689 q 230 671 238 678 q 211 664 222 664 l 139 664 q 120 671 128 664 q 110 689 111 678 l 61 1029 q 68 1053 59 1043 q 90 1063 77 1063 l 260 1063 q 282 1053 273 1063 q 289 1029 291 1043 l 240 689 m 260 1034 l 90 1034 l 139 693 l 211 693 l 260 1034 z "},"(":{"ha":484,"x_min":61,"x_max":363,"o":"m 334 -151 q 229 -131 276 -151 q 140 -71 181 -111 q 61 121 61 9 l 61 850 q 81 955 61 907 q 140 1043 100 1002 q 229 1103 181 1083 q 334 1122 276 1122 q 354 1114 345 1122 q 363 1093 363 1105 l 363 850 q 354 829 363 838 q 334 821 345 821 q 297 813 314 821 q 268 794 280 806 q 248 765 255 782 q 240 729 240 748 l 240 243 q 248 207 240 224 q 268 177 255 190 q 297 157 280 165 q 334 150 314 150 q 354 142 345 150 q 363 121 363 134 l 363 -122 l 334 -151 m 334 -122 l 334 121 q 286 131 309 121 q 247 157 264 140 q 221 196 231 174 q 211 243 211 218 l 211 729 q 221 776 211 754 q 247 814 231 798 q 286 840 264 831 q 334 850 309 850 l 334 1093 q 161 1022 231 1093 q 90 850 90 951 l 90 121 q 161 -50 90 21 q 240 -104 197 -85 q 334 -122 283 -122 z "},")":{"ha":484,"x_min":121,"x_max":422,"o":"m 422 121 q 343 -71 422 9 q 255 -131 302 -111 q 150 -151 208 -151 q 130 -142 138 -151 q 121 -122 121 -134 l 121 121 q 130 142 121 134 q 150 150 138 150 q 186 157 169 150 q 216 177 203 165 q 236 207 229 190 q 243 243 243 224 l 243 729 q 236 765 243 748 q 216 794 229 782 q 186 813 203 806 q 150 821 169 821 q 130 829 138 821 q 121 850 121 838 l 121 1093 q 130 1114 121 1105 q 150 1122 138 1122 q 255 1103 208 1122 q 343 1043 302 1083 q 403 955 383 1002 q 422 850 422 907 l 422 121 m 393 121 l 393 850 q 322 1022 393 951 q 150 1093 252 1093 l 150 850 q 198 840 176 850 q 237 814 220 831 q 262 776 253 798 q 272 729 272 754 l 272 243 q 262 196 272 218 q 237 157 253 174 q 198 131 220 140 q 150 121 176 121 l 150 -122 q 244 -104 201 -122 q 322 -50 287 -85 q 393 121 393 21 z "},"*":{"ha":648,"x_min":58,"x_max":591,"o":"m 536 550 q 518 536 530 540 q 496 539 507 532 l 403 595 l 403 486 q 394 466 403 475 q 374 457 385 457 l 277 457 q 256 466 264 457 q 248 486 248 475 l 248 595 l 153 539 q 131 536 142 532 q 113 550 119 540 l 64 636 q 62 657 58 646 q 75 675 66 669 l 168 729 l 75 782 q 62 801 66 789 q 64 822 58 812 l 113 908 q 131 922 119 919 q 153 918 142 926 l 248 864 l 248 972 q 256 993 248 984 q 277 1002 264 1002 l 374 1002 q 394 993 385 1002 q 403 972 403 984 l 403 864 l 496 918 q 518 922 507 926 q 536 908 530 919 l 585 822 q 587 801 591 812 q 574 782 584 789 l 481 729 l 574 675 q 587 657 584 669 q 585 636 591 646 l 536 550 m 558 650 l 422 729 l 558 808 l 510 893 l 374 812 l 374 972 l 277 972 l 277 812 l 139 893 l 90 808 l 228 729 l 90 650 l 139 566 l 277 646 l 277 486 l 374 486 l 374 646 l 510 566 l 558 650 z "},"+":{"ha":665,"x_min":61,"x_max":606,"o":"m 411 347 l 411 182 q 402 161 411 170 q 382 153 393 153 l 285 153 q 264 161 272 153 q 256 182 256 170 l 256 347 l 90 347 q 70 356 78 347 q 61 376 61 365 l 61 473 q 70 494 61 486 q 90 503 78 503 l 256 503 l 256 668 q 264 689 256 681 q 285 697 272 697 l 382 697 q 402 689 393 697 q 411 668 411 681 l 411 503 l 576 503 q 597 494 588 503 q 606 473 606 486 l 606 376 q 597 356 606 365 q 576 347 588 347 l 411 347 m 576 376 l 576 473 l 382 473 l 382 668 l 285 668 l 285 473 l 90 473 l 90 376 l 285 376 l 285 182 l 382 182 l 382 376 l 576 376 z "},",":{"ha":350,"x_min":59,"x_max":291,"o":"m 240 -174 q 230 -192 238 -184 q 211 -200 222 -200 l 139 -200 q 120 -192 128 -200 q 110 -174 111 -184 l 61 167 q 68 190 59 180 q 90 199 77 199 l 260 199 q 282 190 273 199 q 289 167 291 180 l 240 -174 m 260 170 l 90 170 l 139 -171 l 211 -171 l 260 170 z "},"-":{"ha":665,"x_min":61,"x_max":606,"o":"m 90 347 q 70 356 78 347 q 61 376 61 365 l 61 473 q 70 494 61 486 q 90 503 78 503 l 576 503 q 597 494 588 503 q 606 473 606 486 l 606 376 q 597 356 606 365 q 576 347 588 347 l 90 347 m 576 376 l 576 473 l 90 473 l 90 376 l 576 376 z "},"­":{"ha":665,"x_min":61,"x_max":606,"o":"m 90 347 q 70 356 78 347 q 61 376 61 365 l 61 473 q 70 494 61 486 q 90 503 78 503 l 576 503 q 597 494 588 503 q 606 473 606 486 l 606 376 q 597 356 606 365 q 576 347 588 347 l 90 347 m 576 376 l 576 473 l 90 473 l 90 376 l 576 376 z "},".":{"ha":350,"x_min":61,"x_max":289,"o":"m 90 -29 q 70 -20 78 -29 q 61 0 61 -12 l 61 170 q 70 190 61 182 q 90 199 78 199 l 260 199 q 281 190 273 199 q 289 170 289 182 l 289 0 q 281 -20 289 -12 q 260 -29 273 -29 l 90 -29 m 260 0 l 260 170 l 90 170 l 90 0 l 260 0 z "},"/":{"ha":648,"x_min":26,"x_max":622,"o":"m 201 -115 q 186 -132 197 -127 q 164 -134 176 -138 l 50 -93 q 33 -77 39 -87 q 32 -54 26 -66 l 447 1088 q 463 1104 452 1099 q 485 1105 474 1109 l 599 1064 q 616 1049 610 1060 q 616 1026 622 1038 l 201 -115 m 589 1036 l 475 1078 l 60 -64 l 174 -106 l 589 1036 z "},":":{"ha":350,"x_min":61,"x_max":289,"o":"m 90 -29 q 70 -20 78 -29 q 61 0 61 -12 l 61 170 q 70 190 61 182 q 90 199 78 199 l 260 199 q 281 190 273 199 q 289 170 289 182 l 289 0 q 281 -20 289 -12 q 260 -29 273 -29 l 90 -29 m 90 457 q 70 466 78 457 q 61 486 61 475 l 61 656 q 70 676 61 668 q 90 685 78 685 l 260 685 q 281 676 273 685 q 289 656 289 668 l 289 486 q 281 466 289 475 q 260 457 273 457 l 90 457 m 260 486 l 260 656 l 90 656 l 90 486 l 260 486 m 260 0 l 260 170 l 90 170 l 90 0 l 260 0 z "},";":{"ha":350,"x_min":59,"x_max":291,"o":"m 90 457 q 70 466 78 457 q 61 486 61 475 l 61 656 q 70 676 61 668 q 90 685 78 685 l 260 685 q 281 676 273 685 q 289 656 289 668 l 289 486 q 281 466 289 475 q 260 457 273 457 l 90 457 m 240 -174 q 230 -192 238 -184 q 211 -200 222 -200 l 139 -200 q 120 -192 128 -200 q 110 -174 111 -184 l 61 167 q 68 190 59 180 q 90 199 77 199 l 260 199 q 282 190 273 199 q 289 167 291 180 l 240 -174 m 260 486 l 260 656 l 90 656 l 90 486 l 260 486 m 260 170 l 90 170 l 139 -171 l 211 -171 l 260 170 z "},";":{"ha":350,"x_min":59,"x_max":291,"o":"m 90 457 q 70 466 78 457 q 61 486 61 475 l 61 656 q 70 676 61 668 q 90 685 78 685 l 260 685 q 281 676 273 685 q 289 656 289 668 l 289 486 q 281 466 289 475 q 260 457 273 457 l 90 457 m 240 -174 q 230 -192 238 -184 q 211 -200 222 -200 l 139 -200 q 120 -192 128 -200 q 110 -174 111 -184 l 61 167 q 68 190 59 180 q 90 199 77 199 l 260 199 q 282 190 273 199 q 289 167 291 180 l 240 -174 m 260 486 l 260 656 l 90 656 l 90 486 l 260 486 m 260 170 l 90 170 l 139 -171 l 211 -171 l 260 170 z "},"<":{"ha":640,"x_min":61,"x_max":581,"o":"m 521 96 q 503 83 515 85 q 481 87 491 81 l 74 353 q 65 363 69 355 q 61 376 61 371 l 61 473 q 65 487 61 479 q 74 498 69 495 l 481 762 q 503 767 491 770 q 521 754 515 765 l 575 673 q 579 651 581 663 q 567 633 576 640 l 248 425 l 567 218 q 579 199 576 211 q 575 178 581 187 l 521 96 m 550 193 l 193 425 l 550 657 l 497 739 l 90 473 l 90 376 l 497 111 l 550 193 z "},"=":{"ha":665,"x_min":61,"x_max":606,"o":"m 90 237 q 70 246 78 237 q 61 267 61 255 l 61 364 q 70 385 61 376 q 90 393 78 393 l 576 393 q 597 385 588 393 q 606 364 606 376 l 606 267 q 597 246 606 255 q 576 237 588 237 l 90 237 m 90 457 q 70 466 78 457 q 61 486 61 475 l 61 583 q 70 604 61 595 q 90 612 78 612 l 576 612 q 597 604 588 612 q 606 583 606 595 l 606 486 q 597 466 606 475 q 576 457 588 457 l 90 457 m 576 486 l 576 583 l 90 583 l 90 486 l 576 486 m 576 267 l 576 364 l 90 364 l 90 267 l 576 267 z "},">":{"ha":640,"x_min":59,"x_max":579,"o":"m 160 87 q 137 83 149 81 q 119 96 125 85 l 65 178 q 62 199 59 187 q 74 218 64 211 l 393 425 l 74 633 q 62 651 64 640 q 65 673 59 663 l 119 754 q 137 767 125 765 q 160 762 149 770 l 567 498 q 575 487 571 495 q 579 473 579 479 l 579 376 q 575 363 579 371 q 567 353 571 355 l 160 87 m 550 376 l 550 473 l 143 739 l 90 657 l 447 425 l 90 193 l 143 111 l 550 376 z "},"?":{"ha":714,"x_min":61,"x_max":654,"o":"m 150 -29 q 130 -20 138 -29 q 121 0 121 -12 l 121 170 q 130 190 121 182 q 150 199 138 199 l 321 199 q 341 190 332 199 q 350 170 350 182 l 350 0 q 341 -20 350 -12 q 321 -29 332 -29 l 150 -29 m 654 729 q 574 538 654 617 q 382 457 493 457 l 313 457 l 301 289 q 291 271 300 279 q 272 262 283 262 l 199 262 q 179 271 188 262 q 170 289 171 279 l 147 606 q 155 627 146 618 q 176 636 164 636 l 382 636 q 404 646 395 636 q 412 668 412 656 q 404 690 412 681 q 382 700 395 700 l 90 700 q 70 709 78 700 q 61 729 61 718 l 61 972 q 70 993 61 984 q 90 1002 78 1002 l 382 1002 q 574 921 493 1002 q 634 833 614 881 q 654 729 654 786 m 625 729 q 607 822 625 780 q 553 900 589 864 q 475 954 517 936 q 382 972 433 972 l 90 972 l 90 729 l 382 729 q 405 724 394 729 q 424 711 416 720 q 437 691 432 703 q 441 668 441 680 q 437 645 441 656 q 424 626 432 634 q 405 612 416 617 q 382 607 394 607 l 176 607 l 199 292 l 272 292 l 286 486 l 382 486 q 553 558 481 486 q 625 729 625 631 m 321 0 l 321 170 l 150 170 l 150 0 l 321 0 z "},"@":{"ha":1152,"x_min":61,"x_max":1092,"o":"m 688 374 q 673 412 688 397 q 635 427 658 427 l 543 427 q 518 421 530 427 q 496 408 506 416 q 480 387 486 399 q 472 363 473 376 q 467 294 469 317 q 465 267 465 270 q 481 227 465 243 q 519 211 496 211 l 610 211 q 657 230 637 211 q 681 277 677 249 q 686 345 684 321 q 688 374 688 368 m 1092 243 q 1013 50 1092 130 q 924 -10 972 9 q 819 -29 877 -29 l 685 -29 q 660 -16 669 -29 q 558 -31 621 -31 l 526 -31 q 513 -29 518 -29 q 503 -29 507 -29 q 364 26 422 -29 q 306 167 306 84 q 306 174 306 168 q 307 186 306 180 l 307 184 l 332 458 q 406 607 341 545 q 477 651 439 636 q 558 667 514 667 l 650 667 q 789 612 732 667 q 847 472 847 559 q 847 465 847 470 q 846 452 847 459 l 846 453 l 815 114 l 856 114 q 892 121 876 114 q 921 141 909 128 q 940 170 933 153 q 947 207 947 187 l 947 765 q 940 801 947 784 q 921 831 933 819 q 891 851 908 844 q 856 859 875 859 l 296 859 q 260 851 277 859 q 231 831 243 844 q 211 801 218 819 q 204 765 204 784 l 204 -36 q 211 -72 204 -56 q 231 -102 218 -89 q 260 -122 243 -115 q 296 -129 277 -129 l 940 -129 q 961 -137 953 -129 q 970 -158 970 -146 l 970 -243 q 961 -263 970 -254 q 940 -272 953 -272 l 334 -272 q 140 -192 220 -272 q 80 -104 100 -152 q 61 0 61 -57 l 61 729 q 80 833 61 786 q 140 921 100 881 q 334 1002 219 1002 l 819 1002 q 1011 921 930 1002 q 1072 833 1051 881 q 1092 729 1092 786 l 1092 243 m 1063 243 l 1063 729 q 1044 822 1063 780 q 990 900 1026 864 q 819 972 919 972 l 334 972 q 240 954 283 972 q 160 900 197 936 q 90 729 90 830 l 90 0 q 160 -171 90 -101 q 334 -243 231 -243 l 940 -243 l 940 -158 l 296 -158 q 249 -149 271 -158 q 210 -122 227 -139 q 184 -83 194 -106 q 175 -36 175 -61 l 175 765 q 184 812 175 790 q 210 851 194 835 q 249 878 227 868 q 296 888 271 888 l 856 888 q 903 878 881 888 q 941 851 925 868 q 967 812 958 835 q 977 765 977 790 l 977 207 q 967 159 977 181 q 942 120 958 136 q 904 94 926 104 q 856 85 882 85 l 783 85 l 817 456 q 818 466 818 462 q 818 472 818 471 q 770 590 818 544 q 650 637 722 637 l 558 637 q 425 585 484 637 q 361 456 368 530 l 336 182 q 335 172 335 176 q 335 167 335 168 q 347 102 335 131 q 383 47 359 73 q 503 0 433 0 q 515 0 508 0 q 529 -1 522 0 l 558 -1 q 690 61 682 -1 l 685 0 l 819 0 q 991 71 921 0 q 1063 243 1063 142 m 717 374 q 715 343 717 368 q 710 273 713 319 q 699 238 708 255 q 676 209 690 222 q 646 189 663 197 q 610 182 629 182 l 519 182 q 486 188 501 182 q 459 206 471 195 q 442 233 448 218 q 436 267 436 248 q 438 295 436 271 q 443 364 439 320 q 454 399 445 382 q 477 428 463 416 q 507 448 490 441 q 543 456 524 456 l 635 456 q 694 433 671 456 q 717 374 717 410 z "},"A":{"ha":787,"x_min":61,"x_max":726,"o":"m 240 393 l 547 393 l 547 607 q 540 644 547 627 q 520 673 533 661 q 491 693 508 686 q 454 700 474 700 l 334 700 q 297 693 314 700 q 268 673 280 686 q 248 643 255 660 q 240 607 240 626 l 240 393 m 576 -29 q 555 -20 564 -29 q 547 0 547 -12 l 547 214 l 240 214 l 240 0 q 232 -20 240 -12 q 211 -29 224 -29 l 90 -29 q 70 -20 78 -29 q 61 0 61 -12 l 61 729 q 140 921 61 842 q 229 982 181 962 q 334 1002 276 1002 l 454 1002 q 560 982 512 1002 q 647 922 608 963 q 707 834 688 882 q 726 729 726 787 l 726 0 q 718 -20 726 -12 q 697 -29 710 -29 l 576 -29 m 697 0 l 697 729 q 680 823 697 781 q 627 901 663 866 q 454 972 555 972 l 334 972 q 161 900 233 972 q 90 729 90 829 l 90 0 l 211 0 l 211 243 l 576 243 l 576 0 l 697 0 m 576 364 l 211 364 l 211 607 q 221 654 211 632 q 247 693 231 677 q 286 720 264 710 q 334 729 309 729 l 454 729 q 503 720 480 729 q 541 694 525 710 q 567 655 557 677 q 576 607 576 633 l 576 364 z "},"B":{"ha":787,"x_min":61,"x_max":726,"o":"m 486 335 q 481 358 486 347 q 468 378 477 370 q 448 391 460 387 q 424 396 437 396 l 240 396 l 240 272 l 424 272 q 448 277 437 272 q 468 290 460 281 q 481 310 477 299 q 486 335 486 321 m 486 637 q 481 662 486 650 q 468 682 477 673 q 448 695 460 690 q 424 700 437 700 l 240 700 l 240 576 l 424 576 q 448 581 437 576 q 468 594 460 586 q 481 614 477 603 q 486 637 486 625 m 726 243 q 646 52 726 130 q 454 -29 567 -29 l 90 -29 q 70 -20 78 -29 q 61 0 61 -12 l 61 972 q 70 993 61 984 q 90 1002 78 1002 l 454 1002 q 646 921 567 1002 q 726 729 726 842 l 726 717 q 714 634 726 673 q 673 558 701 595 l 675 558 q 599 486 644 513 q 693 385 661 448 q 726 243 726 321 m 697 243 q 686 323 697 285 q 653 394 675 362 q 601 450 632 426 q 529 486 569 473 q 597 520 567 498 q 650 575 627 543 q 686 642 674 606 q 697 717 697 678 l 697 729 q 627 900 697 828 q 547 954 590 936 q 454 972 505 972 l 90 972 l 90 0 l 454 0 q 627 72 554 0 q 697 243 697 144 m 515 637 q 508 602 515 618 q 488 574 500 586 q 459 554 475 562 q 424 547 442 547 l 211 547 l 211 729 l 424 729 q 459 722 442 729 q 488 702 475 715 q 508 673 500 690 q 515 637 515 656 m 515 335 q 508 299 515 316 q 488 270 500 283 q 459 250 475 258 q 424 243 442 243 l 211 243 l 211 425 l 424 425 q 459 418 442 425 q 488 398 475 410 q 508 370 500 386 q 515 335 515 353 z "},"C":{"ha":787,"x_min":61,"x_max":726,"o":"m 334 -29 q 229 -9 276 -29 q 140 52 181 11 q 61 243 61 131 l 61 729 q 140 921 61 842 q 229 982 181 962 q 334 1002 276 1002 l 697 1002 q 718 993 710 1002 q 726 972 726 984 l 726 729 q 718 709 726 718 q 697 700 710 700 l 334 700 q 297 693 314 700 q 268 673 280 686 q 248 643 255 660 q 240 607 240 626 l 240 364 q 248 329 240 345 q 268 299 255 312 q 297 279 280 287 q 334 272 314 272 l 697 272 q 718 263 710 272 q 726 243 726 254 l 726 0 q 718 -20 726 -12 q 697 -29 710 -29 l 334 -29 m 697 0 l 697 243 l 334 243 q 286 252 309 243 q 247 278 264 262 q 221 317 231 295 q 211 364 211 339 l 211 607 q 221 654 211 632 q 247 693 231 677 q 286 720 264 710 q 334 729 309 729 l 697 729 l 697 972 l 334 972 q 161 900 233 972 q 90 729 90 829 l 90 243 q 161 72 90 143 q 334 0 231 0 l 697 0 z "},"D":{"ha":787,"x_min":61,"x_max":726,"o":"m 547 607 q 540 643 547 626 q 520 673 532 660 q 490 693 507 686 q 454 700 473 700 l 240 700 l 240 272 l 454 272 q 491 279 474 272 q 520 299 508 286 q 540 328 533 311 q 547 364 547 345 l 547 607 m 726 243 q 707 138 726 185 q 647 50 688 90 q 560 -10 608 9 q 454 -29 512 -29 l 90 -29 q 70 -20 78 -29 q 61 0 61 -12 l 61 972 q 70 993 61 984 q 90 1002 78 1002 l 454 1002 q 646 921 567 1002 q 726 729 726 842 l 726 243 m 697 243 l 697 729 q 627 900 697 828 q 547 954 590 936 q 454 972 505 972 l 90 972 l 90 0 l 454 0 q 627 71 555 0 q 680 149 663 106 q 697 243 697 192 m 576 364 q 567 316 576 338 q 541 278 557 294 q 503 252 525 262 q 454 243 480 243 l 211 243 l 211 729 l 454 729 q 502 720 479 729 q 540 693 524 710 q 567 654 557 677 q 576 607 576 632 l 576 364 z "},"E":{"ha":665,"x_min":61,"x_max":606,"o":"m 334 -29 q 228 -10 276 -29 q 140 50 180 9 q 80 138 100 90 q 61 243 61 185 l 61 972 q 70 993 61 984 q 90 1002 78 1002 l 576 1002 q 597 993 588 1002 q 606 972 606 984 l 606 729 q 597 709 606 718 q 576 700 588 700 l 240 700 l 240 576 l 454 576 q 475 568 467 576 q 484 547 484 559 l 484 425 q 475 405 484 414 q 454 396 467 396 l 240 396 l 240 364 q 247 328 240 345 q 267 299 254 311 q 297 279 279 286 q 334 272 314 272 l 576 272 q 597 263 588 272 q 606 243 606 254 l 606 0 q 597 -20 606 -12 q 576 -29 588 -29 l 334 -29 m 576 0 l 576 243 l 334 243 q 285 252 307 243 q 246 278 262 262 q 220 316 230 294 q 211 364 211 338 l 211 425 l 454 425 l 454 547 l 211 547 l 211 729 l 576 729 l 576 972 l 90 972 l 90 243 q 160 71 90 140 q 334 0 233 0 l 576 0 z "},"F":{"ha":636,"x_min":61,"x_max":606,"o":"m 334 700 q 297 693 314 700 q 267 673 279 686 q 247 644 254 661 q 240 607 240 627 l 240 576 l 454 576 q 475 568 467 576 q 484 547 484 559 l 484 425 q 475 405 484 414 q 454 396 467 396 l 240 396 l 240 0 q 232 -20 240 -12 q 211 -29 224 -29 l 90 -29 q 70 -20 78 -29 q 61 0 61 -12 l 61 729 q 80 834 61 787 q 140 922 100 882 q 228 982 180 963 q 334 1002 276 1002 l 576 1002 q 597 993 588 1002 q 606 972 606 984 l 606 729 q 597 709 606 718 q 576 700 588 700 l 334 700 m 576 729 l 576 972 l 334 972 q 160 901 232 972 q 90 729 90 832 l 90 0 l 211 0 l 211 425 l 454 425 l 454 547 l 211 547 l 211 607 q 220 655 211 633 q 246 694 230 677 q 285 720 262 710 q 334 729 307 729 l 576 729 z "},"G":{"ha":787,"x_min":61,"x_max":726,"o":"m 334 700 q 297 693 314 700 q 268 673 280 686 q 248 643 255 660 q 240 607 240 626 l 240 364 q 248 329 240 345 q 268 299 255 312 q 297 279 280 287 q 334 272 314 272 l 534 272 l 534 396 l 393 396 q 373 405 382 396 q 364 425 364 414 l 364 547 q 373 568 364 559 q 393 576 382 576 l 685 576 q 706 568 697 576 q 714 547 714 559 l 714 0 q 706 -20 714 -12 q 685 -29 697 -29 l 334 -29 q 229 -9 276 -29 q 140 52 181 11 q 61 243 61 131 l 61 729 q 140 921 61 842 q 229 982 181 962 q 334 1002 276 1002 l 697 1002 q 718 993 710 1002 q 726 972 726 984 l 726 729 q 718 709 726 718 q 697 700 710 700 l 334 700 m 697 729 l 697 972 l 334 972 q 161 900 233 972 q 90 729 90 829 l 90 243 q 161 72 90 143 q 334 0 231 0 l 685 0 l 685 547 l 393 547 l 393 425 l 564 425 l 564 243 l 334 243 q 286 252 309 243 q 247 278 264 262 q 221 317 231 295 q 211 364 211 339 l 211 607 q 221 654 211 632 q 247 693 231 677 q 286 720 264 710 q 334 729 309 729 l 697 729 z "},"H":{"ha":787,"x_min":61,"x_max":726,"o":"m 576 -29 q 555 -20 564 -29 q 547 0 547 -12 l 547 335 l 240 335 l 240 0 q 232 -20 240 -12 q 211 -29 224 -29 l 90 -29 q 70 -20 78 -29 q 61 0 61 -12 l 61 972 q 70 993 61 984 q 90 1002 78 1002 l 211 1002 q 232 993 224 1002 q 240 972 240 984 l 240 636 l 547 636 l 547 972 q 555 993 547 984 q 576 1002 564 1002 l 697 1002 q 718 993 710 1002 q 726 972 726 984 l 726 0 q 718 -20 726 -12 q 697 -29 710 -29 l 576 -29 m 697 0 l 697 972 l 576 972 l 576 607 l 211 607 l 211 972 l 90 972 l 90 0 l 211 0 l 211 364 l 576 364 l 576 0 l 697 0 z "},"I":{"ha":422,"x_min":61,"x_max":363,"o":"m 90 -29 q 70 -20 78 -29 q 61 0 61 -12 l 61 243 q 70 263 61 254 q 90 272 78 272 l 121 272 l 121 700 l 90 700 q 70 709 78 700 q 61 729 61 718 l 61 972 q 70 993 61 984 q 90 1002 78 1002 l 334 1002 q 354 993 345 1002 q 363 972 363 984 l 363 729 q 354 709 363 718 q 334 700 345 700 l 301 700 l 301 272 l 334 272 q 354 263 345 272 q 363 243 363 254 l 363 0 q 354 -20 363 -12 q 334 -29 345 -29 l 90 -29 m 334 0 l 334 243 l 272 243 l 272 729 l 334 729 l 334 972 l 90 972 l 90 729 l 150 729 l 150 243 l 90 243 l 90 0 l 334 0 z "},"J":{"ha":545,"x_min":61,"x_max":484,"o":"m 484 243 q 464 138 484 185 q 404 50 445 90 q 316 -10 364 9 q 211 -29 269 -29 l 90 -29 q 70 -20 78 -29 q 61 0 61 -12 l 61 243 q 70 263 61 254 q 90 272 78 272 l 211 272 q 248 279 231 272 q 278 299 265 286 q 297 328 290 311 q 304 364 304 345 l 304 700 l 90 700 q 70 709 78 700 q 61 729 61 718 l 61 972 q 70 993 61 984 q 90 1002 78 1002 l 454 1002 q 475 993 467 1002 q 484 972 484 984 l 484 243 m 454 243 l 454 972 l 90 972 l 90 729 l 334 729 l 334 364 q 324 316 334 338 q 298 278 315 294 q 260 252 282 262 q 211 243 237 243 l 90 243 l 90 0 l 211 0 q 383 71 313 0 q 437 149 420 106 q 454 243 454 192 z "},"K":{"ha":787,"x_min":61,"x_max":726,"o":"m 576 -29 q 555 -20 564 -29 q 547 0 547 -12 l 547 243 q 540 279 547 262 q 520 309 533 296 q 491 328 508 321 q 454 335 474 335 l 240 335 l 240 0 q 232 -20 240 -12 q 211 -29 224 -29 l 90 -29 q 70 -20 78 -29 q 61 0 61 -12 l 61 972 q 70 993 61 984 q 90 1002 78 1002 l 211 1002 q 232 993 224 1002 q 240 972 240 984 l 240 636 l 454 636 q 491 643 474 636 q 520 663 508 650 q 540 692 533 675 q 547 729 547 709 l 547 972 q 555 993 547 984 q 576 1002 564 1002 l 697 1002 q 718 993 710 1002 q 726 972 726 984 l 726 704 q 698 581 726 638 q 618 486 669 524 q 698 390 669 448 q 726 267 726 332 l 726 0 q 718 -20 726 -12 q 697 -29 710 -29 l 576 -29 m 697 0 l 697 267 q 688 335 697 302 q 661 397 678 368 q 618 448 644 425 q 562 486 593 471 q 618 524 593 501 q 661 575 644 547 q 688 636 678 604 q 697 704 697 669 l 697 972 l 576 972 l 576 729 q 567 681 576 703 q 541 642 557 659 q 503 616 525 626 q 454 607 480 607 l 211 607 l 211 972 l 90 972 l 90 0 l 211 0 l 211 364 l 454 364 q 503 355 480 364 q 541 330 525 346 q 567 291 557 313 q 576 243 576 269 l 576 0 l 697 0 z "},"L":{"ha":665,"x_min":61,"x_max":606,"o":"m 334 -29 q 228 -10 276 -29 q 140 50 180 9 q 80 138 100 90 q 61 243 61 185 l 61 972 q 70 993 61 984 q 90 1002 78 1002 l 211 1002 q 232 993 224 1002 q 240 972 240 984 l 240 364 q 247 328 240 345 q 267 299 254 311 q 297 279 279 286 q 334 272 314 272 l 576 272 q 597 263 588 272 q 606 243 606 254 l 606 0 q 597 -20 606 -12 q 576 -29 588 -29 l 334 -29 m 576 0 l 576 243 l 334 243 q 285 252 307 243 q 246 278 262 262 q 220 316 230 294 q 211 364 211 338 l 211 972 l 90 972 l 90 243 q 160 71 90 140 q 334 0 233 0 l 576 0 z "},"M":{"ha":1274,"x_min":61,"x_max":1213,"o":"m 1063 -29 q 1042 -20 1050 -29 q 1034 0 1034 -12 l 1034 607 q 1026 643 1034 626 q 1006 673 1019 660 q 976 693 994 686 q 940 700 959 700 l 819 700 q 783 693 800 700 q 753 673 766 686 q 733 644 741 661 q 726 607 726 627 l 726 0 q 718 -20 726 -12 q 697 -29 710 -29 l 576 -29 q 555 -20 564 -29 q 547 0 547 -12 l 547 607 q 540 644 547 627 q 520 673 533 661 q 491 693 508 686 q 454 700 474 700 l 334 700 q 297 693 314 700 q 268 673 280 686 q 248 643 255 660 q 240 607 240 626 l 240 0 q 232 -20 240 -12 q 211 -29 224 -29 l 90 -29 q 70 -20 78 -29 q 61 0 61 -12 l 61 729 q 140 921 61 842 q 229 982 181 962 q 334 1002 276 1002 l 406 1002 q 474 993 441 1002 q 538 967 508 984 q 593 927 568 951 q 636 875 618 904 q 680 927 654 904 q 734 967 705 951 q 798 993 764 984 q 868 1002 832 1002 l 940 1002 q 1132 921 1053 1002 q 1213 729 1213 842 l 1213 0 q 1204 -20 1213 -12 q 1183 -29 1196 -29 l 1063 -29 m 1183 0 l 1183 729 q 1112 900 1183 829 q 1033 954 1076 936 q 940 972 991 972 l 868 972 q 792 961 828 972 q 725 928 755 949 q 671 876 694 906 q 636 807 648 845 q 602 876 624 845 q 549 928 579 906 q 481 961 518 949 q 406 972 445 972 l 334 972 q 161 900 233 972 q 90 729 90 829 l 90 0 l 211 0 l 211 607 q 221 654 211 632 q 247 693 231 677 q 286 720 264 710 q 334 729 309 729 l 454 729 q 503 720 480 729 q 541 694 525 710 q 567 655 557 677 q 576 607 576 633 l 576 0 l 697 0 l 697 607 q 707 655 697 633 q 732 694 716 677 q 771 720 749 710 q 819 729 793 729 l 940 729 q 987 720 965 729 q 1026 693 1010 710 q 1053 654 1043 677 q 1063 607 1063 632 l 1063 0 l 1183 0 z "},"N":{"ha":787,"x_min":61,"x_max":726,"o":"m 576 -29 q 555 -20 564 -29 q 547 0 547 -12 l 547 607 q 540 644 547 627 q 520 673 533 661 q 491 693 508 686 q 454 700 474 700 l 334 700 q 297 693 314 700 q 268 673 280 686 q 248 643 255 660 q 240 607 240 626 l 240 0 q 232 -20 240 -12 q 211 -29 224 -29 l 90 -29 q 70 -20 78 -29 q 61 0 61 -12 l 61 729 q 80 833 61 786 q 140 921 100 881 q 334 1002 219 1002 l 454 1002 q 560 982 512 1002 q 647 922 608 963 q 707 834 688 882 q 726 729 726 787 l 726 0 q 718 -20 726 -12 q 697 -29 710 -29 l 576 -29 m 697 0 l 697 729 q 680 823 697 781 q 627 901 663 866 q 454 972 555 972 l 334 972 q 240 954 283 972 q 160 900 197 936 q 90 729 90 830 l 90 0 l 211 0 l 211 607 q 221 654 211 632 q 247 693 231 677 q 286 720 264 710 q 334 729 309 729 l 454 729 q 503 720 480 729 q 541 694 525 710 q 567 655 557 677 q 576 607 576 633 l 576 0 l 697 0 z "},"O":{"ha":787,"x_min":61,"x_max":726,"o":"m 547 607 q 540 643 547 626 q 520 673 532 660 q 490 693 507 686 q 454 700 473 700 l 334 700 q 297 693 314 700 q 268 673 280 686 q 248 643 255 660 q 240 607 240 626 l 240 364 q 248 329 240 345 q 268 299 255 312 q 297 279 280 287 q 334 272 314 272 l 454 272 q 491 279 474 272 q 520 299 508 286 q 540 328 533 311 q 547 364 547 345 l 547 607 m 726 243 q 707 138 726 185 q 647 50 688 90 q 560 -10 608 9 q 454 -29 512 -29 l 334 -29 q 228 -10 276 -29 q 140 50 180 9 q 80 138 100 90 q 61 243 61 186 l 61 729 q 80 833 61 786 q 140 921 100 881 q 334 1002 219 1002 l 454 1002 q 646 921 567 1002 q 726 729 726 842 l 726 243 m 697 243 l 697 729 q 627 900 697 828 q 547 954 590 936 q 454 972 505 972 l 334 972 q 240 954 283 972 q 160 900 197 936 q 90 729 90 830 l 90 243 q 107 150 90 193 q 160 71 124 106 q 334 0 233 0 l 454 0 q 627 71 555 0 q 680 149 663 106 q 697 243 697 192 m 576 364 q 567 316 576 338 q 541 278 557 294 q 503 252 525 262 q 454 243 480 243 l 334 243 q 286 252 309 243 q 247 278 264 262 q 221 317 231 295 q 211 364 211 339 l 211 607 q 221 654 211 632 q 247 693 231 677 q 286 720 264 710 q 334 729 309 729 l 454 729 q 502 720 479 729 q 540 693 524 710 q 567 654 557 677 q 576 607 576 632 l 576 364 z "},"P":{"ha":787,"x_min":61,"x_max":726,"o":"m 486 637 q 481 662 486 650 q 468 682 477 673 q 448 695 460 690 q 424 700 437 700 l 240 700 l 240 576 l 424 576 q 448 581 437 576 q 468 594 460 586 q 481 614 477 603 q 486 637 486 625 m 726 668 q 646 476 726 555 q 454 396 566 396 l 240 396 l 240 0 q 232 -20 240 -12 q 211 -29 224 -29 l 90 -29 q 70 -20 78 -29 q 61 0 61 -12 l 61 972 q 70 993 61 984 q 90 1002 78 1002 l 454 1002 q 646 921 567 1002 q 726 729 726 842 l 726 668 m 697 668 l 697 729 q 627 900 697 828 q 547 954 590 936 q 454 972 505 972 l 90 972 l 90 0 l 211 0 l 211 425 l 454 425 q 547 444 505 425 q 627 497 590 462 q 697 668 697 569 m 515 637 q 508 602 515 618 q 488 574 500 586 q 459 554 475 562 q 424 547 442 547 l 211 547 l 211 729 l 424 729 q 459 722 442 729 q 488 702 475 715 q 508 673 500 690 q 515 637 515 656 z "},"Q":{"ha":787,"x_min":61,"x_max":726,"o":"m 547 607 q 540 643 547 626 q 520 673 532 660 q 490 693 507 686 q 454 700 473 700 l 334 700 q 297 693 314 700 q 268 673 280 686 q 248 643 255 660 q 240 607 240 626 l 240 364 q 248 329 240 345 q 268 299 255 312 q 297 279 280 287 q 334 272 314 272 l 454 272 q 491 279 474 272 q 520 299 508 286 q 540 328 533 311 q 547 364 547 345 l 547 607 m 576 -395 q 383 -315 463 -395 q 323 -227 342 -275 q 304 -122 304 -180 l 304 -28 q 140 50 210 -20 q 61 243 61 130 l 61 729 q 140 921 61 842 q 229 982 181 962 q 334 1002 276 1002 l 454 1002 q 646 921 567 1002 q 726 729 726 842 l 726 243 q 707 138 726 185 q 647 50 688 90 q 488 -26 580 -18 q 520 -74 496 -56 q 576 -93 544 -93 l 697 -93 q 718 -101 710 -93 q 726 -122 726 -110 l 726 -366 q 718 -386 726 -377 q 697 -395 710 -395 l 576 -395 m 697 -366 l 697 -122 l 576 -122 q 528 -113 551 -122 q 490 -87 506 -103 q 464 -48 473 -71 q 454 0 454 -26 q 627 71 555 0 q 680 149 663 106 q 697 243 697 192 l 697 729 q 627 900 697 828 q 547 954 590 936 q 454 972 505 972 l 334 972 q 161 900 233 972 q 90 729 90 829 l 90 243 q 161 71 90 142 q 334 0 232 0 l 334 -122 q 350 -216 334 -174 q 403 -294 367 -259 q 576 -366 476 -366 l 697 -366 m 576 364 q 567 316 576 338 q 541 278 557 294 q 503 252 525 262 q 454 243 480 243 l 334 243 q 286 252 309 243 q 247 278 264 262 q 221 317 231 295 q 211 364 211 339 l 211 607 q 221 654 211 632 q 247 693 231 677 q 286 720 264 710 q 334 729 309 729 l 454 729 q 502 720 479 729 q 540 693 524 710 q 567 654 557 677 q 576 607 576 632 l 576 364 z "},"R":{"ha":787,"x_min":61,"x_max":726,"o":"m 486 637 q 481 662 486 650 q 468 682 477 673 q 448 695 460 690 q 424 700 437 700 l 240 700 l 240 576 l 424 576 q 448 581 437 576 q 468 594 460 586 q 481 614 477 603 q 486 637 486 625 m 576 -29 q 555 -20 564 -29 q 547 0 547 -12 l 547 256 q 513 354 547 315 l 514 354 q 474 386 496 376 q 424 396 452 396 l 240 396 l 240 0 q 232 -20 240 -12 q 211 -29 224 -29 l 90 -29 q 70 -20 78 -29 q 61 0 61 -12 l 61 972 q 70 993 61 984 q 90 1002 78 1002 l 454 1002 q 646 921 567 1002 q 726 729 726 842 q 693 588 726 652 q 599 486 661 524 q 693 391 661 450 q 726 256 726 332 l 726 0 q 718 -20 726 -12 q 697 -29 710 -29 l 576 -29 m 697 0 l 697 256 q 686 334 697 297 q 653 400 675 370 q 601 451 632 429 q 529 486 569 473 q 601 523 569 499 q 653 578 632 547 q 686 649 675 610 q 697 729 697 687 q 627 900 697 828 q 547 954 590 936 q 454 972 505 972 l 90 972 l 90 0 l 211 0 l 211 425 l 424 425 q 536 374 493 425 q 566 319 556 349 q 576 256 576 290 l 576 0 l 697 0 m 515 637 q 508 602 515 618 q 488 574 500 586 q 459 554 475 562 q 424 547 442 547 l 211 547 l 211 729 l 424 729 q 459 722 442 729 q 488 702 475 715 q 508 673 500 690 q 515 637 515 656 z "},"S":{"ha":787,"x_min":61,"x_max":726,"o":"m 726 243 q 646 52 726 130 q 454 -29 567 -29 l 90 -29 q 70 -20 78 -29 q 61 0 61 -12 l 61 243 q 70 263 61 254 q 90 272 78 272 l 424 272 q 448 277 437 272 q 468 290 460 281 q 481 310 477 299 q 486 335 486 321 q 481 358 486 347 q 468 378 477 370 q 448 391 460 387 q 424 396 437 396 l 334 396 q 229 416 276 396 q 140 476 181 435 q 61 668 61 555 l 61 729 q 140 921 61 842 q 229 982 181 962 q 334 1002 276 1002 l 697 1002 q 718 993 710 1002 q 726 972 726 984 l 726 729 q 718 709 726 718 q 697 700 710 700 l 364 700 q 339 695 351 700 q 319 682 328 690 q 306 662 311 673 q 301 637 301 650 q 306 614 301 625 q 319 594 311 603 q 339 581 328 586 q 364 576 351 576 l 454 576 q 646 496 565 576 q 726 304 726 415 l 726 243 m 697 243 l 697 304 q 627 475 697 404 q 547 529 590 511 q 454 547 505 547 l 364 547 q 329 554 345 547 q 299 574 312 562 q 279 602 287 586 q 272 637 272 618 q 279 673 272 656 q 299 702 287 690 q 329 722 312 715 q 364 729 345 729 l 697 729 l 697 972 l 334 972 q 161 900 233 972 q 90 729 90 829 l 90 668 q 161 497 90 568 q 240 444 197 462 q 334 425 283 425 l 424 425 q 459 418 442 425 q 488 398 475 410 q 508 370 500 386 q 515 335 515 353 q 508 299 515 316 q 488 270 500 283 q 459 250 475 258 q 424 243 442 243 l 90 243 l 90 0 l 454 0 q 627 72 554 0 q 697 243 697 144 z "},"T":{"ha":726,"x_min":31,"x_max":696,"o":"m 453 700 l 453 0 q 445 -20 453 -12 q 424 -29 436 -29 l 302 -29 q 282 -20 290 -29 q 273 0 273 -12 l 273 700 l 60 700 q 39 709 47 700 q 31 729 31 718 l 31 972 q 39 993 31 984 q 60 1002 47 1002 l 667 1002 q 688 993 680 1002 q 696 972 696 984 l 696 729 q 688 709 696 718 q 667 700 680 700 l 453 700 m 667 729 l 667 972 l 60 972 l 60 729 l 302 729 l 302 0 l 424 0 l 424 729 l 667 729 z "},"U":{"ha":787,"x_min":61,"x_max":726,"o":"m 726 243 q 707 138 726 185 q 647 50 688 90 q 560 -10 608 9 q 454 -29 512 -29 l 334 -29 q 228 -10 276 -29 q 140 50 180 9 q 80 138 100 90 q 61 243 61 186 l 61 972 q 70 993 61 984 q 90 1002 78 1002 l 211 1002 q 232 993 224 1002 q 240 972 240 984 l 240 364 q 248 329 240 345 q 268 299 255 312 q 297 279 280 287 q 334 272 314 272 l 454 272 q 491 279 474 272 q 520 299 508 286 q 540 328 533 311 q 547 364 547 345 l 547 972 q 555 993 547 984 q 576 1002 564 1002 l 697 1002 q 718 993 710 1002 q 726 972 726 984 l 726 243 m 697 243 l 697 972 l 576 972 l 576 364 q 567 316 576 338 q 541 278 557 294 q 503 252 525 262 q 454 243 480 243 l 334 243 q 286 252 309 243 q 247 278 264 262 q 221 317 231 295 q 211 364 211 339 l 211 972 l 90 972 l 90 243 q 107 150 90 193 q 160 71 124 106 q 334 0 233 0 l 454 0 q 627 71 555 0 q 680 149 663 106 q 697 243 697 192 z "},"V":{"ha":787,"x_min":61,"x_max":726,"o":"m 726 243 q 707 138 726 185 q 647 50 688 90 q 560 -10 608 9 q 454 -29 512 -29 l 90 -29 q 70 -20 78 -29 q 61 0 61 -12 l 61 972 q 70 993 61 984 q 90 1002 78 1002 l 211 1002 q 232 993 224 1002 q 240 972 240 984 l 240 272 l 454 272 q 491 279 474 272 q 520 299 508 286 q 540 328 533 311 q 547 364 547 345 l 547 972 q 555 993 547 984 q 576 1002 564 1002 l 697 1002 q 718 993 710 1002 q 726 972 726 984 l 726 243 m 697 243 l 697 972 l 576 972 l 576 364 q 567 316 576 338 q 541 278 557 294 q 503 252 525 262 q 454 243 480 243 l 211 243 l 211 972 l 90 972 l 90 0 l 454 0 q 627 71 555 0 q 680 149 663 106 q 697 243 697 192 z "},"W":{"ha":1274,"x_min":61,"x_max":1213,"o":"m 1213 243 q 1132 52 1213 130 q 940 -29 1053 -29 l 868 -29 q 798 -21 832 -29 q 734 4 764 -12 q 680 44 705 20 q 636 97 654 67 q 593 44 618 67 q 538 4 568 20 q 474 -21 508 -12 q 406 -29 441 -29 l 334 -29 q 229 -9 276 -29 q 140 52 181 11 q 61 243 61 131 l 61 972 q 70 993 61 984 q 90 1002 78 1002 l 211 1002 q 232 993 224 1002 q 240 972 240 984 l 240 364 q 248 329 240 345 q 268 299 255 312 q 297 279 280 287 q 334 272 314 272 l 454 272 q 491 279 474 272 q 520 299 508 286 q 540 328 533 311 q 547 364 547 345 l 547 972 q 555 993 547 984 q 576 1002 564 1002 l 697 1002 q 718 993 710 1002 q 726 972 726 984 l 726 364 q 733 328 726 345 q 753 299 741 311 q 783 279 766 286 q 819 272 800 272 l 940 272 q 976 279 959 272 q 1006 299 994 287 q 1026 329 1019 312 q 1034 364 1034 345 l 1034 972 q 1042 993 1034 984 q 1063 1002 1050 1002 l 1183 1002 q 1204 993 1196 1002 q 1213 972 1213 984 l 1213 243 m 1183 243 l 1183 972 l 1063 972 l 1063 364 q 1053 317 1063 339 q 1026 278 1043 295 q 987 252 1010 262 q 940 243 965 243 l 819 243 q 771 252 793 243 q 732 278 749 262 q 707 316 716 294 q 697 364 697 338 l 697 972 l 576 972 l 576 364 q 567 316 576 338 q 541 278 557 294 q 503 252 525 262 q 454 243 480 243 l 334 243 q 286 252 309 243 q 247 278 264 262 q 221 317 231 295 q 211 364 211 339 l 211 972 l 90 972 l 90 243 q 161 72 90 143 q 334 0 231 0 l 406 0 q 481 12 445 0 q 549 44 518 23 q 602 97 579 66 q 636 165 624 127 q 671 97 648 127 q 725 44 694 66 q 792 12 755 23 q 868 0 828 0 l 940 0 q 1112 72 1040 0 q 1183 243 1183 143 z "},"X":{"ha":787,"x_min":61,"x_max":726,"o":"m 625 -29 q 541 -16 581 -29 q 465 22 501 -3 q 393 98 422 53 q 322 22 366 53 q 247 -16 287 -3 q 163 -29 207 -29 l 90 -29 q 70 -20 78 -29 q 61 0 61 -12 l 61 243 q 70 263 61 254 q 90 272 78 272 l 211 272 q 247 279 230 272 q 277 299 264 287 q 297 329 290 312 q 304 364 304 345 l 304 607 q 297 643 304 626 q 277 673 290 660 q 247 693 264 686 q 211 700 230 700 l 90 700 q 70 709 78 700 q 61 729 61 718 l 61 972 q 70 993 61 984 q 90 1002 78 1002 l 163 1002 q 322 947 252 1002 l 322 949 q 393 872 367 917 q 465 949 421 917 l 465 947 q 625 1002 537 1002 l 697 1002 q 718 993 710 1002 q 726 972 726 984 l 726 729 q 718 709 726 718 q 697 700 710 700 l 576 700 q 540 693 557 700 q 511 673 524 686 q 491 643 498 660 q 484 607 484 626 l 484 364 q 491 329 484 345 q 511 299 498 312 q 540 279 524 287 q 576 272 557 272 l 697 272 q 718 263 710 272 q 726 243 726 254 l 726 0 q 718 -20 726 -12 q 697 -29 710 -29 l 625 -29 m 697 0 l 697 243 l 576 243 q 529 252 551 243 q 491 278 507 262 q 464 317 474 295 q 454 364 454 339 l 454 607 q 464 654 454 632 q 491 693 474 677 q 529 720 507 710 q 576 729 551 729 l 697 729 l 697 972 l 625 972 q 482 925 546 972 q 428 872 450 902 q 393 804 406 842 q 359 872 382 842 q 306 925 337 902 q 163 972 241 972 l 90 972 l 90 729 l 211 729 q 258 720 236 729 q 297 693 281 710 q 324 654 314 677 q 334 607 334 632 l 334 364 q 324 317 334 339 q 297 278 314 295 q 258 252 281 262 q 211 243 236 243 l 90 243 l 90 0 l 163 0 q 306 46 240 0 q 359 100 337 70 q 393 168 382 130 q 428 100 406 130 q 482 46 450 70 q 625 0 547 0 l 697 0 z "},"Y":{"ha":787,"x_min":61,"x_max":726,"o":"m 726 534 q 707 429 726 477 q 647 342 688 382 q 484 264 578 272 l 484 0 q 475 -20 484 -12 q 454 -29 467 -29 l 334 -29 q 313 -20 321 -29 q 304 0 304 -12 l 304 264 q 140 342 210 272 q 61 534 61 421 l 61 972 q 70 993 61 984 q 90 1002 78 1002 l 211 1002 q 232 993 224 1002 q 240 972 240 984 l 240 656 q 248 620 240 637 q 268 591 255 604 q 297 571 280 578 q 334 564 314 564 l 454 564 q 491 571 474 564 q 520 590 508 578 q 540 620 533 603 q 547 656 547 636 l 547 972 q 555 993 547 984 q 576 1002 564 1002 l 697 1002 q 718 993 710 1002 q 726 972 726 984 l 726 534 m 697 534 l 697 972 l 576 972 l 576 656 q 567 608 576 630 q 541 570 557 586 q 503 544 525 553 q 454 534 480 534 l 334 534 q 286 544 309 534 q 247 570 264 553 q 221 609 231 587 q 211 656 211 631 l 211 972 l 90 972 l 90 534 q 108 441 90 484 q 161 363 125 398 q 334 292 231 292 l 334 0 l 454 0 l 454 292 q 627 363 555 292 q 680 441 663 398 q 697 534 697 484 z "},"Z":{"ha":787,"x_min":61,"x_max":726,"o":"m 90 -29 q 70 -20 78 -29 q 61 0 61 -12 l 61 254 l 452 700 l 90 700 q 70 709 78 700 q 61 729 61 718 l 61 972 q 70 993 61 984 q 90 1002 78 1002 l 697 1002 q 718 993 710 1002 q 726 972 726 984 l 726 718 l 336 272 l 697 272 q 718 263 710 272 q 726 243 726 254 l 726 0 q 718 -20 726 -12 q 697 -29 710 -29 l 90 -29 m 697 0 l 697 243 l 272 243 l 697 729 l 697 972 l 90 972 l 90 729 l 515 729 l 90 243 l 90 0 l 697 0 z "},"[":{"ha":484,"x_min":61,"x_max":363,"o":"m 90 -151 q 70 -142 78 -151 q 61 -122 61 -134 l 61 1093 q 70 1114 61 1105 q 90 1122 78 1122 l 334 1122 q 354 1114 345 1122 q 363 1093 363 1105 l 363 850 q 354 829 363 838 q 334 821 345 821 l 240 821 l 240 150 l 334 150 q 354 142 345 150 q 363 121 363 134 l 363 -122 q 354 -142 363 -134 q 334 -151 345 -151 l 90 -151 m 334 -122 l 334 121 l 211 121 l 211 850 l 334 850 l 334 1093 l 90 1093 l 90 -122 l 334 -122 z "},"\\":{"ha":648,"x_min":26,"x_max":622,"o":"m 485 -134 q 463 -132 474 -138 q 447 -115 452 -127 l 32 1026 q 33 1049 26 1038 q 50 1064 39 1060 l 164 1105 q 186 1104 176 1109 q 201 1088 197 1099 l 616 -54 q 616 -77 622 -66 q 599 -93 610 -87 l 485 -134 m 589 -64 l 174 1078 l 60 1036 l 475 -106 l 589 -64 z "},"]":{"ha":484,"x_min":121,"x_max":422,"o":"m 150 -151 q 130 -142 138 -151 q 121 -122 121 -134 l 121 121 q 130 142 121 134 q 150 150 138 150 l 243 150 l 243 821 l 150 821 q 130 829 138 821 q 121 850 121 838 l 121 1093 q 130 1114 121 1105 q 150 1122 138 1122 l 393 1122 q 414 1114 406 1122 q 422 1093 422 1105 l 422 -122 q 414 -142 422 -134 q 393 -151 406 -151 l 150 -151 m 393 -122 l 393 1093 l 150 1093 l 150 850 l 272 850 l 272 121 l 150 121 l 150 -122 l 393 -122 z "},"^":{"ha":673,"x_min":58,"x_max":615,"o":"m 507 461 q 484 461 496 457 q 468 476 472 465 l 336 771 l 205 476 q 189 461 200 465 q 167 461 177 457 l 78 501 q 62 518 66 507 q 62 541 58 530 l 261 985 q 272 996 264 991 q 288 1002 280 1002 l 385 1002 q 400 996 392 1002 q 412 985 409 991 l 610 541 q 611 518 615 530 q 596 501 606 507 l 507 461 m 583 529 l 385 972 l 288 972 l 90 529 l 179 489 l 336 842 l 494 489 l 583 529 z "},"_":{"ha":547,"x_min":0,"x_max":547,"o":"m 0 0 l 0 121 l 547 121 l 547 0 l 0 0 z "},"`":{"ha":350,"x_min":60,"x_max":293,"o":"m 187 772 q 173 777 181 772 q 161 787 165 782 l 64 957 q 60 972 60 965 q 63 987 60 981 q 74 998 67 994 q 90 1002 81 1002 l 187 1002 q 202 996 195 1002 q 214 983 210 989 l 286 812 q 285 785 293 797 q 260 772 277 772 l 187 772 m 260 802 l 187 972 l 90 972 l 187 802 l 260 802 z "},"a":{"ha":787,"x_min":61,"x_max":726,"o":"m 547 486 q 540 523 547 506 q 520 552 533 540 q 491 571 508 564 q 454 578 474 578 l 334 578 q 297 571 314 578 q 268 551 280 564 q 248 522 255 539 q 240 486 240 505 l 240 364 q 248 329 240 345 q 268 299 255 312 q 297 279 280 287 q 334 272 314 272 l 454 272 q 490 279 473 272 q 520 299 507 287 q 540 329 532 312 q 547 364 547 345 l 547 486 m 576 -29 q 557 -23 565 -29 q 547 -5 549 -16 q 503 -24 526 -18 q 454 -29 479 -29 l 334 -29 q 229 -9 276 -29 q 140 52 181 11 q 61 243 61 131 l 61 607 q 81 712 61 665 q 140 800 100 760 q 229 859 181 840 q 334 879 276 879 l 454 879 q 560 860 512 879 q 647 802 608 842 q 707 713 688 761 q 726 607 726 666 l 726 0 q 718 -20 726 -12 q 697 -29 710 -29 l 576 -29 m 697 0 l 697 607 q 680 701 697 658 q 627 781 663 745 q 548 833 591 817 q 454 850 505 850 l 334 850 q 161 779 231 850 q 90 607 90 708 l 90 243 q 161 72 90 143 q 334 0 231 0 l 454 0 q 495 4 475 0 q 532 20 515 9 q 576 82 574 43 l 576 0 l 697 0 m 576 364 q 567 317 576 339 q 540 278 557 295 q 502 252 524 262 q 454 243 479 243 l 334 243 q 286 252 309 243 q 247 278 264 262 q 221 317 231 295 q 211 364 211 339 l 211 486 q 221 533 211 511 q 247 572 231 555 q 286 597 264 588 q 334 607 309 607 l 454 607 q 503 598 480 607 q 541 572 525 589 q 567 534 557 556 q 576 486 576 512 l 576 364 z "},"b":{"ha":787,"x_min":61,"x_max":726,"o":"m 547 486 q 540 522 547 505 q 520 551 532 539 q 490 571 507 564 q 454 578 473 578 l 334 578 q 297 571 314 578 q 268 551 280 564 q 248 522 255 539 q 240 486 240 505 l 240 364 q 247 328 240 345 q 267 299 254 311 q 297 279 279 286 q 334 272 314 272 l 454 272 q 490 279 473 272 q 520 299 507 287 q 540 329 532 312 q 547 364 547 345 l 547 486 m 726 243 q 646 52 726 130 q 454 -29 567 -29 l 334 -29 q 228 -10 276 -29 q 140 50 180 9 q 80 138 100 90 q 61 243 61 185 l 61 1034 q 70 1054 61 1045 q 90 1063 78 1063 l 211 1063 q 232 1054 224 1063 q 240 1034 240 1045 l 240 857 q 284 874 260 869 q 334 879 308 879 l 454 879 q 646 800 566 879 q 706 712 686 760 q 726 607 726 665 l 726 243 m 697 243 l 697 607 q 627 779 697 707 q 454 850 554 850 l 334 850 q 293 845 313 850 q 256 831 273 841 q 211 770 213 807 l 211 1034 l 90 1034 l 90 243 q 160 71 90 140 q 334 0 233 0 l 454 0 q 627 72 554 0 q 697 243 697 144 m 576 364 q 567 317 576 339 q 540 278 557 295 q 502 252 524 262 q 454 243 479 243 l 334 243 q 285 252 307 243 q 246 278 262 262 q 220 316 230 294 q 211 364 211 338 l 211 486 q 221 533 211 511 q 247 572 231 555 q 286 597 264 588 q 334 607 309 607 l 454 607 q 502 597 479 607 q 540 572 524 588 q 567 533 557 555 q 576 486 576 511 l 576 364 z "},"c":{"ha":787,"x_min":61,"x_max":726,"o":"m 334 -29 q 229 -9 276 -29 q 140 52 181 11 q 61 243 61 131 l 61 607 q 81 712 61 665 q 140 800 100 760 q 229 859 181 840 q 334 879 276 879 l 697 879 q 718 871 710 879 q 726 850 726 863 l 726 607 q 718 587 726 595 q 697 578 710 578 l 334 578 q 297 571 314 578 q 268 551 280 564 q 248 522 255 539 q 240 486 240 505 l 240 364 q 248 329 240 345 q 268 299 255 312 q 297 279 280 287 q 334 272 314 272 l 697 272 q 718 263 710 272 q 726 243 726 254 l 726 0 q 718 -20 726 -12 q 697 -29 710 -29 l 334 -29 m 697 0 l 697 243 l 334 243 q 286 252 309 243 q 247 278 264 262 q 221 317 231 295 q 211 364 211 339 l 211 486 q 221 533 211 511 q 247 572 231 555 q 286 597 264 588 q 334 607 309 607 l 697 607 l 697 850 l 334 850 q 161 779 231 850 q 90 607 90 708 l 90 243 q 161 72 90 143 q 334 0 231 0 l 697 0 z "},"d":{"ha":787,"x_min":61,"x_max":726,"o":"m 547 486 q 540 522 547 505 q 520 551 532 539 q 490 571 507 564 q 454 578 473 578 l 334 578 q 297 571 314 578 q 268 551 280 564 q 248 522 255 539 q 240 486 240 505 l 240 364 q 248 329 240 345 q 268 299 255 312 q 297 279 280 287 q 334 272 314 272 l 454 272 q 491 279 474 272 q 520 299 508 286 q 540 328 533 311 q 547 364 547 345 l 547 486 m 726 243 q 707 138 726 185 q 647 50 688 90 q 560 -10 608 9 q 454 -29 512 -29 l 334 -29 q 229 -9 276 -29 q 140 52 181 11 q 61 243 61 131 l 61 607 q 81 712 61 665 q 140 800 100 760 q 229 859 181 840 q 334 879 276 879 l 454 879 q 503 874 479 879 q 547 857 526 869 l 547 1034 q 555 1054 547 1045 q 576 1063 564 1063 l 697 1063 q 718 1054 710 1063 q 726 1034 726 1045 l 726 243 m 697 243 l 697 1034 l 576 1034 l 576 770 q 532 831 574 807 q 495 845 515 841 q 454 850 475 850 l 334 850 q 161 779 231 850 q 90 607 90 708 l 90 243 q 161 72 90 143 q 334 0 231 0 l 454 0 q 627 71 555 0 q 680 149 663 106 q 697 243 697 192 m 576 364 q 567 316 576 338 q 541 278 557 294 q 503 252 525 262 q 454 243 480 243 l 334 243 q 286 252 309 243 q 247 278 264 262 q 221 317 231 295 q 211 364 211 339 l 211 486 q 221 533 211 511 q 247 572 231 555 q 286 597 264 588 q 334 607 309 607 l 454 607 q 502 597 479 607 q 540 572 524 588 q 567 533 557 555 q 576 486 576 511 l 576 364 z "},"e":{"ha":787,"x_min":61,"x_max":726,"o":"m 334 -29 q 229 -9 276 -29 q 140 52 181 11 q 61 243 61 131 l 61 607 q 81 712 61 665 q 140 800 100 760 q 229 859 181 840 q 334 879 276 879 l 697 879 q 718 871 710 879 q 726 850 726 863 l 726 607 q 718 587 726 595 q 697 578 710 578 l 334 578 q 278 560 302 578 q 245 515 254 543 l 576 515 q 597 507 588 515 q 606 486 606 498 l 606 364 q 597 344 606 353 q 576 335 588 335 l 245 335 q 278 289 254 307 q 334 272 302 272 l 697 272 q 718 263 710 272 q 726 243 726 254 l 726 0 q 718 -20 726 -12 q 697 -29 710 -29 l 334 -29 m 697 0 l 697 243 l 334 243 q 286 252 309 243 q 247 278 264 262 q 221 317 231 295 q 211 364 211 339 l 576 364 l 576 486 l 211 486 q 221 533 211 511 q 247 572 231 555 q 286 597 264 588 q 334 607 309 607 l 697 607 l 697 850 l 334 850 q 161 779 231 850 q 90 607 90 708 l 90 243 q 161 72 90 143 q 334 0 231 0 l 697 0 z "},"f":{"ha":636,"x_min":61,"x_max":606,"o":"m 334 761 q 297 754 314 761 q 267 734 279 747 q 247 705 254 722 q 240 668 240 688 l 240 576 l 454 576 q 475 568 467 576 q 484 547 484 559 l 484 425 q 475 405 484 414 q 454 396 467 396 l 240 396 l 240 0 q 232 -20 240 -12 q 211 -29 224 -29 l 90 -29 q 70 -20 78 -29 q 61 0 61 -12 l 61 790 q 80 895 61 848 q 140 983 100 943 q 334 1063 220 1063 l 576 1063 q 597 1054 588 1063 q 606 1034 606 1045 l 606 790 q 597 769 606 778 q 576 761 588 761 l 334 761 m 576 790 l 576 1034 l 334 1034 q 160 962 232 1034 q 90 790 90 893 l 90 0 l 211 0 l 211 425 l 454 425 l 454 547 l 211 547 l 211 668 q 220 716 211 694 q 246 755 230 739 q 285 781 262 771 q 334 790 307 790 l 576 790 z "},"g":{"ha":787,"x_min":61,"x_max":726,"o":"m 547 486 q 540 522 547 505 q 520 551 532 539 q 490 571 507 564 q 454 578 473 578 l 334 578 q 297 571 314 578 q 268 551 280 564 q 248 522 255 539 q 240 486 240 505 l 240 364 q 248 329 240 345 q 268 299 255 312 q 297 279 280 287 q 334 272 314 272 l 454 272 q 491 279 474 272 q 520 299 508 286 q 540 328 533 311 q 547 364 547 345 l 547 486 m 726 -122 q 707 -227 726 -180 q 647 -315 688 -275 q 454 -395 568 -395 l 334 -395 q 313 -386 321 -395 q 304 -366 304 -377 l 304 -122 q 313 -101 304 -110 q 334 -93 321 -93 l 454 -93 q 489 -86 473 -93 q 518 -67 505 -79 q 538 -40 530 -56 q 547 -5 546 -24 q 503 -24 526 -18 q 454 -29 479 -29 l 334 -29 q 229 -9 276 -29 q 140 52 181 11 q 61 243 61 131 l 61 607 q 81 712 61 665 q 140 800 100 760 q 229 859 181 840 q 334 879 276 879 l 454 879 q 560 860 512 879 q 647 802 608 842 q 707 713 688 761 q 726 607 726 666 l 726 -122 m 697 -122 l 697 607 q 680 701 697 658 q 627 781 663 745 q 548 833 591 817 q 454 850 505 850 l 334 850 q 161 779 231 850 q 90 607 90 708 l 90 243 q 161 72 90 143 q 334 0 231 0 l 454 0 q 495 4 475 0 q 532 20 515 9 q 576 82 574 43 l 576 0 q 567 -48 576 -26 q 541 -87 557 -71 q 503 -113 525 -103 q 454 -122 480 -122 l 334 -122 l 334 -366 l 454 -366 q 627 -294 555 -366 q 680 -216 663 -259 q 697 -122 697 -174 m 576 364 q 567 316 576 338 q 541 278 557 294 q 503 252 525 262 q 454 243 480 243 l 334 243 q 286 252 309 243 q 247 278 264 262 q 221 317 231 295 q 211 364 211 339 l 211 486 q 221 533 211 511 q 247 572 231 555 q 286 597 264 588 q 334 607 309 607 l 454 607 q 502 597 479 607 q 540 572 524 588 q 567 533 557 555 q 576 486 576 511 l 576 364 z "},"h":{"ha":787,"x_min":61,"x_max":726,"o":"m 240 857 l 240 856 q 240 857 240 856 q 241 857 240 857 l 240 857 m 576 -29 q 555 -20 564 -29 q 547 0 547 -12 l 547 486 q 540 522 547 505 q 520 551 532 539 q 490 571 507 564 q 454 578 473 578 l 334 578 q 297 571 314 578 q 268 551 280 564 q 248 522 255 539 q 240 486 240 505 l 240 0 q 232 -20 240 -12 q 211 -29 224 -29 l 90 -29 q 70 -20 78 -29 q 61 0 61 -12 l 61 1034 q 70 1054 61 1045 q 90 1063 78 1063 l 211 1063 q 232 1054 224 1063 q 240 1034 240 1045 l 240 857 q 284 874 260 869 q 334 879 308 879 l 454 879 q 646 800 566 879 q 706 712 686 760 q 726 607 726 665 l 726 0 q 718 -20 726 -12 q 697 -29 710 -29 l 576 -29 m 697 0 l 697 607 q 627 779 697 707 q 454 850 554 850 l 334 850 q 293 845 313 850 q 256 831 273 841 q 211 770 211 807 l 211 1034 l 90 1034 l 90 0 l 211 0 l 211 486 q 221 533 211 511 q 247 572 231 555 q 286 597 264 588 q 334 607 309 607 l 454 607 q 502 597 479 607 q 540 572 524 588 q 567 533 557 555 q 576 486 576 511 l 576 0 l 697 0 z "},"i":{"ha":301,"x_min":61,"x_max":240,"o":"m 90 -29 q 70 -20 78 -29 q 61 0 61 -12 l 61 850 q 70 871 61 863 q 90 879 78 879 l 211 879 q 232 871 224 879 q 240 850 240 863 l 240 0 q 232 -20 240 -12 q 211 -29 224 -29 l 90 -29 m 211 0 l 211 850 l 90 850 l 90 0 l 211 0 z "},"j":{"ha":545,"x_min":61,"x_max":484,"o":"m 484 -122 q 464 -227 484 -180 q 404 -315 445 -275 q 211 -395 325 -395 l 90 -395 q 70 -386 78 -395 q 61 -366 61 -377 l 61 -122 q 70 -101 61 -110 q 90 -93 78 -93 l 211 -93 q 248 -86 231 -93 q 278 -66 265 -79 q 297 -37 290 -54 q 304 0 304 -20 l 304 578 l 90 578 q 70 587 78 578 q 61 607 61 595 l 61 850 q 70 871 61 863 q 90 879 78 879 l 454 879 q 475 871 467 879 q 484 850 484 863 l 484 -122 m 454 -122 l 454 850 l 90 850 l 90 607 l 334 607 l 334 0 q 324 -48 334 -26 q 298 -87 315 -71 q 260 -113 282 -103 q 211 -122 237 -122 l 90 -122 l 90 -366 l 211 -366 q 383 -294 313 -366 q 437 -216 420 -259 q 454 -122 454 -174 z "},"k":{"ha":787,"x_min":61,"x_max":726,"o":"m 576 -29 q 555 -20 564 -29 q 547 0 547 -12 l 547 182 q 540 219 547 201 q 520 249 533 236 q 491 268 508 261 q 454 275 474 275 l 240 275 l 240 0 q 232 -20 240 -12 q 211 -29 224 -29 l 90 -29 q 70 -20 78 -29 q 61 0 61 -12 l 61 1034 q 70 1054 61 1045 q 90 1063 78 1063 l 211 1063 q 232 1054 224 1063 q 240 1034 240 1045 l 240 576 l 454 576 q 491 584 474 576 q 520 603 508 591 q 540 632 533 615 q 547 668 547 648 l 547 850 q 555 871 547 863 q 576 879 564 879 l 697 879 q 718 871 710 879 q 726 850 726 863 l 726 644 q 698 520 726 578 q 618 425 669 463 q 698 329 669 387 q 726 207 726 272 l 726 0 q 718 -20 726 -12 q 697 -29 710 -29 l 576 -29 m 697 0 l 697 207 q 688 274 697 241 q 661 336 678 307 q 618 387 644 364 q 562 425 593 410 q 618 463 593 440 q 661 514 644 486 q 688 576 678 543 q 697 644 697 609 l 697 850 l 576 850 l 576 668 q 567 620 576 642 q 541 582 557 598 q 503 556 525 566 q 454 547 480 547 l 211 547 l 211 1034 l 90 1034 l 90 0 l 211 0 l 211 304 l 454 304 q 503 295 480 304 q 541 269 525 286 q 567 231 557 253 q 576 182 576 208 l 576 0 l 697 0 z "},"l":{"ha":393,"x_min":61,"x_max":363,"o":"m 334 -29 q 228 -10 276 -29 q 140 50 180 9 q 80 138 100 90 q 61 243 61 185 l 61 1034 q 70 1054 61 1045 q 90 1063 78 1063 l 211 1063 q 232 1054 224 1063 q 240 1034 240 1045 l 240 364 q 247 328 240 345 q 267 299 254 311 q 297 279 279 286 q 334 272 314 272 q 354 263 345 272 q 363 243 363 254 l 363 0 l 334 -29 m 334 0 l 334 243 q 285 252 307 243 q 246 278 262 262 q 220 316 230 294 q 211 364 211 338 l 211 1034 l 90 1034 l 90 243 q 160 71 90 140 q 334 0 233 0 z "},"m":{"ha":1274,"x_min":61,"x_max":1213,"o":"m 1063 -29 q 1042 -20 1050 -29 q 1034 0 1034 -12 l 1034 486 q 1026 522 1034 505 q 1006 551 1019 539 q 976 571 994 564 q 940 578 959 578 l 819 578 q 783 571 800 578 q 753 552 766 564 q 733 523 741 540 q 726 486 726 506 l 726 0 q 718 -20 726 -12 q 697 -29 710 -29 l 576 -29 q 555 -20 564 -29 q 547 0 547 -12 l 547 486 q 540 523 547 506 q 520 552 533 540 q 491 571 508 564 q 454 578 474 578 l 334 578 q 297 571 314 578 q 268 551 280 564 q 248 522 255 539 q 240 486 240 505 l 240 0 q 232 -20 240 -12 q 211 -29 224 -29 l 90 -29 q 70 -20 78 -29 q 61 0 61 -12 l 61 607 q 81 712 61 665 q 140 800 100 760 q 229 859 181 840 q 334 879 276 879 l 406 879 q 474 870 441 879 q 538 845 508 861 q 593 805 568 829 q 636 753 618 782 q 680 805 654 782 q 734 845 705 829 q 798 870 764 861 q 868 879 832 879 l 940 879 q 1132 800 1052 879 q 1193 712 1173 760 q 1213 607 1213 665 l 1213 0 q 1204 -20 1213 -12 q 1183 -29 1196 -29 l 1063 -29 m 1183 0 l 1183 607 q 1112 779 1183 708 q 940 850 1041 850 l 868 850 q 792 838 828 850 q 725 805 755 827 q 671 753 694 784 q 636 685 648 723 q 602 753 624 723 q 549 805 579 784 q 481 838 518 827 q 406 850 445 850 l 334 850 q 161 779 231 850 q 90 607 90 708 l 90 0 l 211 0 l 211 486 q 221 533 211 511 q 247 572 231 555 q 286 597 264 588 q 334 607 309 607 l 454 607 q 503 598 480 607 q 541 572 525 589 q 567 534 557 556 q 576 486 576 512 l 576 0 l 697 0 l 697 486 q 707 534 697 512 q 732 572 716 556 q 771 598 749 589 q 819 607 793 607 l 940 607 q 987 597 965 607 q 1026 572 1010 588 q 1053 533 1043 555 q 1063 486 1063 511 l 1063 0 l 1183 0 z "},"n":{"ha":787,"x_min":61,"x_max":726,"o":"m 576 -29 q 555 -20 564 -29 q 547 0 547 -12 l 547 486 q 540 523 547 506 q 520 552 533 540 q 491 571 508 564 q 454 578 474 578 l 334 578 q 297 571 314 578 q 268 551 280 564 q 248 522 255 539 q 240 486 240 505 l 240 0 q 232 -20 240 -12 q 211 -29 224 -29 l 90 -29 q 70 -20 78 -29 q 61 0 61 -12 l 61 607 q 80 712 61 665 q 140 800 100 760 q 334 879 220 879 l 454 879 q 560 860 512 879 q 647 802 608 842 q 707 713 688 761 q 726 607 726 666 l 726 0 q 718 -20 726 -12 q 697 -29 710 -29 l 576 -29 m 697 0 l 697 607 q 680 701 697 658 q 627 781 663 745 q 548 833 591 817 q 454 850 505 850 l 334 850 q 160 779 231 850 q 90 607 90 709 l 90 0 l 211 0 l 211 486 q 221 533 211 511 q 247 572 231 555 q 286 597 264 588 q 334 607 309 607 l 454 607 q 503 598 480 607 q 541 572 525 589 q 567 534 557 556 q 576 486 576 512 l 576 0 l 697 0 z "},"o":{"ha":787,"x_min":61,"x_max":726,"o":"m 547 486 q 540 522 547 505 q 520 551 532 539 q 490 571 507 564 q 454 578 473 578 l 334 578 q 297 571 314 578 q 268 551 280 564 q 248 522 255 539 q 240 486 240 505 l 240 364 q 248 329 240 345 q 268 299 255 312 q 297 279 280 287 q 334 272 314 272 l 454 272 q 491 279 474 272 q 520 299 508 286 q 540 328 533 311 q 547 364 547 345 l 547 486 m 726 243 q 707 138 726 185 q 647 50 688 90 q 560 -10 608 9 q 454 -29 512 -29 l 334 -29 q 228 -10 276 -29 q 140 50 180 9 q 80 138 100 90 q 61 243 61 186 l 61 607 q 80 712 61 665 q 140 800 100 760 q 334 879 220 879 l 454 879 q 646 800 566 879 q 706 712 686 760 q 726 607 726 665 l 726 243 m 697 243 l 697 607 q 627 779 697 707 q 454 850 554 850 l 334 850 q 160 779 231 850 q 90 607 90 709 l 90 243 q 107 150 90 193 q 160 71 124 106 q 334 0 233 0 l 454 0 q 627 71 555 0 q 680 149 663 106 q 697 243 697 192 m 576 364 q 567 316 576 338 q 541 278 557 294 q 503 252 525 262 q 454 243 480 243 l 334 243 q 286 252 309 243 q 247 278 264 262 q 221 317 231 295 q 211 364 211 339 l 211 486 q 221 533 211 511 q 247 572 231 555 q 286 597 264 588 q 334 607 309 607 l 454 607 q 502 597 479 607 q 540 572 524 588 q 567 533 557 555 q 576 486 576 511 l 576 364 z "},"p":{"ha":787,"x_min":61,"x_max":726,"o":"m 547 486 q 540 522 547 505 q 520 551 532 539 q 490 571 507 564 q 454 578 473 578 l 334 578 q 297 571 314 578 q 267 552 279 564 q 247 523 254 540 q 240 486 240 506 l 240 364 q 248 329 240 345 q 268 299 255 312 q 297 279 280 287 q 334 272 314 272 l 454 272 q 490 279 473 272 q 520 299 507 287 q 540 329 532 312 q 547 364 547 345 l 547 486 m 726 243 q 646 52 726 130 q 454 -29 567 -29 l 334 -29 q 284 -24 308 -29 q 240 -5 260 -18 l 240 -243 q 232 -263 240 -254 q 211 -272 224 -272 l 90 -272 q 70 -263 78 -272 q 61 -243 61 -254 l 61 607 q 80 713 61 666 q 140 802 100 761 q 228 860 180 842 q 334 879 276 879 l 454 879 q 646 800 566 879 q 706 712 686 760 q 726 607 726 665 l 726 243 m 697 243 l 697 607 q 627 779 697 707 q 454 850 554 850 l 334 850 q 239 833 282 850 q 160 781 197 817 q 107 701 124 745 q 90 607 90 658 l 90 -243 l 211 -243 l 211 82 q 256 20 213 43 q 293 4 273 9 q 334 0 313 0 l 454 0 q 627 72 554 0 q 697 243 697 144 m 576 364 q 567 317 576 339 q 540 278 557 295 q 502 252 524 262 q 454 243 479 243 l 334 243 q 286 252 309 243 q 247 278 264 262 q 221 317 231 295 q 211 364 211 339 l 211 486 q 220 534 211 512 q 246 572 230 556 q 285 598 262 589 q 334 607 307 607 l 454 607 q 502 597 479 607 q 540 572 524 588 q 567 533 557 555 q 576 486 576 511 l 576 364 z "},"q":{"ha":787,"x_min":61,"x_max":726,"o":"m 547 486 q 540 523 547 506 q 520 552 533 540 q 491 571 508 564 q 454 578 474 578 l 334 578 q 297 571 314 578 q 268 551 280 564 q 248 522 255 539 q 240 486 240 505 l 240 364 q 248 329 240 345 q 268 299 255 312 q 297 279 280 287 q 334 272 314 272 l 454 272 q 490 279 473 272 q 520 299 507 287 q 540 329 532 312 q 547 364 547 345 l 547 486 m 576 -272 q 555 -263 564 -272 q 547 -243 547 -254 l 547 -5 q 503 -24 526 -18 q 454 -29 479 -29 l 334 -29 q 229 -9 276 -29 q 140 52 181 11 q 61 243 61 131 l 61 607 q 81 712 61 665 q 140 800 100 760 q 229 859 181 840 q 334 879 276 879 l 454 879 q 560 860 512 879 q 647 802 608 842 q 707 713 688 761 q 726 607 726 666 l 726 -243 q 718 -263 726 -254 q 697 -272 710 -272 l 576 -272 m 697 -243 l 697 607 q 680 701 697 658 q 627 781 663 745 q 548 833 591 817 q 454 850 505 850 l 334 850 q 161 779 231 850 q 90 607 90 708 l 90 243 q 161 72 90 143 q 334 0 231 0 l 454 0 q 495 4 475 0 q 532 20 515 9 q 576 82 574 43 l 576 -243 l 697 -243 m 576 364 q 567 317 576 339 q 540 278 557 295 q 502 252 524 262 q 454 243 479 243 l 334 243 q 286 252 309 243 q 247 278 264 262 q 221 317 231 295 q 211 364 211 339 l 211 486 q 221 533 211 511 q 247 572 231 555 q 286 597 264 588 q 334 607 309 607 l 454 607 q 503 598 480 607 q 541 572 525 589 q 567 534 557 556 q 576 486 576 512 l 576 364 z "},"r":{"ha":636,"x_min":61,"x_max":606,"o":"m 334 578 q 297 571 314 578 q 268 551 280 564 q 248 522 255 539 q 240 486 240 505 l 240 0 q 232 -20 240 -12 q 211 -29 224 -29 l 90 -29 q 70 -20 78 -29 q 61 0 61 -12 l 61 850 q 70 871 61 863 q 90 879 78 879 l 211 879 q 230 873 222 879 q 239 857 237 867 l 240 857 q 284 874 260 869 q 334 879 308 879 l 576 879 q 597 871 588 879 q 606 850 606 863 l 606 607 q 597 587 606 595 q 576 578 588 578 l 334 578 m 576 607 l 576 850 l 334 850 q 293 845 313 850 q 256 831 273 841 q 211 770 213 807 l 211 850 l 90 850 l 90 0 l 211 0 l 211 486 q 221 533 211 511 q 247 572 231 555 q 286 597 264 588 q 334 607 309 607 l 576 607 z "},"s":{"ha":787,"x_min":61,"x_max":726,"o":"m 726 243 q 646 52 726 130 q 454 -29 567 -29 l 90 -29 q 70 -20 78 -29 q 61 0 61 -12 l 61 243 q 70 263 61 254 q 90 272 78 272 l 454 272 q 477 281 468 272 q 486 304 486 291 q 476 326 486 317 q 454 335 467 335 l 334 335 q 229 355 276 335 q 140 415 181 376 q 81 503 100 456 q 61 607 61 550 q 81 712 61 665 q 140 800 100 760 q 229 859 181 840 q 334 879 276 879 l 697 879 q 718 871 710 879 q 726 850 726 863 l 726 607 q 718 587 726 595 q 697 578 710 578 l 334 578 q 311 569 320 578 q 301 547 301 561 q 311 525 301 534 q 334 515 320 515 l 454 515 q 646 435 567 515 q 726 243 726 356 m 697 243 q 627 414 697 343 q 547 468 590 450 q 454 486 505 486 l 334 486 q 290 504 308 486 q 272 547 272 522 q 290 590 272 572 q 334 607 307 607 l 697 607 l 697 850 l 334 850 q 161 779 231 850 q 90 607 90 708 q 161 436 90 507 q 334 364 232 364 l 454 364 q 478 359 467 364 q 497 347 489 355 q 511 328 506 338 q 515 304 515 317 q 498 260 515 278 q 454 243 480 243 l 90 243 l 90 0 l 454 0 q 627 72 554 0 q 697 243 697 144 z "},"t":{"ha":636,"x_min":61,"x_max":606,"o":"m 334 -29 q 228 -10 276 -29 q 140 50 180 9 q 80 138 100 90 q 61 243 61 185 l 61 972 q 70 993 61 984 q 90 1002 78 1002 l 211 1002 q 232 993 224 1002 q 240 972 240 984 l 240 879 l 454 879 q 475 871 467 879 q 484 850 484 863 l 484 729 q 475 709 484 718 q 454 700 467 700 l 240 700 l 240 364 q 247 328 240 345 q 267 299 254 311 q 297 279 279 286 q 334 272 314 272 l 576 272 q 597 263 588 272 q 606 243 606 254 l 606 0 q 597 -20 606 -12 q 576 -29 588 -29 l 334 -29 m 576 0 l 576 243 l 334 243 q 285 252 307 243 q 246 278 262 262 q 220 316 230 294 q 211 364 211 338 l 211 729 l 454 729 l 454 850 l 211 850 l 211 972 l 90 972 l 90 243 q 160 71 90 140 q 334 0 233 0 l 576 0 z "},"u":{"ha":787,"x_min":61,"x_max":726,"o":"m 726 243 q 707 138 726 185 q 647 50 688 90 q 560 -10 608 9 q 454 -29 512 -29 l 334 -29 q 228 -10 276 -29 q 140 50 180 9 q 80 138 100 90 q 61 243 61 186 l 61 850 q 70 871 61 863 q 90 879 78 879 l 211 879 q 232 871 224 879 q 240 850 240 863 l 240 364 q 248 329 240 345 q 268 299 255 312 q 297 279 280 287 q 334 272 314 272 l 454 272 q 491 279 474 272 q 520 299 508 286 q 540 328 533 311 q 547 364 547 345 l 547 850 q 555 871 547 863 q 576 879 564 879 l 697 879 q 718 871 710 879 q 726 850 726 863 l 726 243 m 697 243 l 697 850 l 576 850 l 576 364 q 567 316 576 338 q 541 278 557 294 q 503 252 525 262 q 454 243 480 243 l 334 243 q 286 252 309 243 q 247 278 264 262 q 221 317 231 295 q 211 364 211 339 l 211 850 l 90 850 l 90 243 q 107 150 90 193 q 160 71 124 106 q 334 0 233 0 l 454 0 q 627 71 555 0 q 680 149 663 106 q 697 243 697 192 z "},"v":{"ha":787,"x_min":61,"x_max":726,"o":"m 726 243 q 707 138 726 185 q 647 50 688 90 q 560 -10 608 9 q 454 -29 512 -29 l 90 -29 q 70 -20 78 -29 q 61 0 61 -12 l 61 850 q 70 871 61 863 q 90 879 78 879 l 211 879 q 232 871 224 879 q 240 850 240 863 l 240 272 l 454 272 q 491 279 474 272 q 520 299 508 286 q 540 328 533 311 q 547 364 547 345 l 547 850 q 555 871 547 863 q 576 879 564 879 l 697 879 q 718 871 710 879 q 726 850 726 863 l 726 243 m 697 243 l 697 850 l 576 850 l 576 364 q 567 316 576 338 q 541 278 557 294 q 503 252 525 262 q 454 243 480 243 l 211 243 l 211 850 l 90 850 l 90 0 l 454 0 q 627 71 555 0 q 680 149 663 106 q 697 243 697 192 z "},"w":{"ha":1274,"x_min":61,"x_max":1213,"o":"m 1213 243 q 1132 52 1213 130 q 940 -29 1053 -29 l 868 -29 q 798 -21 832 -29 q 734 4 764 -12 q 680 44 705 20 q 636 97 654 67 q 593 44 618 67 q 538 4 568 20 q 474 -21 508 -12 q 406 -29 441 -29 l 334 -29 q 229 -9 276 -29 q 140 52 181 11 q 61 243 61 131 l 61 850 q 70 871 61 863 q 90 879 78 879 l 211 879 q 232 871 224 879 q 240 850 240 863 l 240 364 q 248 329 240 345 q 268 299 255 312 q 297 279 280 287 q 334 272 314 272 l 454 272 q 491 279 474 272 q 520 299 508 286 q 540 328 533 311 q 547 364 547 345 l 547 850 q 555 871 547 863 q 576 879 564 879 l 697 879 q 718 871 710 879 q 726 850 726 863 l 726 364 q 733 328 726 345 q 753 299 741 311 q 783 279 766 286 q 819 272 800 272 l 940 272 q 976 279 959 272 q 1006 299 994 287 q 1026 329 1019 312 q 1034 364 1034 345 l 1034 850 q 1042 871 1034 863 q 1063 879 1050 879 l 1183 879 q 1204 871 1196 879 q 1213 850 1213 863 l 1213 243 m 1183 243 l 1183 850 l 1063 850 l 1063 364 q 1053 317 1063 339 q 1026 278 1043 295 q 987 252 1010 262 q 940 243 965 243 l 819 243 q 771 252 793 243 q 732 278 749 262 q 707 316 716 294 q 697 364 697 338 l 697 850 l 576 850 l 576 364 q 567 316 576 338 q 541 278 557 294 q 503 252 525 262 q 454 243 480 243 l 334 243 q 286 252 309 243 q 247 278 264 262 q 221 317 231 295 q 211 364 211 339 l 211 850 l 90 850 l 90 243 q 161 72 90 143 q 334 0 231 0 l 406 0 q 481 12 445 0 q 549 44 518 23 q 602 97 579 66 q 636 165 624 127 q 671 97 648 127 q 725 44 694 66 q 792 12 755 23 q 868 0 828 0 l 940 0 q 1112 72 1040 0 q 1183 243 1183 143 z "},"x":{"ha":787,"x_min":61,"x_max":726,"o":"m 625 -29 q 541 -16 581 -29 q 465 22 501 -3 q 393 98 422 53 q 322 22 366 53 q 247 -16 287 -3 q 163 -29 207 -29 l 90 -29 q 70 -20 78 -29 q 61 0 61 -12 l 61 243 q 70 263 61 254 q 90 272 78 272 l 211 272 q 247 279 230 272 q 277 299 264 287 q 297 329 290 312 q 304 364 304 345 l 304 486 q 297 522 304 505 q 277 551 290 539 q 247 571 264 564 q 211 578 230 578 l 90 578 q 70 587 78 578 q 61 607 61 595 l 61 850 q 70 871 61 863 q 90 879 78 879 l 163 879 q 322 827 252 879 l 322 828 q 393 751 367 796 q 465 828 421 796 l 465 827 q 625 879 537 879 l 697 879 q 718 871 710 879 q 726 850 726 863 l 726 607 q 718 587 726 595 q 697 578 710 578 l 576 578 q 540 571 557 578 q 511 551 524 564 q 491 522 498 539 q 484 486 484 505 l 484 364 q 491 329 484 345 q 511 299 498 312 q 540 279 524 287 q 576 272 557 272 l 697 272 q 718 263 710 272 q 726 243 726 254 l 726 0 q 718 -20 726 -12 q 697 -29 710 -29 l 625 -29 m 697 0 l 697 243 l 576 243 q 529 252 551 243 q 491 278 507 262 q 464 317 474 295 q 454 364 454 339 l 454 486 q 464 533 454 511 q 491 572 474 555 q 529 597 507 588 q 576 607 551 607 l 697 607 l 697 850 l 625 850 q 550 838 585 850 q 482 803 515 827 q 428 750 450 780 q 393 684 406 721 q 359 750 382 721 q 306 803 337 780 q 163 850 242 850 l 90 850 l 90 607 l 211 607 q 258 597 236 607 q 297 572 281 588 q 324 533 314 555 q 334 486 334 511 l 334 364 q 324 317 334 339 q 297 278 314 295 q 258 252 281 262 q 211 243 236 243 l 90 243 l 90 0 l 163 0 q 306 46 240 0 q 359 100 337 70 q 393 168 382 130 q 428 100 406 130 q 482 46 450 70 q 625 0 547 0 l 697 0 z "},"y":{"ha":787,"x_min":61,"x_max":726,"o":"m 726 -122 q 707 -227 726 -180 q 647 -315 688 -275 q 454 -395 568 -395 l 334 -395 q 313 -386 321 -395 q 304 -366 304 -377 l 304 -122 q 313 -101 304 -110 q 334 -93 321 -93 l 454 -93 q 489 -86 473 -93 q 518 -67 505 -79 q 538 -40 530 -56 q 547 -5 546 -24 q 503 -24 526 -18 q 454 -29 479 -29 l 334 -29 q 229 -9 276 -29 q 140 52 181 11 q 61 243 61 131 l 61 850 q 70 871 61 863 q 90 879 78 879 l 211 879 q 232 871 224 879 q 240 850 240 863 l 240 364 q 248 329 240 345 q 268 299 255 312 q 297 279 280 287 q 334 272 314 272 l 454 272 q 491 279 474 272 q 520 299 508 286 q 540 328 533 311 q 547 364 547 345 l 547 850 q 555 871 547 863 q 576 879 564 879 l 697 879 q 718 871 710 879 q 726 850 726 863 l 726 -122 m 697 -122 l 697 850 l 576 850 l 576 364 q 567 316 576 338 q 541 278 557 294 q 503 252 525 262 q 454 243 480 243 l 334 243 q 286 252 309 243 q 247 278 264 262 q 221 317 231 295 q 211 364 211 339 l 211 850 l 90 850 l 90 243 q 161 72 90 143 q 334 0 231 0 l 454 0 q 495 4 475 0 q 532 20 515 9 q 576 82 574 43 l 576 0 q 567 -48 576 -26 q 541 -87 557 -71 q 503 -113 525 -103 q 454 -122 480 -122 l 334 -122 l 334 -366 l 454 -366 q 627 -294 555 -366 q 680 -216 663 -259 q 697 -122 697 -174 z "},"z":{"ha":787,"x_min":61,"x_max":726,"o":"m 90 -29 q 70 -20 78 -29 q 61 0 61 -12 l 61 243 q 64 254 61 246 q 71 265 67 262 l 404 578 l 90 578 q 70 587 78 578 q 61 607 61 595 l 61 850 q 70 871 61 863 q 90 879 78 879 l 697 879 q 718 871 710 879 q 726 850 726 863 l 726 607 q 723 596 726 604 q 717 586 720 588 l 383 272 l 697 272 q 718 263 710 272 q 726 243 726 254 l 726 0 q 718 -20 726 -12 q 697 -29 710 -29 l 90 -29 m 697 0 l 697 243 l 309 243 l 697 607 l 697 850 l 90 850 l 90 607 l 479 607 l 90 243 l 90 0 l 697 0 z "},"{":{"ha":606,"x_min":61,"x_max":484,"o":"m 454 -151 q 262 -71 343 -151 q 182 121 182 9 l 182 396 l 90 396 q 70 405 78 396 q 61 425 61 414 l 61 547 q 70 568 61 559 q 90 576 78 576 l 182 576 l 182 850 q 202 955 182 907 q 262 1043 222 1002 q 454 1122 342 1122 q 475 1114 467 1122 q 484 1093 484 1105 l 484 850 q 475 829 484 838 q 454 821 467 821 q 418 813 435 821 q 389 794 401 806 q 370 765 377 782 q 363 729 363 748 l 363 243 q 370 207 363 224 q 389 177 377 190 q 418 157 401 165 q 454 150 435 150 q 475 142 467 150 q 484 121 484 134 l 484 -122 l 454 -151 m 454 -122 l 454 121 q 407 131 429 121 q 369 157 385 140 q 343 196 353 174 q 334 243 334 218 l 334 729 q 343 776 334 754 q 369 814 353 798 q 407 840 385 831 q 454 850 429 850 l 454 1093 q 283 1022 353 1093 q 211 850 211 951 l 211 547 l 90 547 l 90 425 l 211 425 l 211 121 q 229 28 211 71 q 283 -50 248 -14 q 361 -104 319 -85 q 454 -122 404 -122 z "},"|":{"ha":301,"x_min":61,"x_max":240,"o":"m 90 -151 q 70 -142 78 -151 q 61 -122 61 -134 l 61 1093 q 70 1114 61 1105 q 90 1122 78 1122 l 211 1122 q 232 1114 224 1122 q 240 1093 240 1105 l 240 -122 q 232 -142 240 -134 q 211 -151 224 -151 l 90 -151 m 211 -122 l 211 1093 l 90 1093 l 90 -122 l 211 -122 z "},"}":{"ha":606,"x_min":121,"x_max":545,"o":"m 422 396 l 422 121 q 343 -71 422 9 q 255 -131 302 -111 q 150 -151 208 -151 q 130 -142 138 -151 q 121 -122 121 -134 l 121 121 q 130 142 121 134 q 150 150 138 150 q 186 157 169 150 q 216 177 203 165 q 236 207 229 190 q 243 243 243 224 l 243 729 q 236 765 243 748 q 216 794 229 782 q 186 813 203 806 q 150 821 169 821 q 130 829 138 821 q 121 850 121 838 l 121 1093 q 130 1114 121 1105 q 150 1122 138 1122 q 255 1103 208 1122 q 343 1043 302 1083 q 403 955 383 1002 q 422 850 422 907 l 422 576 l 515 576 q 536 568 527 576 q 545 547 545 559 l 545 425 q 536 405 545 414 q 515 396 527 396 l 422 396 m 515 425 l 515 547 l 393 547 l 393 850 q 322 1022 393 951 q 150 1093 252 1093 l 150 850 q 198 840 176 850 q 237 814 220 831 q 262 776 253 798 q 272 729 272 754 l 272 243 q 262 196 272 218 q 237 157 253 174 q 198 131 220 140 q 150 121 176 121 l 150 -122 q 244 -104 201 -122 q 322 -50 287 -85 q 393 121 393 21 l 393 425 l 515 425 z "},"~":{"ha":690,"x_min":61,"x_max":629,"o":"m 616 401 q 527 360 572 373 q 431 347 481 347 q 388 354 411 347 q 334 374 364 361 q 290 391 308 385 q 260 396 273 396 q 106 353 174 396 q 90 347 98 347 q 76 351 82 347 q 65 361 69 354 q 61 376 61 368 l 61 473 q 65 487 61 479 q 74 498 69 495 q 260 551 158 551 q 303 545 279 551 q 357 525 326 538 q 431 503 406 503 q 512 514 473 503 q 585 547 550 526 q 600 552 593 552 q 615 549 608 552 q 625 538 621 545 q 629 522 629 532 l 629 425 l 616 401 m 600 425 l 600 522 q 431 473 522 473 q 394 480 415 473 q 345 498 373 486 q 260 522 290 522 q 171 511 214 522 q 90 473 129 499 l 90 376 q 171 413 129 401 q 260 425 214 425 q 296 419 275 425 q 345 401 317 413 q 431 376 399 376 q 600 425 522 376 z "},"€":{"ha":787,"x_min":61,"x_max":726,"o":"m 334 -29 q 229 -9 276 -29 q 140 52 181 11 q 61 243 61 131 l 61 729 q 140 921 61 842 q 229 982 181 962 q 334 1002 276 1002 l 697 1002 q 718 993 710 1002 q 726 972 726 984 l 726 729 q 718 709 726 718 q 697 700 710 700 l 334 700 q 278 682 302 700 q 245 636 254 665 l 576 636 q 597 628 588 636 q 606 607 606 620 l 606 522 q 597 502 606 511 q 576 493 588 493 l 240 493 l 240 479 l 576 479 q 597 471 588 479 q 606 450 606 462 l 606 364 q 597 344 606 353 q 576 335 588 335 l 245 335 q 278 289 254 307 q 334 272 302 272 l 697 272 q 718 263 710 272 q 726 243 726 254 l 726 0 q 718 -20 726 -12 q 697 -29 710 -29 l 334 -29 m 697 0 l 697 243 l 334 243 q 286 252 309 243 q 247 278 264 262 q 221 317 231 295 q 211 364 211 339 l 576 364 l 576 450 l 211 450 l 211 522 l 576 522 l 576 607 l 211 607 q 221 654 211 632 q 247 693 231 677 q 286 720 264 710 q 334 729 309 729 l 697 729 l 697 972 l 334 972 q 161 900 233 972 q 90 729 90 829 l 90 243 q 161 72 90 143 q 334 0 231 0 l 697 0 z "},"‚":{"ha":350,"x_min":61,"x_max":289,"o":"m 139 -151 q 118 -142 126 -151 q 110 -122 110 -134 l 110 -74 q 118 -53 110 -61 q 139 -45 126 -45 l 182 -45 l 182 -29 l 90 -29 q 70 -20 78 -29 q 61 0 61 -12 l 61 170 q 70 190 61 182 q 90 199 78 199 l 260 199 q 281 190 273 199 q 289 170 289 182 l 289 -122 q 281 -142 289 -134 q 260 -151 273 -151 l 139 -151 m 260 -122 l 260 170 l 90 170 l 90 0 l 211 0 l 211 -74 l 139 -74 l 139 -122 l 260 -122 z "},"ƒ":{"ha":757,"x_min":-183,"x_max":728,"o":"m 705 787 q 696 768 704 776 q 676 761 688 761 l 433 761 q 364 735 391 761 q 332 669 337 710 q 328 641 330 664 q 322 576 326 617 l 533 576 q 555 567 546 576 q 562 545 564 557 l 553 422 q 543 404 551 412 q 524 396 535 396 l 307 396 l 272 -3 q 268 -53 270 -22 q 261 -125 265 -84 q 231 -231 254 -182 q 165 -317 208 -279 l 167 -317 q 76 -375 125 -355 q -32 -395 27 -395 l -153 -395 q -175 -385 -166 -395 q -182 -363 -183 -375 l -161 -119 q -153 -100 -161 -108 q -132 -93 -144 -93 l -11 -93 q 27 -85 9 -93 q 59 -65 45 -78 q 81 -35 73 -53 q 92 3 90 -18 l 161 791 q 190 897 167 849 q 257 985 213 944 q 454 1063 343 1063 l 697 1063 q 719 1053 710 1063 q 726 1031 728 1043 l 705 787 m 697 1034 l 454 1034 q 277 962 351 1034 q 191 790 201 893 l 121 0 q 107 -48 119 -26 q 79 -87 96 -71 q 38 -113 61 -103 q -11 -122 15 -122 l -132 -122 l -153 -366 l -32 -366 q 146 -296 72 -366 q 205 -217 184 -260 q 232 -122 226 -174 q 238 -50 236 -80 q 243 0 241 -20 l 281 425 l 524 425 l 533 547 l 290 547 q 297 635 294 605 q 301 668 300 665 q 317 718 305 695 q 345 756 328 740 q 385 781 362 772 q 433 790 407 790 l 676 790 l 697 1034 z "},"„":{"ha":616,"x_min":61,"x_max":557,"o":"m 139 -151 q 118 -142 126 -151 q 110 -122 110 -134 l 110 -74 q 118 -53 110 -61 q 139 -45 126 -45 l 182 -45 l 182 -29 l 90 -29 q 70 -20 78 -29 q 61 0 61 -12 l 61 170 q 70 190 61 182 q 90 199 78 199 l 260 199 q 281 190 273 199 q 289 170 289 182 l 289 -122 q 281 -142 289 -134 q 260 -151 273 -151 l 139 -151 m 406 -151 q 385 -142 394 -151 q 376 -122 376 -134 l 376 -74 q 385 -53 376 -61 q 406 -45 394 -45 l 450 -45 l 450 -29 l 357 -29 q 336 -20 345 -29 q 328 0 328 -12 l 328 170 q 336 190 328 182 q 357 199 345 199 l 528 199 q 548 190 539 199 q 557 170 557 182 l 557 -122 q 548 -142 557 -134 q 528 -151 539 -151 l 406 -151 m 528 -122 l 528 170 l 357 170 l 357 0 l 479 0 l 479 -74 l 406 -74 l 406 -122 l 528 -122 m 260 -122 l 260 170 l 90 170 l 90 0 l 211 0 l 211 -74 l 139 -74 l 139 -122 l 260 -122 z "},"…":{"ha":933,"x_min":61,"x_max":872,"o":"m 382 -29 q 361 -20 370 -29 q 353 0 353 -12 l 353 170 q 361 190 353 182 q 382 199 370 199 l 551 199 q 572 190 564 199 q 581 170 581 182 l 581 0 q 572 -20 581 -12 q 551 -29 564 -29 l 382 -29 m 90 -29 q 70 -20 78 -29 q 61 0 61 -12 l 61 170 q 70 190 61 182 q 90 199 78 199 l 260 199 q 281 190 273 199 q 289 170 289 182 l 289 0 q 281 -20 289 -12 q 260 -29 273 -29 l 90 -29 m 673 -29 q 653 -20 661 -29 q 644 0 644 -12 l 644 170 q 653 190 644 182 q 673 199 661 199 l 843 199 q 864 190 856 199 q 872 170 872 182 l 872 0 q 864 -20 872 -12 q 843 -29 856 -29 l 673 -29 m 843 0 l 843 170 l 673 170 l 673 0 l 843 0 m 551 0 l 551 170 l 382 170 l 382 0 l 551 0 m 260 0 l 260 170 l 90 170 l 90 0 l 260 0 z "},"†":{"ha":665,"x_min":61,"x_max":606,"o":"m 422 578 l 422 -243 q 414 -263 422 -254 q 393 -272 406 -272 l 272 -272 q 252 -263 260 -272 q 243 -243 243 -254 l 243 578 l 90 578 q 70 587 78 578 q 61 607 61 595 l 61 729 q 70 749 61 741 q 90 758 78 758 l 243 758 l 243 972 q 252 993 243 984 q 272 1002 260 1002 l 393 1002 q 414 993 406 1002 q 422 972 422 984 l 422 758 l 576 758 q 597 749 588 758 q 606 729 606 741 l 606 607 q 597 587 606 595 q 576 578 588 578 l 422 578 m 576 607 l 576 729 l 393 729 l 393 972 l 272 972 l 272 729 l 90 729 l 90 607 l 272 607 l 272 -243 l 393 -243 l 393 607 l 576 607 z "},"‡":{"ha":665,"x_min":61,"x_max":606,"o":"m 422 214 l 422 -243 q 414 -263 422 -254 q 393 -272 406 -272 l 272 -272 q 252 -263 260 -272 q 243 -243 243 -254 l 243 214 l 90 214 q 70 222 78 214 q 61 243 61 231 l 61 364 q 70 385 61 376 q 90 393 78 393 l 243 393 l 243 578 l 90 578 q 70 587 78 578 q 61 607 61 595 l 61 729 q 70 749 61 741 q 90 758 78 758 l 243 758 l 243 972 q 252 993 243 984 q 272 1002 260 1002 l 393 1002 q 414 993 406 1002 q 422 972 422 984 l 422 758 l 576 758 q 597 749 588 758 q 606 729 606 741 l 606 607 q 597 587 606 595 q 576 578 588 578 l 422 578 l 422 393 l 576 393 q 597 385 588 393 q 606 364 606 376 l 606 243 q 597 222 606 231 q 576 214 588 214 l 422 214 m 576 243 l 576 364 l 393 364 l 393 607 l 576 607 l 576 729 l 393 729 l 393 972 l 272 972 l 272 729 l 90 729 l 90 607 l 272 607 l 272 364 l 90 364 l 90 243 l 272 243 l 272 -243 l 393 -243 l 393 243 l 576 243 z "},"ˆ":{"ha":471,"x_min":56,"x_max":412,"o":"m 309 772 q 295 777 303 772 q 285 785 287 781 l 236 852 l 187 785 q 176 777 184 781 q 163 772 168 772 l 90 772 q 63 787 71 772 q 64 817 56 801 l 161 986 q 173 997 165 992 q 187 1002 181 1002 l 285 1002 q 299 997 291 1002 q 310 986 307 992 l 407 817 q 412 801 412 809 q 408 787 412 793 q 397 777 404 781 q 382 772 391 772 l 309 772 m 382 802 l 285 972 l 187 972 l 90 802 l 163 802 l 236 904 l 309 802 l 382 802 z "},"‰":{"ha":1724,"x_min":61,"x_max":1662,"o":"m 1512 364 q 1508 389 1512 377 q 1494 409 1503 400 q 1475 422 1486 417 q 1451 427 1463 427 l 1360 427 q 1336 422 1348 427 q 1316 409 1324 417 q 1302 389 1308 400 q 1297 364 1297 377 l 1297 273 q 1302 248 1297 260 q 1315 229 1307 237 q 1335 216 1324 220 q 1360 211 1347 211 l 1451 211 q 1475 216 1463 211 q 1494 229 1486 220 q 1508 249 1503 237 q 1512 273 1512 260 l 1512 364 m 425 699 q 420 723 425 711 q 407 743 416 734 q 388 756 399 751 q 364 761 376 761 l 272 761 q 248 756 259 761 q 228 743 236 751 q 214 723 219 734 q 210 699 210 711 l 210 607 q 214 584 210 595 q 228 564 219 572 q 248 551 236 555 q 272 546 259 546 l 364 546 q 408 564 390 546 q 425 607 425 581 l 425 699 m 1149 364 q 1144 389 1149 377 q 1131 409 1139 400 q 1111 422 1122 417 q 1086 427 1099 427 l 996 427 q 971 422 983 427 q 951 409 960 417 q 938 389 943 400 q 933 364 933 377 l 933 273 q 938 249 933 260 q 951 229 943 237 q 971 216 960 220 q 996 211 983 211 l 1086 211 q 1131 229 1114 211 q 1149 273 1149 246 l 1149 364 m 618 -29 q 597 -20 606 -29 q 589 0 589 -12 l 589 972 q 597 993 589 984 q 618 1002 606 1002 l 741 1002 q 761 993 752 1002 q 770 972 770 984 l 770 0 q 761 -20 770 -12 q 741 -29 752 -29 l 618 -29 m 575 517 q 513 366 575 428 q 364 306 451 306 l 272 306 q 191 320 228 306 q 122 367 154 335 q 61 517 61 430 l 61 790 q 122 939 61 878 q 272 1002 185 1002 l 364 1002 q 445 986 408 1002 q 513 939 481 970 q 575 790 575 878 l 575 517 m 1662 182 q 1600 33 1662 94 q 1451 -29 1539 -29 l 1409 -29 q 1304 -5 1354 -29 q 1223 62 1255 20 q 1142 -5 1191 20 q 1038 -29 1093 -29 l 996 -29 q 846 33 909 -29 q 783 182 783 94 l 783 456 q 846 606 783 542 q 915 651 878 636 q 996 667 951 667 l 1038 667 q 1092 660 1065 667 q 1142 642 1118 654 q 1186 612 1166 629 q 1223 574 1207 595 q 1304 642 1255 616 q 1409 667 1354 667 l 1451 667 q 1600 606 1539 667 q 1662 456 1662 543 l 1662 182 m 1633 182 l 1633 456 q 1579 585 1633 531 q 1451 637 1525 637 l 1409 637 q 1349 628 1378 637 q 1295 602 1319 619 q 1252 562 1270 585 q 1223 510 1233 538 q 1195 562 1214 538 q 1152 602 1177 585 q 1098 628 1127 619 q 1038 637 1068 637 l 996 637 q 867 585 920 637 q 812 456 812 530 l 812 182 q 867 53 812 107 q 996 0 920 0 l 1038 0 q 1098 9 1068 0 q 1152 35 1127 18 q 1195 76 1177 52 q 1223 127 1214 99 q 1252 76 1233 99 q 1295 35 1270 52 q 1349 9 1319 18 q 1409 0 1378 0 l 1451 0 q 1579 53 1525 0 q 1633 182 1633 106 m 741 0 l 741 972 l 618 972 l 618 0 l 741 0 m 546 517 l 546 790 q 492 918 546 866 q 433 959 466 945 q 364 972 401 972 l 272 972 q 143 918 197 972 q 90 790 90 865 l 90 517 q 143 387 90 441 q 272 335 197 335 l 364 335 q 434 348 401 335 q 492 386 466 360 q 532 446 519 414 q 546 517 546 478 m 1541 273 q 1534 238 1541 255 q 1515 209 1527 222 q 1487 189 1503 197 q 1451 182 1470 182 l 1360 182 q 1323 189 1340 182 q 1294 208 1306 196 q 1275 237 1282 220 q 1268 273 1268 254 l 1268 364 q 1275 399 1268 382 q 1295 428 1282 416 q 1324 448 1308 441 q 1360 456 1341 456 l 1451 456 q 1487 448 1470 456 q 1515 428 1503 441 q 1534 399 1527 416 q 1541 364 1541 382 l 1541 273 m 1178 273 q 1171 237 1178 254 q 1152 208 1164 220 q 1123 189 1139 196 q 1086 182 1106 182 l 996 182 q 961 189 977 182 q 931 209 944 197 q 911 238 919 222 q 904 273 904 255 l 904 364 q 911 399 904 382 q 931 428 919 416 q 961 448 944 441 q 996 456 977 456 l 1086 456 q 1121 448 1105 456 q 1151 428 1138 441 q 1171 399 1163 416 q 1178 364 1178 382 l 1178 273 m 454 607 q 448 571 454 587 q 429 543 441 555 q 400 524 416 530 q 364 517 383 517 l 272 517 q 237 524 254 517 q 208 544 220 531 q 188 572 195 556 q 180 607 180 589 l 180 699 q 188 734 180 718 q 208 763 195 751 q 237 783 220 776 q 272 790 254 790 l 364 790 q 399 783 382 790 q 427 763 415 776 q 447 734 439 751 q 454 699 454 718 l 454 607 z "},"Š":{"ha":787,"x_min":61,"x_max":726,"o":"m 468 1031 q 457 1020 465 1025 q 441 1015 449 1015 l 345 1015 q 331 1020 338 1015 q 319 1031 323 1025 l 222 1200 q 218 1215 218 1208 q 221 1230 218 1223 q 232 1240 225 1236 q 248 1244 239 1244 l 321 1244 q 334 1241 326 1244 q 345 1232 342 1238 l 393 1164 l 441 1232 q 453 1241 445 1238 q 467 1244 461 1244 l 539 1244 q 555 1240 548 1244 q 566 1230 562 1236 q 570 1216 570 1223 q 566 1200 570 1208 l 468 1031 m 726 243 q 646 52 726 130 q 454 -29 567 -29 l 90 -29 q 70 -20 78 -29 q 61 0 61 -12 l 61 243 q 70 263 61 254 q 90 272 78 272 l 424 272 q 448 277 437 272 q 468 290 460 281 q 481 310 477 299 q 486 335 486 321 q 481 358 486 347 q 468 378 477 370 q 448 391 460 387 q 424 396 437 396 l 334 396 q 229 416 276 396 q 140 476 181 435 q 61 668 61 555 l 61 729 q 140 921 61 842 q 229 982 181 962 q 334 1002 276 1002 l 697 1002 q 718 993 710 1002 q 726 972 726 984 l 726 729 q 718 709 726 718 q 697 700 710 700 l 364 700 q 339 695 351 700 q 319 682 328 690 q 306 662 311 673 q 301 637 301 650 q 306 614 301 625 q 319 594 311 603 q 339 581 328 586 q 364 576 351 576 l 454 576 q 646 496 565 576 q 726 304 726 415 l 726 243 m 539 1215 l 467 1215 l 393 1112 l 321 1215 l 248 1215 l 345 1044 l 441 1044 l 539 1215 m 697 243 l 697 304 q 627 475 697 404 q 547 529 590 511 q 454 547 505 547 l 364 547 q 329 554 345 547 q 299 574 312 562 q 279 602 287 586 q 272 637 272 618 q 279 673 272 656 q 299 702 287 690 q 329 722 312 715 q 364 729 345 729 l 697 729 l 697 972 l 334 972 q 161 900 233 972 q 90 729 90 829 l 90 668 q 161 497 90 568 q 240 444 197 462 q 334 425 283 425 l 424 425 q 459 418 442 425 q 488 398 475 410 q 508 370 500 386 q 515 335 515 353 q 508 299 515 316 q 488 270 500 283 q 459 250 475 258 q 424 243 442 243 l 90 243 l 90 0 l 454 0 q 627 72 554 0 q 697 243 697 144 z "},"‹":{"ha":539,"x_min":61,"x_max":479,"o":"m 419 224 q 401 211 413 213 q 379 215 390 209 l 74 412 q 65 424 69 416 q 61 437 61 432 l 61 534 q 65 548 61 540 q 74 558 69 556 l 379 757 q 401 761 390 763 q 419 749 413 759 l 472 667 q 477 646 479 657 q 464 627 475 634 l 248 486 l 464 345 q 477 327 475 338 q 472 306 479 315 l 419 224 m 449 321 l 193 486 l 449 652 l 395 733 l 90 534 l 90 437 l 395 239 l 449 321 z "},"Œ":{"ha":1092,"x_min":61,"x_max":1031,"o":"m 547 607 q 540 643 547 626 q 520 673 532 660 q 490 693 507 686 q 454 700 473 700 l 334 700 q 297 693 314 700 q 268 673 280 686 q 248 643 255 660 q 240 607 240 626 l 240 364 q 248 329 240 345 q 268 299 255 312 q 297 279 280 287 q 334 272 314 272 l 454 272 q 491 279 474 272 q 520 299 508 286 q 540 328 533 311 q 547 364 547 345 l 547 607 m 868 -29 q 735 5 794 -29 q 639 102 675 40 q 542 5 603 40 q 406 -29 481 -29 l 334 -29 q 228 -10 276 -29 q 140 50 180 9 q 80 138 100 90 q 61 243 61 186 l 61 729 q 80 833 61 786 q 140 921 100 881 q 334 1002 219 1002 l 406 1002 q 480 992 446 1002 q 547 962 515 982 l 547 972 q 555 993 547 984 q 576 1002 564 1002 l 1002 1002 q 1022 993 1013 1002 q 1031 972 1031 984 l 1031 729 q 1022 709 1031 718 q 1002 700 1013 700 l 726 700 l 726 576 l 879 576 q 900 568 892 576 q 908 547 908 559 l 908 425 q 900 405 908 414 q 879 396 892 396 l 726 396 l 726 364 q 733 328 726 345 q 753 299 741 311 q 783 279 766 286 q 819 272 800 272 l 1002 272 q 1022 263 1013 272 q 1031 243 1031 254 l 1031 0 q 1022 -20 1031 -12 q 1002 -29 1013 -29 l 868 -29 m 1002 0 l 1002 243 l 819 243 q 771 252 793 243 q 732 278 749 262 q 707 316 716 294 q 697 364 697 338 l 697 425 l 879 425 l 879 547 l 697 547 l 697 729 l 1002 729 l 1002 972 l 576 972 l 576 903 q 406 972 505 972 l 334 972 q 240 954 283 972 q 160 900 197 936 q 90 729 90 830 l 90 243 q 107 150 90 193 q 160 71 124 106 q 334 0 233 0 l 406 0 q 485 12 447 0 q 553 47 522 24 q 606 102 583 70 q 639 174 628 134 q 674 102 652 134 q 726 47 696 70 q 791 12 755 24 q 868 0 827 0 l 1002 0 m 576 364 q 567 316 576 338 q 541 278 557 294 q 503 252 525 262 q 454 243 480 243 l 334 243 q 286 252 309 243 q 247 278 264 262 q 221 317 231 295 q 211 364 211 339 l 211 607 q 221 654 211 632 q 247 693 231 677 q 286 720 264 710 q 334 729 309 729 l 454 729 q 502 720 479 729 q 540 693 524 710 q 567 654 557 677 q 576 607 576 632 l 576 364 z "},"Ž":{"ha":787,"x_min":61,"x_max":726,"o":"m 468 1031 q 457 1020 465 1025 q 441 1015 449 1015 l 345 1015 q 331 1020 338 1015 q 319 1031 323 1025 l 222 1200 q 218 1215 218 1208 q 221 1230 218 1223 q 232 1240 225 1236 q 248 1244 239 1244 l 321 1244 q 334 1241 326 1244 q 345 1232 342 1238 l 393 1164 l 441 1232 q 453 1241 445 1238 q 467 1244 461 1244 l 539 1244 q 555 1240 548 1244 q 566 1230 562 1236 q 570 1216 570 1223 q 566 1200 570 1208 l 468 1031 m 90 -29 q 70 -20 78 -29 q 61 0 61 -12 l 61 254 l 452 700 l 90 700 q 70 709 78 700 q 61 729 61 718 l 61 972 q 70 993 61 984 q 90 1002 78 1002 l 697 1002 q 718 993 710 1002 q 726 972 726 984 l 726 718 l 336 272 l 697 272 q 718 263 710 272 q 726 243 726 254 l 726 0 q 718 -20 726 -12 q 697 -29 710 -29 l 90 -29 m 539 1215 l 467 1215 l 393 1112 l 321 1215 l 248 1215 l 345 1044 l 441 1044 l 539 1215 m 697 0 l 697 243 l 272 243 l 697 729 l 697 972 l 90 972 l 90 729 l 515 729 l 90 243 l 90 0 l 697 0 z "},"‘":{"ha":350,"x_min":61,"x_max":289,"o":"m 90 713 q 70 721 78 713 q 61 742 61 729 l 61 1034 q 70 1054 61 1045 q 90 1063 78 1063 l 211 1063 q 232 1054 224 1063 q 240 1034 240 1045 l 240 985 q 232 964 240 972 q 211 956 224 956 l 168 956 l 168 940 l 260 940 q 281 932 273 940 q 289 911 289 924 l 289 742 q 281 721 289 729 q 260 713 273 713 l 90 713 m 260 742 l 260 911 l 139 911 l 139 985 l 211 985 l 211 1034 l 90 1034 l 90 742 l 260 742 z "},"’":{"ha":350,"x_min":61,"x_max":289,"o":"m 139 713 q 118 721 126 713 q 110 742 110 729 l 110 790 q 118 810 110 802 q 139 819 126 819 l 182 819 l 182 833 l 90 833 q 70 842 78 833 q 61 863 61 851 l 61 1034 q 70 1054 61 1045 q 90 1063 78 1063 l 260 1063 q 281 1054 273 1063 q 289 1034 289 1045 l 289 742 q 281 721 289 729 q 260 713 273 713 l 139 713 m 260 742 l 260 1034 l 90 1034 l 90 863 l 211 863 l 211 790 l 139 790 l 139 742 l 260 742 z "},"“":{"ha":616,"x_min":61,"x_max":557,"o":"m 90 713 q 70 721 78 713 q 61 742 61 729 l 61 1034 q 70 1054 61 1045 q 90 1063 78 1063 l 211 1063 q 232 1054 224 1063 q 240 1034 240 1045 l 240 985 q 232 964 240 972 q 211 956 224 956 l 168 956 l 168 940 l 260 940 q 281 932 273 940 q 289 911 289 924 l 289 742 q 281 721 289 729 q 260 713 273 713 l 90 713 m 357 713 q 336 721 345 713 q 328 742 328 729 l 328 1034 q 336 1054 328 1045 q 357 1063 345 1063 l 479 1063 q 500 1054 491 1063 q 509 1034 509 1045 l 509 985 q 500 964 509 972 q 479 956 491 956 l 435 956 l 435 940 l 528 940 q 548 932 539 940 q 557 911 557 924 l 557 742 q 548 721 557 729 q 528 713 539 713 l 357 713 m 528 742 l 528 911 l 406 911 l 406 985 l 479 985 l 479 1034 l 357 1034 l 357 742 l 528 742 m 260 742 l 260 911 l 139 911 l 139 985 l 211 985 l 211 1034 l 90 1034 l 90 742 l 260 742 z "},"”":{"ha":616,"x_min":61,"x_max":557,"o":"m 139 713 q 118 721 126 713 q 110 742 110 729 l 110 790 q 118 810 110 802 q 139 819 126 819 l 182 819 l 182 833 l 90 833 q 70 842 78 833 q 61 863 61 851 l 61 1034 q 70 1054 61 1045 q 90 1063 78 1063 l 260 1063 q 281 1054 273 1063 q 289 1034 289 1045 l 289 742 q 281 721 289 729 q 260 713 273 713 l 139 713 m 406 713 q 385 721 394 713 q 376 742 376 729 l 376 790 q 385 810 376 802 q 406 819 394 819 l 450 819 l 450 833 l 357 833 q 336 842 345 833 q 328 863 328 851 l 328 1034 q 336 1054 328 1045 q 357 1063 345 1063 l 528 1063 q 548 1054 539 1063 q 557 1034 557 1045 l 557 742 q 548 721 557 729 q 528 713 539 713 l 406 713 m 528 742 l 528 1034 l 357 1034 l 357 863 l 479 863 l 479 790 l 406 790 l 406 742 l 528 742 m 260 742 l 260 1034 l 90 1034 l 90 863 l 211 863 l 211 790 l 139 790 l 139 742 l 260 742 z "},"•":{"ha":606,"x_min":92,"x_max":514,"o":"m 514 340 q 503 280 514 308 q 472 233 492 253 q 424 201 452 212 q 364 189 397 189 l 241 189 q 184 201 211 189 q 136 234 157 213 q 103 282 115 254 q 92 340 92 309 l 92 510 q 103 569 92 541 q 136 617 115 596 q 184 649 157 637 q 241 661 211 661 l 364 661 q 422 649 395 661 q 470 617 449 637 q 502 569 490 596 q 514 510 514 541 l 514 340 m 485 340 l 485 510 q 475 557 485 535 q 450 596 466 580 q 411 623 433 613 q 364 632 389 632 l 241 632 q 194 623 216 632 q 156 596 172 613 q 130 557 140 580 q 121 510 121 535 l 121 340 q 130 293 121 315 q 156 254 140 271 q 194 228 172 237 q 241 218 216 218 l 364 218 q 411 228 389 218 q 450 253 433 237 q 475 292 466 269 q 485 340 485 314 z "},"–":{"ha":545,"x_min":61,"x_max":484,"o":"m 90 347 q 70 356 78 347 q 61 376 61 365 l 61 473 q 70 494 61 486 q 90 503 78 503 l 454 503 q 475 494 467 503 q 484 473 484 486 l 484 376 q 475 356 484 365 q 454 347 467 347 l 90 347 m 454 376 l 454 473 l 90 473 l 90 376 l 454 376 z "},"—":{"ha":787,"x_min":61,"x_max":726,"o":"m 90 347 q 70 356 78 347 q 61 376 61 365 l 61 473 q 70 494 61 486 q 90 503 78 503 l 697 503 q 718 494 710 503 q 726 473 726 486 l 726 376 q 718 356 726 365 q 697 347 710 347 l 90 347 m 697 376 l 697 473 l 90 473 l 90 376 l 697 376 z "},"˜":{"ha":545,"x_min":61,"x_max":484,"o":"m 475 854 q 409 811 444 825 q 334 798 374 798 q 257 827 300 798 q 211 846 227 846 q 111 806 151 846 q 95 797 104 798 q 79 799 86 795 q 66 809 71 802 q 61 827 61 817 l 61 924 q 63 934 61 927 q 69 945 66 941 q 211 1002 127 1002 q 288 972 243 1002 q 334 953 317 953 q 433 993 391 953 q 450 1002 441 1000 q 466 1000 458 1003 q 478 990 473 997 q 484 972 484 983 l 484 875 l 475 854 m 454 875 l 454 972 q 399 935 429 947 q 334 924 369 924 q 272 947 308 924 q 239 966 254 960 q 211 972 224 972 q 145 961 176 972 q 90 924 114 949 l 90 827 q 145 863 114 852 q 211 875 176 875 q 272 850 236 875 q 334 827 309 827 q 399 838 369 827 q 454 875 429 850 z "},"™":{"ha":1419,"x_min":61,"x_max":1358,"o":"m 1239 335 q 1218 344 1226 335 q 1210 364 1210 353 l 1210 699 q 1205 723 1210 711 q 1191 743 1200 734 q 1171 756 1183 751 q 1147 761 1160 761 l 1055 761 q 1012 743 1029 761 q 994 699 994 724 l 994 364 q 985 344 994 353 q 965 335 977 335 l 873 335 q 853 344 862 335 q 844 364 844 353 l 844 699 q 840 723 844 711 q 827 743 835 734 q 807 756 819 751 q 782 761 795 761 l 692 761 q 667 756 679 761 q 647 743 656 751 q 634 723 639 734 q 629 699 629 711 l 629 364 q 621 344 629 353 q 600 335 612 335 l 510 335 q 489 344 497 335 q 481 364 481 353 l 481 761 l 393 761 l 393 364 q 385 344 393 353 q 364 335 376 335 l 272 335 q 252 344 260 335 q 243 364 243 353 l 243 761 l 90 761 q 70 769 78 761 q 61 790 61 778 l 61 972 q 70 993 61 984 q 90 1002 78 1002 l 546 1002 q 566 993 557 1002 q 575 972 575 984 l 575 966 q 692 1002 623 1002 l 746 1002 q 844 977 798 1002 q 920 911 890 953 q 994 977 949 953 q 1093 1002 1040 1002 l 1147 1002 q 1297 939 1234 1002 q 1358 790 1358 878 l 1358 364 q 1350 344 1358 353 q 1329 335 1342 335 l 1239 335 m 1329 364 l 1329 790 q 1276 918 1329 865 q 1147 972 1222 972 l 1093 972 q 1036 963 1063 972 q 986 938 1009 954 q 946 899 963 922 q 920 848 929 876 q 893 899 911 876 q 853 938 876 922 q 803 963 831 954 q 746 972 776 972 l 692 972 q 546 899 600 972 l 546 972 l 90 972 l 90 790 l 272 790 l 272 364 l 364 364 l 364 790 l 510 790 l 510 364 l 600 364 l 600 699 q 607 734 600 718 q 627 763 614 751 q 656 783 640 776 q 692 790 673 790 l 782 790 q 819 783 802 790 q 848 764 836 777 q 867 735 860 752 q 873 699 873 718 l 873 364 l 965 364 l 965 699 q 972 735 965 718 q 991 764 979 752 q 1020 783 1003 777 q 1055 790 1036 790 l 1147 790 q 1182 783 1166 790 q 1212 763 1199 776 q 1232 734 1224 751 q 1239 699 1239 718 l 1239 364 l 1329 364 z "},"š":{"ha":787,"x_min":61,"x_max":726,"o":"m 468 908 q 457 899 465 903 q 441 895 449 895 l 345 895 q 331 899 338 895 q 319 908 323 903 l 222 1079 q 218 1095 218 1087 q 221 1109 218 1103 q 232 1119 225 1115 q 248 1122 239 1122 l 321 1122 q 334 1119 326 1122 q 345 1111 342 1116 l 393 1043 l 441 1111 q 453 1119 445 1116 q 467 1122 461 1122 l 539 1122 q 566 1108 557 1122 q 566 1079 574 1095 l 468 908 m 726 243 q 646 52 726 130 q 454 -29 567 -29 l 90 -29 q 70 -20 78 -29 q 61 0 61 -12 l 61 243 q 70 263 61 254 q 90 272 78 272 l 454 272 q 477 281 468 272 q 486 304 486 291 q 476 326 486 317 q 454 335 467 335 l 334 335 q 229 355 276 335 q 140 415 181 376 q 81 503 100 456 q 61 607 61 550 q 81 712 61 665 q 140 800 100 760 q 229 859 181 840 q 334 879 276 879 l 697 879 q 718 871 710 879 q 726 850 726 863 l 726 607 q 718 587 726 595 q 697 578 710 578 l 334 578 q 311 569 320 578 q 301 547 301 561 q 311 525 301 534 q 334 515 320 515 l 454 515 q 646 435 567 515 q 726 243 726 356 m 539 1093 l 467 1093 l 393 991 l 321 1093 l 248 1093 l 345 924 l 441 924 l 539 1093 m 697 243 q 627 414 697 343 q 547 468 590 450 q 454 486 505 486 l 334 486 q 290 504 308 486 q 272 547 272 522 q 290 590 272 572 q 334 607 307 607 l 697 607 l 697 850 l 334 850 q 161 779 231 850 q 90 607 90 708 q 161 436 90 507 q 334 364 232 364 l 454 364 q 478 359 467 364 q 497 347 489 355 q 511 328 506 338 q 515 304 515 317 q 498 260 515 278 q 454 243 480 243 l 90 243 l 90 0 l 454 0 q 627 72 554 0 q 697 243 697 144 z "},"›":{"ha":539,"x_min":59,"x_max":478,"o":"m 160 215 q 137 211 149 209 q 119 224 125 213 l 65 306 q 62 327 59 315 q 74 345 64 338 l 292 486 l 74 627 q 62 646 64 634 q 65 667 59 657 l 119 749 q 137 761 125 759 q 160 757 149 763 l 464 558 q 474 548 469 556 q 478 534 478 540 l 478 437 q 474 424 478 432 q 464 412 469 416 l 160 215 m 449 437 l 449 534 l 143 733 l 90 652 l 345 486 l 90 321 l 143 239 l 449 437 z "},"œ":{"ha":1152,"x_min":61,"x_max":1092,"o":"m 547 486 q 540 522 547 505 q 520 551 532 539 q 490 571 507 564 q 454 578 473 578 l 334 578 q 297 571 314 578 q 268 551 280 564 q 248 522 255 539 q 240 486 240 505 l 240 364 q 248 329 240 345 q 268 299 255 312 q 297 279 280 287 q 334 272 314 272 l 454 272 q 491 279 474 272 q 520 299 508 286 q 540 328 533 311 q 547 364 547 345 l 547 486 m 868 -29 q 784 -16 824 -29 q 708 22 744 -3 q 669 57 686 38 q 636 97 651 75 q 539 5 600 39 q 406 -29 479 -29 l 334 -29 q 228 -10 276 -29 q 140 50 180 9 q 80 138 100 90 q 61 243 61 186 l 61 607 q 80 712 61 665 q 140 800 100 760 q 334 879 220 879 l 406 879 q 566 827 494 879 l 566 828 q 636 751 609 797 q 669 793 651 774 q 708 828 686 812 l 708 827 q 868 879 780 879 l 1063 879 q 1083 871 1074 879 q 1092 850 1092 863 l 1092 607 q 1083 587 1092 595 q 1063 578 1074 578 l 819 578 q 764 560 788 578 q 732 515 741 543 l 940 515 q 961 507 953 515 q 970 486 970 498 l 970 364 q 961 344 970 353 q 940 335 953 335 l 732 335 q 764 289 741 307 q 819 272 788 272 l 1063 272 q 1083 263 1074 272 q 1092 243 1092 254 l 1092 0 q 1083 -20 1092 -12 q 1063 -29 1074 -29 l 868 -29 m 1063 0 l 1063 243 l 819 243 q 772 252 794 243 q 733 278 750 262 q 707 317 717 295 q 697 364 697 339 l 940 364 l 940 486 l 697 486 q 707 533 697 511 q 733 572 717 555 q 772 597 750 588 q 819 607 794 607 l 1063 607 l 1063 850 l 868 850 q 725 803 789 850 q 671 750 694 780 q 636 684 649 721 q 602 750 625 721 q 549 803 580 780 q 406 850 485 850 l 334 850 q 160 779 231 850 q 90 607 90 709 l 90 243 q 107 150 90 193 q 160 71 124 106 q 334 0 233 0 l 406 0 q 482 12 446 0 q 549 45 519 24 q 602 98 579 67 q 636 167 624 129 q 671 99 649 129 q 725 46 694 69 q 793 12 758 23 q 868 0 828 0 l 1063 0 m 576 364 q 567 316 576 338 q 541 278 557 294 q 503 252 525 262 q 454 243 480 243 l 334 243 q 286 252 309 243 q 247 278 264 262 q 221 317 231 295 q 211 364 211 339 l 211 486 q 221 533 211 511 q 247 572 231 555 q 286 597 264 588 q 334 607 309 607 l 454 607 q 502 597 479 607 q 540 572 524 588 q 567 533 557 555 q 576 486 576 511 l 576 364 z "},"ž":{"ha":787,"x_min":61,"x_max":726,"o":"m 468 908 q 457 899 465 903 q 441 895 449 895 l 345 895 q 331 899 338 895 q 319 908 323 903 l 222 1079 q 218 1095 218 1087 q 221 1109 218 1103 q 232 1119 225 1115 q 248 1122 239 1122 l 321 1122 q 334 1119 326 1122 q 345 1111 342 1116 l 393 1043 l 441 1111 q 453 1119 445 1116 q 467 1122 461 1122 l 539 1122 q 566 1108 557 1122 q 566 1079 574 1095 l 468 908 m 90 -29 q 70 -20 78 -29 q 61 0 61 -12 l 61 243 q 64 254 61 246 q 71 265 67 262 l 404 578 l 90 578 q 70 587 78 578 q 61 607 61 595 l 61 850 q 70 871 61 863 q 90 879 78 879 l 697 879 q 718 871 710 879 q 726 850 726 863 l 726 607 q 723 596 726 604 q 717 586 720 588 l 383 272 l 697 272 q 718 263 710 272 q 726 243 726 254 l 726 0 q 718 -20 726 -12 q 697 -29 710 -29 l 90 -29 m 539 1093 l 467 1093 l 393 991 l 321 1093 l 248 1093 l 345 924 l 441 924 l 539 1093 m 697 0 l 697 243 l 309 243 l 697 607 l 697 850 l 90 850 l 90 607 l 479 607 l 90 243 l 90 0 l 697 0 z "},"Ÿ":{"ha":787,"x_min":61,"x_max":726,"o":"m 454 1015 q 434 1024 443 1015 q 425 1044 425 1033 l 425 1166 q 434 1187 425 1178 q 454 1196 443 1196 l 576 1196 q 597 1187 588 1196 q 606 1166 606 1178 l 606 1044 q 597 1024 606 1033 q 576 1015 588 1015 l 454 1015 m 211 1015 q 191 1024 199 1015 q 182 1044 182 1033 l 182 1166 q 191 1187 182 1178 q 211 1196 199 1196 l 334 1196 q 354 1187 345 1196 q 363 1166 363 1178 l 363 1044 q 354 1024 363 1033 q 334 1015 345 1015 l 211 1015 m 726 534 q 707 429 726 477 q 647 342 688 382 q 484 264 578 272 l 484 0 q 475 -20 484 -12 q 454 -29 467 -29 l 334 -29 q 313 -20 321 -29 q 304 0 304 -12 l 304 264 q 140 342 210 272 q 61 534 61 421 l 61 972 q 70 993 61 984 q 90 1002 78 1002 l 211 1002 q 232 993 224 1002 q 240 972 240 984 l 240 656 q 248 620 240 637 q 268 591 255 604 q 297 571 280 578 q 334 564 314 564 l 454 564 q 491 571 474 564 q 520 590 508 578 q 540 620 533 603 q 547 656 547 636 l 547 972 q 555 993 547 984 q 576 1002 564 1002 l 697 1002 q 718 993 710 1002 q 726 972 726 984 l 726 534 m 576 1044 l 576 1166 l 454 1166 l 454 1044 l 576 1044 m 334 1044 l 334 1166 l 211 1166 l 211 1044 l 334 1044 m 697 534 l 697 972 l 576 972 l 576 656 q 567 608 576 630 q 541 570 557 586 q 503 544 525 553 q 454 534 480 534 l 334 534 q 286 544 309 534 q 247 570 264 553 q 221 609 231 587 q 211 656 211 631 l 211 972 l 90 972 l 90 534 q 108 441 90 484 q 161 363 125 398 q 334 292 231 292 l 334 0 l 454 0 l 454 292 q 627 363 555 292 q 680 441 663 398 q 697 534 697 484 z "},"¡":{"ha":350,"x_min":60,"x_max":290,"o":"m 90 652 q 70 661 78 652 q 61 681 61 669 l 61 850 q 70 871 61 863 q 90 879 78 879 l 260 879 q 281 871 273 879 q 289 850 289 863 l 289 681 q 281 661 289 669 q 260 652 273 652 l 90 652 m 90 -151 q 68 -142 77 -151 q 61 -119 60 -132 l 110 561 q 119 580 111 572 q 139 587 127 587 l 211 587 q 231 580 222 587 q 240 561 239 572 l 289 -119 q 281 -142 290 -132 q 260 -151 273 -151 l 90 -151 m 260 681 l 260 850 l 90 850 l 90 681 l 260 681 m 260 -122 l 211 558 l 139 558 l 90 -122 l 260 -122 z "},"¢":{"ha":787,"x_min":61,"x_max":726,"o":"m 545 92 l 545 0 q 536 -20 545 -12 q 515 -29 527 -29 l 393 -29 q 373 -20 382 -29 q 364 0 364 -12 l 364 92 l 334 92 q 229 112 276 92 q 140 172 181 132 q 81 260 100 213 q 61 364 61 307 l 61 729 q 140 921 61 842 q 229 982 181 962 q 334 1002 276 1002 l 364 1002 l 364 1093 q 373 1114 364 1105 q 393 1122 382 1122 l 515 1122 q 536 1114 527 1122 q 545 1093 545 1105 l 545 1002 l 697 1002 q 718 993 710 1002 q 726 972 726 984 l 726 729 q 718 709 726 718 q 697 700 710 700 l 334 700 q 297 693 314 700 q 268 673 280 686 q 248 643 255 660 q 240 607 240 626 l 240 486 q 248 450 240 467 q 268 420 255 433 q 297 400 280 408 q 334 393 314 393 l 697 393 q 718 385 710 393 q 726 364 726 376 l 726 121 q 718 100 726 109 q 697 92 710 92 l 545 92 m 697 121 l 697 364 l 334 364 q 286 374 309 364 q 247 400 264 383 q 221 439 231 416 q 211 486 211 461 l 211 607 q 221 654 211 632 q 247 693 231 677 q 286 720 264 710 q 334 729 309 729 l 697 729 l 697 972 l 515 972 l 515 1093 l 393 1093 l 393 972 l 334 972 q 161 900 233 972 q 90 729 90 829 l 90 364 q 161 193 90 263 q 334 121 233 121 l 393 121 l 393 0 l 515 0 l 515 121 l 697 121 z "},"£":{"ha":787,"x_min":61,"x_max":726,"o":"m 90 -29 q 70 -20 78 -29 q 61 0 61 -12 l 61 790 q 80 895 61 848 q 140 983 100 943 q 334 1063 220 1063 l 576 1063 q 597 1054 588 1063 q 606 1034 606 1045 l 606 790 q 597 769 606 778 q 576 761 588 761 l 334 761 q 297 754 314 761 q 267 734 279 747 q 247 705 254 722 q 240 668 240 688 l 240 576 l 454 576 q 475 568 467 576 q 484 547 484 559 l 484 425 q 475 405 484 414 q 454 396 467 396 l 240 396 l 240 272 l 697 272 q 718 263 710 272 q 726 243 726 254 l 726 0 q 718 -20 726 -12 q 697 -29 710 -29 l 90 -29 m 697 0 l 697 243 l 211 243 l 211 425 l 454 425 l 454 547 l 211 547 l 211 668 q 220 716 211 694 q 246 755 230 739 q 285 781 262 771 q 334 790 307 790 l 576 790 l 576 1034 l 334 1034 q 160 962 232 1034 q 90 790 90 893 l 90 0 l 697 0 z "},"¤":{"ha":787,"x_min":61,"x_max":726,"o":"m 334 -29 q 229 -9 276 -29 q 140 52 181 11 q 61 243 61 131 l 61 729 q 140 921 61 842 q 229 982 181 962 q 334 1002 276 1002 l 697 1002 q 718 993 710 1002 q 726 972 726 984 l 726 729 q 718 709 726 718 q 697 700 710 700 l 334 700 q 278 682 302 700 q 245 636 254 665 l 576 636 q 597 628 588 636 q 606 607 606 620 l 606 522 q 597 502 606 511 q 576 493 588 493 l 240 493 l 240 479 l 576 479 q 597 471 588 479 q 606 450 606 462 l 606 364 q 597 344 606 353 q 576 335 588 335 l 245 335 q 278 289 254 307 q 334 272 302 272 l 697 272 q 718 263 710 272 q 726 243 726 254 l 726 0 q 718 -20 726 -12 q 697 -29 710 -29 l 334 -29 m 697 0 l 697 243 l 334 243 q 286 252 309 243 q 247 278 264 262 q 221 317 231 295 q 211 364 211 339 l 576 364 l 576 450 l 211 450 l 211 522 l 576 522 l 576 607 l 211 607 q 221 654 211 632 q 247 693 231 677 q 286 720 264 710 q 334 729 309 729 l 697 729 l 697 972 l 334 972 q 161 900 233 972 q 90 729 90 829 l 90 243 q 161 72 90 143 q 334 0 231 0 l 697 0 z "},"¥":{"ha":787,"x_min":61,"x_max":726,"o":"m 484 92 l 484 0 q 475 -20 484 -12 q 454 -29 467 -29 l 334 -29 q 313 -20 321 -29 q 304 0 304 -12 l 304 92 l 90 92 q 70 100 78 92 q 61 121 61 109 l 61 243 q 70 263 61 254 q 90 272 78 272 l 304 272 l 304 335 l 90 335 q 70 344 78 335 q 61 364 61 353 l 61 486 q 70 507 61 498 q 90 515 78 515 l 163 515 q 152 525 157 519 q 140 536 146 531 q 81 624 100 576 q 61 729 61 673 l 61 972 q 70 993 61 984 q 90 1002 78 1002 l 211 1002 q 232 993 224 1002 q 240 972 240 984 l 240 778 q 248 742 240 758 q 268 712 255 725 q 297 692 280 699 q 334 685 314 685 l 454 685 q 491 692 474 685 q 520 712 508 699 q 540 741 533 724 q 547 778 547 758 l 547 972 q 555 993 547 984 q 576 1002 564 1002 l 697 1002 q 718 993 710 1002 q 726 972 726 984 l 726 729 q 707 624 726 671 q 647 536 688 576 q 636 525 642 531 q 625 515 631 519 l 697 515 q 718 507 710 515 q 726 486 726 498 l 726 364 q 718 344 726 353 q 697 335 710 335 l 484 335 l 484 272 l 697 272 q 718 263 710 272 q 726 243 726 254 l 726 121 q 718 100 726 109 q 697 92 710 92 l 484 92 m 697 121 l 697 243 l 454 243 l 454 364 l 697 364 l 697 486 l 454 486 q 627 557 555 486 q 680 635 663 593 q 697 729 697 678 l 697 972 l 576 972 l 576 778 q 567 729 576 751 q 541 690 557 707 q 503 665 525 674 q 454 656 480 656 l 334 656 q 286 666 309 656 q 247 692 264 675 q 221 731 231 709 q 211 778 211 753 l 211 972 l 90 972 l 90 729 q 161 557 90 628 q 334 486 232 486 l 90 486 l 90 364 l 334 364 l 334 243 l 90 243 l 90 121 l 334 121 l 334 0 l 454 0 l 454 121 l 697 121 z "},"¦":{"ha":301,"x_min":61,"x_max":240,"o":"m 90 -151 q 70 -142 78 -151 q 61 -122 61 -134 l 61 401 q 70 422 61 413 q 90 431 78 431 l 211 431 q 232 422 224 431 q 240 401 240 413 l 240 -122 q 232 -142 240 -134 q 211 -151 224 -151 l 90 -151 m 90 542 q 70 551 78 542 q 61 571 61 559 l 61 1093 q 70 1114 61 1105 q 90 1122 78 1122 l 211 1122 q 232 1114 224 1122 q 240 1093 240 1105 l 240 571 q 232 551 240 559 q 211 542 224 542 l 90 542 m 211 571 l 211 1093 l 90 1093 l 90 571 l 211 571 m 211 -122 l 211 401 l 90 401 l 90 -122 l 211 -122 z "},"§":{"ha":787,"x_min":61,"x_max":726,"o":"m 486 364 q 479 400 486 383 q 459 430 471 417 q 429 450 446 442 q 393 457 412 457 q 358 450 374 457 q 329 430 341 442 q 309 400 316 417 q 301 364 301 383 q 309 329 301 345 q 329 299 316 312 q 358 279 341 287 q 393 272 374 272 q 429 279 412 272 q 459 299 446 287 q 479 329 471 312 q 486 364 486 345 m 726 0 q 646 -192 726 -113 q 454 -272 566 -272 l 90 -272 q 70 -263 78 -272 q 61 -243 61 -254 l 61 0 q 70 20 61 12 q 90 29 78 29 l 454 29 q 476 38 467 29 q 486 61 486 47 q 476 83 486 74 q 454 92 467 92 l 334 92 q 229 112 276 92 q 140 172 181 132 q 81 260 100 213 q 61 364 61 307 q 131 547 61 469 q 79 630 96 585 q 61 729 61 675 q 140 921 61 842 q 229 982 181 962 q 334 1002 276 1002 l 697 1002 q 718 993 710 1002 q 726 972 726 984 l 726 729 q 718 709 726 718 q 697 700 710 700 l 334 700 q 311 690 320 700 q 301 668 301 681 q 311 646 301 656 q 334 636 320 636 l 454 636 q 646 557 566 636 q 706 469 686 516 q 726 364 726 422 q 656 182 726 258 q 726 0 726 105 m 697 0 q 615 182 697 109 q 697 364 697 256 q 627 536 697 465 q 454 607 553 607 l 334 607 q 310 612 321 607 q 290 626 298 617 q 277 645 281 634 q 272 668 272 656 q 290 711 272 693 q 334 729 308 729 l 697 729 l 697 972 l 334 972 q 161 900 233 972 q 90 729 90 829 q 111 629 90 674 q 172 547 132 584 q 90 364 90 473 q 161 193 90 263 q 334 121 233 121 l 454 121 q 478 116 467 121 q 497 103 489 111 q 511 84 506 95 q 515 61 515 73 q 497 18 515 36 q 454 0 479 0 l 90 0 l 90 -243 l 454 -243 q 627 -171 555 -243 q 697 0 697 -99 m 515 364 q 506 317 515 339 q 480 278 496 295 q 441 252 463 262 q 393 243 418 243 q 346 252 368 243 q 308 278 324 262 q 281 317 291 295 q 272 364 272 339 q 281 412 272 389 q 308 451 291 434 q 346 477 324 467 q 393 486 368 486 q 441 477 418 486 q 480 451 463 467 q 506 412 496 434 q 515 364 515 389 z "},"¨":{"ha":545,"x_min":61,"x_max":484,"o":"m 90 821 q 70 829 78 821 q 61 850 61 838 l 61 972 q 70 993 61 984 q 90 1002 78 1002 l 211 1002 q 232 993 224 1002 q 240 972 240 984 l 240 850 q 232 829 240 838 q 211 821 224 821 l 90 821 m 334 821 q 313 829 321 821 q 304 850 304 838 l 304 972 q 313 993 304 984 q 334 1002 321 1002 l 454 1002 q 475 993 467 1002 q 484 972 484 984 l 484 850 q 475 829 484 838 q 454 821 467 821 l 334 821 m 454 850 l 454 972 l 334 972 l 334 850 l 454 850 m 211 850 l 211 972 l 90 972 l 90 850 l 211 850 z "},"©":{"ha":908,"x_min":61,"x_max":848,"o":"m 400 117 q 341 129 369 117 q 293 161 314 140 q 261 209 273 181 q 249 267 249 236 l 249 510 q 261 569 249 541 q 293 617 273 596 q 341 649 314 637 q 400 661 369 661 l 582 661 q 602 652 593 661 q 611 632 611 644 l 611 510 q 602 490 611 498 q 582 481 593 481 l 400 481 q 378 472 387 481 q 368 450 368 463 l 368 328 q 378 306 368 315 q 400 296 387 296 l 582 296 q 602 288 593 296 q 611 267 611 279 l 611 146 q 602 125 611 134 q 582 117 593 117 l 400 117 m 717 583 q 709 619 717 602 q 689 648 702 636 q 660 668 677 661 q 625 675 644 675 l 285 675 q 249 668 265 675 q 219 648 232 661 q 199 619 206 636 q 192 583 192 602 l 192 195 q 199 158 192 175 q 219 129 206 142 q 249 109 232 116 q 285 102 265 102 l 625 102 q 661 109 644 102 q 690 129 677 116 q 710 158 703 141 q 717 195 717 175 l 717 583 m 848 243 q 770 50 848 130 q 682 -10 729 9 q 576 -29 634 -29 l 334 -29 q 228 -10 276 -29 q 140 50 180 9 q 80 138 100 90 q 61 243 61 186 l 61 534 q 80 639 61 591 q 140 726 100 686 q 334 807 219 807 l 576 807 q 768 726 688 807 q 828 639 808 686 q 848 534 848 591 l 848 243 m 819 243 l 819 534 q 801 628 819 585 q 747 705 783 670 q 669 760 711 741 q 576 778 627 778 l 334 778 q 240 760 283 778 q 160 705 197 741 q 90 534 90 636 l 90 243 q 107 150 90 193 q 160 71 124 106 q 334 0 233 0 l 576 0 q 749 71 677 0 q 819 243 819 141 m 746 195 q 737 146 746 168 q 711 107 728 123 q 673 81 695 91 q 625 72 651 72 l 285 72 q 238 82 260 72 q 199 108 216 92 q 173 147 182 125 q 163 195 163 170 l 163 583 q 173 630 163 608 q 199 669 182 652 q 238 694 216 685 q 285 704 260 704 l 625 704 q 672 694 650 704 q 711 669 694 685 q 736 630 727 652 q 746 583 746 608 l 746 195 m 582 146 l 582 267 l 400 267 q 377 272 388 267 q 357 285 366 277 q 344 304 349 294 q 339 328 339 315 l 339 450 q 344 473 339 463 q 357 492 349 484 q 377 505 366 500 q 400 510 388 510 l 582 510 l 582 632 l 400 632 q 353 623 375 632 q 314 596 331 613 q 288 557 298 580 q 278 510 278 535 l 278 267 q 288 219 278 241 q 314 181 298 197 q 353 155 331 165 q 400 146 375 146 l 582 146 z "},"ª":{"ha":636,"x_min":61,"x_max":575,"o":"m 425 699 q 408 743 425 724 q 364 761 390 761 l 272 761 q 248 756 259 761 q 228 743 236 751 q 214 723 219 734 q 210 699 210 711 l 210 607 q 214 584 210 595 q 228 564 219 572 q 248 551 236 555 q 272 546 259 546 l 364 546 q 407 564 389 546 q 425 607 425 582 l 425 699 m 454 306 q 429 319 436 306 q 399 309 416 312 q 364 306 382 306 l 272 306 q 191 320 228 306 q 122 367 154 335 q 61 517 61 430 l 61 790 q 122 939 61 878 q 272 1002 185 1002 l 364 1002 q 445 986 408 1002 q 513 939 481 970 q 575 790 575 878 l 575 335 q 566 314 575 322 q 546 306 557 306 l 454 306 m 546 335 l 546 790 q 492 918 546 866 q 364 972 439 972 l 272 972 q 143 918 197 972 q 90 790 90 865 l 90 517 q 143 387 90 441 q 272 335 197 335 l 364 335 q 422 349 396 335 q 454 395 452 366 l 454 335 l 546 335 m 454 607 q 447 572 454 589 q 427 544 439 556 q 399 524 415 531 q 364 517 382 517 l 272 517 q 237 524 254 517 q 208 544 220 531 q 188 572 195 556 q 180 607 180 589 l 180 699 q 188 734 180 718 q 208 763 195 751 q 237 783 220 776 q 272 790 254 790 l 364 790 q 400 783 383 790 q 429 764 416 777 q 448 735 441 752 q 454 699 454 718 l 454 607 z "},"«":{"ha":903,"x_min":61,"x_max":844,"o":"m 419 -16 q 401 -28 413 -26 q 379 -25 390 -31 l 74 174 q 65 185 69 177 q 61 199 61 193 l 61 296 q 65 309 61 301 q 74 319 69 316 l 379 518 q 401 522 390 524 q 419 510 413 519 l 472 428 q 477 406 479 417 q 464 387 475 394 l 248 248 l 464 106 q 477 87 475 99 q 472 65 479 76 l 419 -16 m 783 -16 q 765 -28 777 -26 q 743 -25 753 -31 l 439 174 q 429 185 433 177 q 425 199 425 193 l 425 296 q 429 309 425 301 q 439 319 433 316 l 743 518 q 765 522 753 524 q 783 510 777 519 l 838 428 q 841 406 844 417 q 829 387 839 394 l 611 248 l 829 106 q 841 87 839 99 q 838 65 844 76 l 783 -16 m 812 82 l 558 248 l 812 412 l 760 493 l 454 296 l 454 199 l 760 0 l 812 82 m 449 82 l 193 248 l 449 412 l 395 493 l 90 296 l 90 199 l 395 0 l 449 82 z "},"¬":{"ha":665,"x_min":61,"x_max":606,"o":"m 479 227 q 458 235 467 227 q 450 256 450 243 l 450 347 l 90 347 q 70 356 78 347 q 61 376 61 365 l 61 473 q 70 494 61 486 q 90 503 78 503 l 576 503 q 597 494 588 503 q 606 473 606 486 l 606 256 q 597 235 606 243 q 576 227 588 227 l 479 227 m 576 256 l 576 473 l 90 473 l 90 376 l 479 376 l 479 256 l 576 256 z "},"®":{"ha":908,"x_min":61,"x_max":848,"o":"m 486 465 q 482 476 486 471 q 471 481 477 481 l 393 481 l 393 449 l 471 449 q 482 454 477 449 q 486 465 486 459 m 546 117 q 525 125 533 117 q 517 146 517 134 l 517 273 q 504 313 517 298 q 471 329 492 329 l 393 329 l 393 146 q 385 125 393 134 q 364 117 376 117 l 302 117 q 282 125 290 117 q 273 146 273 134 l 273 632 q 282 652 273 644 q 302 661 290 661 l 485 661 q 544 649 516 661 q 592 617 571 637 q 624 569 612 596 q 636 510 636 541 q 622 440 636 471 q 585 389 608 410 q 623 340 610 369 q 636 273 636 312 l 636 146 q 627 125 636 134 q 607 117 618 117 l 546 117 m 717 583 q 709 619 717 602 q 689 648 702 636 q 660 668 677 661 q 625 675 644 675 l 285 675 q 249 668 265 675 q 219 648 232 661 q 199 619 206 636 q 192 583 192 602 l 192 195 q 199 158 192 175 q 219 129 206 142 q 249 109 232 116 q 285 102 265 102 l 625 102 q 661 109 644 102 q 690 129 677 116 q 710 158 703 141 q 717 195 717 175 l 717 583 m 848 243 q 770 50 848 130 q 682 -10 729 9 q 576 -29 634 -29 l 334 -29 q 228 -10 276 -29 q 140 50 180 9 q 80 138 100 90 q 61 243 61 186 l 61 534 q 80 639 61 591 q 140 726 100 686 q 334 807 219 807 l 576 807 q 768 726 688 807 q 828 639 808 686 q 848 534 848 591 l 848 243 m 819 243 l 819 534 q 801 628 819 585 q 747 705 783 670 q 669 760 711 741 q 576 778 627 778 l 334 778 q 240 760 283 778 q 160 705 197 741 q 90 534 90 636 l 90 243 q 107 150 90 193 q 160 71 124 106 q 334 0 233 0 l 576 0 q 749 71 677 0 q 819 243 819 141 m 746 195 q 737 146 746 168 q 711 107 728 123 q 673 81 695 91 q 625 72 651 72 l 285 72 q 238 82 260 72 q 199 108 216 92 q 173 147 182 125 q 163 195 163 170 l 163 583 q 173 630 163 608 q 199 669 182 652 q 238 694 216 685 q 285 704 260 704 l 625 704 q 672 694 650 704 q 711 669 694 685 q 736 630 727 652 q 746 583 746 608 l 746 195 m 607 146 l 607 273 q 522 389 607 361 q 586 433 564 402 q 607 510 607 464 q 597 557 607 535 q 571 596 587 580 q 532 623 554 613 q 485 632 510 632 l 302 632 l 302 146 l 364 146 l 364 358 l 471 358 q 502 352 488 358 q 525 334 515 345 q 541 307 535 322 q 546 273 546 291 l 546 146 l 607 146 m 515 465 q 502 433 515 448 q 471 419 488 419 l 364 419 l 364 510 l 471 510 q 502 497 488 510 q 515 465 515 484 z "},"°":{"ha":471,"x_min":61,"x_max":411,"o":"m 304 888 q 299 914 304 902 q 284 936 294 926 q 262 950 275 945 q 236 956 250 956 q 188 936 208 956 q 168 888 168 916 q 174 861 168 873 q 188 839 179 848 q 210 825 197 830 q 236 819 222 819 q 262 825 250 819 q 284 839 275 830 q 299 861 294 848 q 304 888 304 873 m 411 888 q 359 762 411 816 q 236 713 308 713 q 111 762 163 713 q 61 888 61 816 q 111 1011 61 959 q 168 1049 137 1036 q 236 1063 199 1063 q 303 1049 273 1063 q 359 1011 334 1036 q 411 888 411 958 m 382 888 q 339 990 382 947 q 292 1022 318 1011 q 236 1034 267 1034 q 179 1022 205 1034 q 132 990 153 1011 q 90 888 90 948 q 132 783 90 825 q 179 752 153 762 q 236 742 205 742 q 339 783 298 742 q 382 888 382 826 m 334 888 q 326 849 334 867 q 305 818 318 831 q 274 798 292 805 q 236 790 256 790 q 198 798 216 790 q 167 818 180 805 q 146 849 154 831 q 139 888 139 867 q 146 925 139 907 q 167 956 154 943 q 198 977 180 969 q 236 985 216 985 q 274 977 256 985 q 305 956 292 969 q 326 925 318 943 q 334 888 334 907 z "},"±":{"ha":665,"x_min":61,"x_max":606,"o":"m 90 -29 q 70 -20 78 -29 q 61 0 61 -12 l 61 97 q 70 117 61 109 q 90 126 78 126 l 576 126 q 597 117 588 126 q 606 97 606 109 l 606 0 q 597 -20 606 -12 q 576 -29 588 -29 l 90 -29 m 411 408 l 411 243 q 402 222 411 231 q 382 214 393 214 l 285 214 q 264 222 272 214 q 256 243 256 231 l 256 408 l 90 408 q 70 417 78 408 q 61 437 61 426 l 61 534 q 70 555 61 546 q 90 564 78 564 l 256 564 l 256 729 q 264 749 256 741 q 285 758 272 758 l 382 758 q 402 749 393 758 q 411 729 411 741 l 411 564 l 576 564 q 597 555 588 564 q 606 534 606 546 l 606 437 q 597 417 606 426 q 576 408 588 408 l 411 408 m 576 437 l 576 534 l 382 534 l 382 729 l 285 729 l 285 534 l 90 534 l 90 437 l 285 437 l 285 243 l 382 243 l 382 437 l 576 437 m 576 0 l 576 97 l 90 97 l 90 0 l 576 0 z "},"²":{"ha":484,"x_min":61,"x_max":422,"o":"m 90 578 q 70 587 78 578 q 61 607 61 595 l 61 760 q 73 818 61 790 q 105 865 85 845 q 153 898 125 886 q 211 909 180 909 l 239 909 q 264 915 256 909 q 273 928 273 920 q 269 939 273 934 q 257 943 264 943 l 90 943 q 70 952 78 943 q 61 972 61 961 l 61 1093 q 70 1114 61 1105 q 90 1122 78 1122 l 272 1122 q 330 1111 302 1122 q 378 1078 357 1099 q 411 1030 399 1057 q 422 972 422 1003 l 422 942 q 411 884 422 911 q 378 836 399 857 q 330 803 357 815 q 272 791 302 791 l 197 791 q 185 786 191 791 q 179 775 179 781 l 179 758 l 393 758 q 414 749 406 758 q 422 729 422 741 l 422 607 q 414 587 422 595 q 393 578 406 578 l 90 578 m 393 607 l 393 729 l 150 729 l 150 775 q 164 807 150 794 q 197 821 178 821 l 272 821 q 319 830 297 821 q 358 856 341 840 q 384 895 374 873 q 393 942 393 917 l 393 972 q 384 1020 393 998 q 358 1058 374 1042 q 319 1084 341 1074 q 272 1093 297 1093 l 90 1093 l 90 972 l 257 972 q 289 959 276 972 q 302 928 302 945 q 235 880 302 878 l 211 880 q 164 871 186 880 q 125 845 142 861 q 100 807 109 829 q 90 760 90 785 l 90 607 l 393 607 z "},"³":{"ha":484,"x_min":61,"x_max":422,"o":"m 422 729 q 411 670 422 698 q 378 622 399 643 q 330 590 357 602 q 272 578 302 578 l 90 578 q 70 587 78 578 q 61 607 61 595 l 61 729 q 70 749 61 741 q 90 758 78 758 l 257 758 q 269 763 264 758 q 273 775 273 768 q 269 786 273 781 q 257 791 264 791 l 150 791 q 130 800 138 791 q 121 821 121 808 l 121 880 q 130 901 121 893 q 150 909 138 909 l 257 909 q 269 915 264 909 q 273 928 273 920 q 269 939 273 934 q 257 943 264 943 l 90 943 q 70 952 78 943 q 61 972 61 961 l 61 1093 q 70 1114 61 1105 q 90 1122 78 1122 l 272 1122 q 333 1110 305 1122 q 380 1077 361 1098 q 411 1027 400 1056 q 422 966 422 999 q 409 902 422 932 q 370 851 395 872 q 422 729 422 808 m 393 729 q 310 850 393 823 q 343 868 328 856 q 370 895 359 880 q 387 928 381 910 q 393 966 393 947 q 385 1016 393 993 q 360 1057 376 1040 q 321 1083 344 1074 q 272 1093 299 1093 l 90 1093 l 90 972 l 257 972 q 289 959 276 972 q 302 928 302 945 q 289 895 302 909 q 257 880 276 880 l 150 880 l 150 821 l 257 821 q 289 807 276 821 q 302 775 302 794 q 289 743 302 758 q 257 729 276 729 l 90 729 l 90 607 l 272 607 q 319 617 297 607 q 358 643 341 627 q 384 682 374 660 q 393 729 393 704 z "},"´":{"ha":350,"x_min":60,"x_max":293,"o":"m 187 772 q 173 777 181 772 q 161 787 165 782 l 64 957 q 60 972 60 965 q 63 987 60 981 q 74 998 67 994 q 90 1002 81 1002 l 187 1002 q 202 996 195 1002 q 214 983 210 989 l 286 812 q 285 785 293 797 q 260 772 277 772 l 187 772 m 260 802 l 187 972 l 90 972 l 187 802 l 260 802 z "},"µ":{"ha":787,"x_min":61,"x_max":726,"o":"m 334 -29 q 284 -24 308 -29 q 240 -5 260 -18 l 240 -243 q 232 -263 240 -254 q 211 -272 224 -272 l 90 -272 q 70 -263 78 -272 q 61 -243 61 -254 l 61 850 q 70 871 61 863 q 90 879 78 879 l 211 879 q 232 871 224 879 q 240 850 240 863 l 240 364 q 248 329 240 345 q 268 299 255 312 q 297 279 280 287 q 334 272 314 272 l 547 272 l 547 850 q 555 871 547 863 q 576 879 564 879 l 697 879 q 718 871 710 879 q 726 850 726 863 l 726 0 q 718 -20 726 -12 q 697 -29 710 -29 l 334 -29 m 697 0 l 697 850 l 576 850 l 576 243 l 334 243 q 286 252 309 243 q 247 278 264 262 q 221 317 231 295 q 211 364 211 339 l 211 850 l 90 850 l 90 -243 l 211 -243 l 211 82 q 256 20 213 43 q 293 4 273 9 q 334 0 313 0 l 697 0 z "},"μ":{"ha":787,"x_min":61,"x_max":726,"o":"m 334 -29 q 284 -24 308 -29 q 240 -5 260 -18 l 240 -243 q 232 -263 240 -254 q 211 -272 224 -272 l 90 -272 q 70 -263 78 -272 q 61 -243 61 -254 l 61 850 q 70 871 61 863 q 90 879 78 879 l 211 879 q 232 871 224 879 q 240 850 240 863 l 240 364 q 248 329 240 345 q 268 299 255 312 q 297 279 280 287 q 334 272 314 272 l 547 272 l 547 850 q 555 871 547 863 q 576 879 564 879 l 697 879 q 718 871 710 879 q 726 850 726 863 l 726 0 q 718 -20 726 -12 q 697 -29 710 -29 l 334 -29 m 697 0 l 697 850 l 576 850 l 576 243 l 334 243 q 286 252 309 243 q 247 278 264 262 q 221 317 231 295 q 211 364 211 339 l 211 850 l 90 850 l 90 -243 l 211 -243 l 211 82 q 256 20 213 43 q 293 4 273 9 q 334 0 313 0 l 697 0 z "},"¶":{"ha":908,"x_min":61,"x_max":848,"o":"m 726 821 l 726 -243 q 718 -263 726 -254 q 697 -272 710 -272 l 576 -272 q 555 -263 564 -272 q 547 -243 547 -254 l 547 821 l 484 821 l 484 -243 q 475 -263 484 -254 q 454 -272 467 -272 l 334 -272 q 313 -263 321 -272 q 304 -243 304 -254 l 304 397 q 216 421 256 401 q 140 476 176 441 q 61 668 61 555 l 61 729 q 140 921 61 842 q 229 982 181 962 q 334 1002 276 1002 l 819 1002 q 840 993 831 1002 q 848 972 848 984 l 848 850 q 840 829 848 838 q 819 821 831 821 l 726 821 m 819 850 l 819 972 l 334 972 q 161 900 233 972 q 90 729 90 829 l 90 668 q 161 497 90 568 q 240 444 197 462 q 334 425 283 425 l 334 -243 l 454 -243 l 454 850 l 576 850 l 576 -243 l 697 -243 l 697 850 l 819 850 z "},"·":{"ha":350,"x_min":61,"x_max":289,"o":"m 90 311 q 70 320 78 311 q 61 340 61 329 l 61 510 q 70 531 61 522 q 90 539 78 539 l 260 539 q 281 531 273 539 q 289 510 289 522 l 289 340 q 281 320 289 329 q 260 311 273 311 l 90 311 m 260 340 l 260 510 l 90 510 l 90 340 l 260 340 z "},"¸":{"ha":374,"x_min":56,"x_max":314,"o":"m 314 -146 q 304 -195 314 -172 q 277 -235 294 -218 q 237 -262 260 -252 q 187 -272 214 -272 l 90 -272 q 65 -260 75 -272 q 62 -233 56 -249 l 74 -197 q 86 -183 77 -189 q 102 -178 94 -178 l 187 -178 q 209 -168 200 -178 q 218 -146 218 -159 q 209 -123 218 -133 q 187 -114 200 -114 l 126 -114 q 103 -104 112 -114 q 98 -79 95 -94 l 122 31 q 133 46 124 40 q 150 53 142 53 l 224 53 q 247 43 238 53 q 252 18 256 33 l 239 -32 q 293 -78 273 -47 q 314 -146 314 -109 m 285 -146 q 279 -114 285 -130 q 263 -86 273 -98 q 238 -64 252 -73 q 207 -52 224 -55 l 224 24 l 150 24 l 126 -85 l 187 -85 q 210 -90 199 -85 q 230 -103 221 -94 q 243 -122 238 -111 q 248 -146 248 -134 q 243 -169 248 -158 q 230 -189 238 -180 q 210 -202 221 -197 q 187 -207 199 -207 l 102 -207 l 90 -243 l 187 -243 q 225 -235 207 -243 q 256 -215 243 -228 q 277 -184 269 -201 q 285 -146 285 -166 z "},"¹":{"ha":301,"x_min":61,"x_max":240,"o":"m 90 578 q 70 587 78 578 q 61 607 61 595 l 61 729 q 70 749 61 741 q 90 758 78 758 l 92 758 l 92 943 l 90 943 q 70 952 78 943 q 61 972 61 961 l 61 1093 q 70 1114 61 1105 q 90 1122 78 1122 l 180 1122 q 201 1114 193 1122 q 210 1093 210 1105 l 210 758 l 211 758 q 232 749 224 758 q 240 729 240 741 l 240 607 q 232 587 240 595 q 211 578 224 578 l 90 578 m 211 607 l 211 729 l 180 729 l 180 1093 l 90 1093 l 90 972 l 121 972 l 121 729 l 90 729 l 90 607 l 211 607 z "},"º":{"ha":636,"x_min":61,"x_max":575,"o":"m 425 699 q 420 723 425 711 q 407 743 416 734 q 388 756 399 751 q 364 761 376 761 l 272 761 q 248 756 259 761 q 228 743 236 751 q 214 723 219 734 q 210 699 210 711 l 210 607 q 214 584 210 595 q 228 564 219 572 q 248 551 236 555 q 272 546 259 546 l 364 546 q 408 564 390 546 q 425 607 425 581 l 425 699 m 575 517 q 513 366 575 428 q 364 306 451 306 l 272 306 q 191 320 228 306 q 122 367 154 335 q 61 517 61 430 l 61 790 q 122 939 61 878 q 272 1002 185 1002 l 364 1002 q 445 986 408 1002 q 513 939 481 970 q 575 790 575 878 l 575 517 m 546 517 l 546 790 q 492 918 546 866 q 433 959 466 945 q 364 972 401 972 l 272 972 q 143 918 197 972 q 90 790 90 865 l 90 517 q 143 387 90 441 q 272 335 197 335 l 364 335 q 434 348 401 335 q 492 386 466 360 q 532 446 519 414 q 546 517 546 478 m 454 607 q 448 571 454 587 q 429 543 441 555 q 400 524 416 530 q 364 517 383 517 l 272 517 q 237 524 254 517 q 208 544 220 531 q 188 572 195 556 q 180 607 180 589 l 180 699 q 188 734 180 718 q 208 763 195 751 q 237 783 220 776 q 272 790 254 790 l 364 790 q 399 783 382 790 q 427 763 415 776 q 447 734 439 751 q 454 699 454 718 l 454 607 z "},"»":{"ha":903,"x_min":59,"x_max":842,"o":"m 160 -25 q 137 -28 149 -31 q 119 -16 125 -26 l 65 65 q 62 87 59 76 q 74 106 64 99 l 292 248 l 74 387 q 62 406 64 394 q 65 428 59 417 l 119 510 q 137 522 125 519 q 160 518 149 524 l 464 319 q 474 309 469 316 q 478 296 478 301 l 478 199 q 474 185 478 193 q 464 174 469 177 l 160 -25 m 524 -25 q 502 -28 513 -31 q 484 -16 490 -26 l 431 65 q 427 87 425 76 q 439 106 429 99 l 656 248 l 439 387 q 427 406 429 394 q 431 428 425 417 l 484 510 q 502 522 490 519 q 524 518 513 524 l 829 319 q 838 309 833 316 q 842 296 842 301 l 842 199 q 838 185 842 193 q 829 174 833 177 l 524 -25 m 812 199 l 812 296 l 509 493 l 454 412 l 710 248 l 454 82 l 509 0 l 812 199 m 449 199 l 449 296 l 143 493 l 90 412 l 345 248 l 90 82 l 143 0 l 449 199 z "},"¼":{"ha":665,"x_min":61,"x_max":606,"o":"m 285 554 q 264 563 272 554 q 256 583 256 572 l 256 681 q 263 699 256 691 q 279 710 270 707 l 279 846 q 263 856 270 848 q 256 875 256 863 l 256 972 q 264 993 256 984 q 285 1002 272 1002 l 357 1002 q 378 993 370 1002 q 386 972 386 984 l 386 710 q 404 699 397 707 q 411 681 411 691 l 411 583 q 402 563 411 572 q 382 554 393 554 l 285 554 m 90 421 q 70 429 78 421 q 61 450 61 437 l 61 522 q 70 543 61 535 q 90 551 78 551 l 576 551 q 597 543 588 551 q 606 522 606 535 l 606 450 q 597 429 606 437 q 576 421 588 421 l 90 421 m 406 -29 q 385 -20 394 -29 q 376 0 376 -12 l 376 39 l 211 39 q 191 47 199 39 q 182 68 182 56 l 182 292 q 191 312 182 303 q 211 321 199 321 l 260 321 q 281 312 273 321 q 289 292 289 303 l 289 195 l 376 195 l 376 389 q 385 409 376 400 q 406 418 394 418 l 454 418 q 475 409 467 418 q 484 389 484 400 l 484 0 q 475 -20 484 -12 q 454 -29 467 -29 l 406 -29 m 382 583 l 382 681 l 357 681 l 357 972 l 285 972 l 285 875 l 309 875 l 309 681 l 285 681 l 285 583 l 382 583 m 576 450 l 576 522 l 90 522 l 90 450 l 576 450 m 454 0 l 454 389 l 406 389 l 406 165 l 260 165 l 260 292 l 211 292 l 211 68 l 406 68 l 406 0 l 454 0 z "},"½":{"ha":665,"x_min":61,"x_max":606,"o":"m 285 554 q 264 563 272 554 q 256 583 256 572 l 256 681 q 263 699 256 691 q 279 710 270 707 l 279 846 q 263 856 270 848 q 256 875 256 863 l 256 972 q 264 993 256 984 q 285 1002 272 1002 l 357 1002 q 378 993 370 1002 q 386 972 386 984 l 386 710 q 404 699 397 707 q 411 681 411 691 l 411 583 q 402 563 411 572 q 382 554 393 554 l 285 554 m 90 421 q 70 429 78 421 q 61 450 61 437 l 61 522 q 70 543 61 535 q 90 551 78 551 l 576 551 q 597 543 588 551 q 606 522 606 535 l 606 450 q 597 429 606 437 q 576 421 588 421 l 90 421 m 211 -29 q 191 -20 199 -29 q 182 0 182 -12 l 182 121 q 192 170 182 147 q 219 211 201 193 q 259 238 236 228 q 309 248 282 248 l 345 248 q 353 256 353 248 q 345 262 353 262 l 211 262 q 191 271 199 262 q 182 292 182 280 l 182 389 q 191 409 182 400 q 211 418 199 418 l 357 418 q 406 408 383 418 q 447 381 429 398 q 474 340 464 363 q 484 292 484 317 l 484 267 q 474 218 484 241 q 447 178 464 195 q 406 151 429 161 q 357 140 383 140 l 296 140 q 289 134 289 140 l 289 126 l 454 126 q 475 117 467 126 q 484 97 484 109 l 484 0 q 475 -20 484 -12 q 454 -29 467 -29 l 211 -29 m 382 583 l 382 681 l 357 681 l 357 972 l 285 972 l 285 875 l 309 875 l 309 681 l 285 681 l 285 583 l 382 583 m 576 450 l 576 522 l 90 522 l 90 450 l 576 450 m 454 0 l 454 97 l 260 97 l 260 134 q 296 170 260 170 l 357 170 q 395 177 377 170 q 426 198 412 185 q 447 229 439 212 q 454 267 454 247 l 454 292 q 447 329 454 311 q 426 360 439 347 q 395 381 412 373 q 357 389 377 389 l 211 389 l 211 292 l 345 292 q 382 256 382 292 q 345 218 382 218 l 309 218 q 271 211 289 218 q 240 190 253 203 q 219 159 227 176 q 211 121 211 141 l 211 0 l 454 0 z "},"¾":{"ha":665,"x_min":61,"x_max":606,"o":"m 90 421 q 70 429 78 421 q 61 450 61 437 l 61 522 q 70 543 61 535 q 90 551 78 551 l 576 551 q 597 543 588 551 q 606 522 606 535 l 606 450 q 597 429 606 437 q 576 421 588 421 l 90 421 m 406 -29 q 385 -20 394 -29 q 376 0 376 -12 l 376 39 l 211 39 q 191 47 199 39 q 182 68 182 56 l 182 292 q 191 312 182 303 q 211 321 199 321 l 260 321 q 281 312 273 321 q 289 292 289 303 l 289 195 l 376 195 l 376 389 q 385 409 376 400 q 406 418 394 418 l 454 418 q 475 409 467 418 q 484 389 484 400 l 484 0 q 475 -20 484 -12 q 454 -29 467 -29 l 406 -29 m 484 681 q 474 631 484 654 q 447 591 464 608 q 406 564 429 574 q 357 554 383 554 l 211 554 q 191 563 199 554 q 182 583 182 572 l 182 681 q 191 701 182 692 q 211 710 199 710 l 345 710 q 353 717 353 710 q 345 724 353 724 l 260 724 q 239 732 248 724 q 231 753 231 741 l 231 802 q 239 822 231 814 q 260 831 248 831 l 345 831 q 353 839 353 831 q 345 846 353 846 l 211 846 q 191 854 199 846 q 182 875 182 863 l 182 972 q 191 993 182 984 q 211 1002 199 1002 l 357 1002 q 406 992 383 1002 q 447 965 429 982 q 474 924 464 947 q 484 875 484 901 l 484 869 q 447 777 484 811 q 484 681 484 742 m 454 681 q 387 778 454 754 q 454 869 454 798 l 454 875 q 447 912 454 895 q 426 944 439 930 q 395 965 412 957 q 357 972 377 972 l 211 972 l 211 875 l 345 875 q 382 839 382 875 q 345 802 382 802 l 260 802 l 260 753 l 345 753 q 382 717 382 753 q 345 681 382 681 l 211 681 l 211 583 l 357 583 q 395 591 377 583 q 426 611 412 598 q 447 643 439 625 q 454 681 454 661 m 576 450 l 576 522 l 90 522 l 90 450 l 576 450 m 454 0 l 454 389 l 406 389 l 406 165 l 260 165 l 260 292 l 211 292 l 211 68 l 406 68 l 406 0 l 454 0 z "},"¿":{"ha":714,"x_min":61,"x_max":654,"o":"m 393 652 q 373 661 382 652 q 364 681 364 669 l 364 850 q 373 871 364 863 q 393 879 382 879 l 564 879 q 584 871 575 879 q 593 850 593 863 l 593 681 q 584 661 593 669 q 564 652 575 652 l 393 652 m 334 -151 q 229 -131 276 -151 q 140 -71 181 -111 q 61 121 61 9 q 81 226 61 178 q 140 314 100 273 q 229 374 181 354 q 334 393 276 393 l 401 393 l 412 561 q 422 580 414 572 q 441 587 431 587 l 515 587 q 534 580 526 587 q 545 561 543 572 l 568 245 q 560 223 568 232 q 539 214 551 214 l 334 214 q 311 204 320 214 q 301 182 301 195 q 311 160 301 170 q 334 150 320 150 l 625 150 q 646 142 637 150 q 654 121 654 134 l 654 -122 q 646 -142 654 -134 q 625 -151 637 -151 l 334 -151 m 564 681 l 564 850 l 393 850 l 393 681 l 564 681 m 625 -122 l 625 121 l 334 121 q 310 126 321 121 q 290 139 298 131 q 277 159 281 148 q 272 182 272 170 q 290 225 272 207 q 334 243 308 243 l 539 243 l 515 558 l 441 558 l 429 364 l 334 364 q 161 293 231 364 q 90 121 90 222 q 161 -50 90 21 q 240 -104 197 -85 q 334 -122 283 -122 l 625 -122 z "},"À":{"ha":787,"x_min":61,"x_max":726,"o":"m 357 1015 q 342 1020 351 1015 q 332 1031 334 1025 l 235 1200 q 230 1215 230 1208 q 234 1230 230 1223 q 244 1240 237 1236 q 260 1244 251 1244 l 357 1244 q 373 1239 364 1244 q 383 1226 381 1233 l 457 1055 q 455 1027 463 1040 q 431 1015 446 1015 l 357 1015 m 240 393 l 547 393 l 547 607 q 540 644 547 627 q 520 673 533 661 q 491 693 508 686 q 454 700 474 700 l 334 700 q 297 693 314 700 q 268 673 280 686 q 248 643 255 660 q 240 607 240 626 l 240 393 m 576 -29 q 555 -20 564 -29 q 547 0 547 -12 l 547 214 l 240 214 l 240 0 q 232 -20 240 -12 q 211 -29 224 -29 l 90 -29 q 70 -20 78 -29 q 61 0 61 -12 l 61 729 q 140 921 61 842 q 229 982 181 962 q 334 1002 276 1002 l 454 1002 q 560 982 512 1002 q 647 922 608 963 q 707 834 688 882 q 726 729 726 787 l 726 0 q 718 -20 726 -12 q 697 -29 710 -29 l 576 -29 m 431 1044 l 357 1215 l 260 1215 l 357 1044 l 431 1044 m 697 0 l 697 729 q 680 823 697 781 q 627 901 663 866 q 454 972 555 972 l 334 972 q 161 900 233 972 q 90 729 90 829 l 90 0 l 211 0 l 211 243 l 576 243 l 576 0 l 697 0 m 576 364 l 211 364 l 211 607 q 221 654 211 632 q 247 693 231 677 q 286 720 264 710 q 334 729 309 729 l 454 729 q 503 720 480 729 q 541 694 525 710 q 567 655 557 677 q 576 607 576 633 l 576 364 z "},"Á":{"ha":787,"x_min":61,"x_max":726,"o":"m 456 1031 q 445 1020 452 1025 q 431 1015 437 1015 l 357 1015 q 332 1027 340 1015 q 330 1055 324 1040 l 403 1226 q 415 1239 406 1233 q 431 1244 423 1244 l 528 1244 q 543 1240 536 1244 q 554 1230 550 1236 q 557 1215 557 1223 q 553 1200 557 1208 l 456 1031 m 240 393 l 547 393 l 547 607 q 540 644 547 627 q 520 673 533 661 q 491 693 508 686 q 454 700 474 700 l 334 700 q 297 693 314 700 q 268 673 280 686 q 248 643 255 660 q 240 607 240 626 l 240 393 m 576 -29 q 555 -20 564 -29 q 547 0 547 -12 l 547 214 l 240 214 l 240 0 q 232 -20 240 -12 q 211 -29 224 -29 l 90 -29 q 70 -20 78 -29 q 61 0 61 -12 l 61 729 q 140 921 61 842 q 229 982 181 962 q 334 1002 276 1002 l 454 1002 q 560 982 512 1002 q 647 922 608 963 q 707 834 688 882 q 726 729 726 787 l 726 0 q 718 -20 726 -12 q 697 -29 710 -29 l 576 -29 m 528 1215 l 431 1215 l 357 1044 l 431 1044 l 528 1215 m 697 0 l 697 729 q 680 823 697 781 q 627 901 663 866 q 454 972 555 972 l 334 972 q 161 900 233 972 q 90 729 90 829 l 90 0 l 211 0 l 211 243 l 576 243 l 576 0 l 697 0 m 576 364 l 211 364 l 211 607 q 221 654 211 632 q 247 693 231 677 q 286 720 264 710 q 334 729 309 729 l 454 729 q 503 720 480 729 q 541 694 525 710 q 567 655 557 677 q 576 607 576 633 l 576 364 z "},"Â":{"ha":787,"x_min":61,"x_max":726,"o":"m 467 1015 q 453 1019 461 1015 q 441 1028 445 1023 l 393 1096 l 345 1028 q 334 1019 342 1023 q 321 1015 326 1015 l 248 1015 q 232 1019 239 1015 q 221 1030 225 1023 q 218 1044 218 1036 q 222 1060 218 1052 l 319 1229 q 331 1240 323 1236 q 345 1244 338 1244 l 441 1244 q 457 1240 449 1244 q 468 1229 465 1236 l 566 1060 q 570 1044 570 1052 q 566 1030 570 1036 q 555 1019 562 1023 q 539 1015 548 1015 l 467 1015 m 240 393 l 547 393 l 547 607 q 540 644 547 627 q 520 673 533 661 q 491 693 508 686 q 454 700 474 700 l 334 700 q 297 693 314 700 q 268 673 280 686 q 248 643 255 660 q 240 607 240 626 l 240 393 m 576 -29 q 555 -20 564 -29 q 547 0 547 -12 l 547 214 l 240 214 l 240 0 q 232 -20 240 -12 q 211 -29 224 -29 l 90 -29 q 70 -20 78 -29 q 61 0 61 -12 l 61 729 q 140 921 61 842 q 229 982 181 962 q 334 1002 276 1002 l 454 1002 q 560 982 512 1002 q 647 922 608 963 q 707 834 688 882 q 726 729 726 787 l 726 0 q 718 -20 726 -12 q 697 -29 710 -29 l 576 -29 m 539 1044 l 441 1215 l 345 1215 l 248 1044 l 321 1044 l 393 1147 l 467 1044 l 539 1044 m 697 0 l 697 729 q 680 823 697 781 q 627 901 663 866 q 454 972 555 972 l 334 972 q 161 900 233 972 q 90 729 90 829 l 90 0 l 211 0 l 211 243 l 576 243 l 576 0 l 697 0 m 576 364 l 211 364 l 211 607 q 221 654 211 632 q 247 693 231 677 q 286 720 264 710 q 334 729 309 729 l 454 729 q 503 720 480 729 q 541 694 525 710 q 567 655 557 677 q 576 607 576 633 l 576 364 z "},"Ã":{"ha":787,"x_min":61,"x_max":726,"o":"m 597 1074 q 532 1030 567 1044 q 454 1015 496 1015 q 378 1044 421 1015 q 334 1064 348 1064 q 232 1025 271 1064 q 216 1016 224 1017 q 199 1017 207 1014 q 187 1027 192 1020 q 182 1044 182 1034 l 182 1141 q 185 1153 182 1146 q 191 1162 188 1160 q 255 1206 220 1192 q 334 1219 291 1219 q 369 1212 349 1219 q 410 1190 388 1205 q 436 1176 425 1182 q 454 1171 447 1171 q 555 1211 513 1171 q 572 1220 563 1219 q 588 1218 581 1221 q 601 1208 595 1215 q 606 1190 606 1200 l 606 1093 l 597 1074 m 240 393 l 547 393 l 547 607 q 540 644 547 627 q 520 673 533 661 q 491 693 508 686 q 454 700 474 700 l 334 700 q 297 693 314 700 q 268 673 280 686 q 248 643 255 660 q 240 607 240 626 l 240 393 m 576 -29 q 555 -20 564 -29 q 547 0 547 -12 l 547 214 l 240 214 l 240 0 q 232 -20 240 -12 q 211 -29 224 -29 l 90 -29 q 70 -20 78 -29 q 61 0 61 -12 l 61 729 q 140 921 61 842 q 229 982 181 962 q 334 1002 276 1002 l 454 1002 q 560 982 512 1002 q 647 922 608 963 q 707 834 688 882 q 726 729 726 787 l 726 0 q 718 -20 726 -12 q 697 -29 710 -29 l 576 -29 m 576 1093 l 576 1190 q 454 1141 524 1141 q 427 1148 443 1141 q 393 1166 412 1155 q 334 1190 357 1190 q 267 1179 298 1190 q 211 1141 236 1167 l 211 1044 q 267 1081 236 1069 q 334 1093 298 1093 q 360 1087 345 1093 q 393 1069 376 1081 q 427 1051 412 1058 q 454 1044 443 1044 q 576 1093 524 1044 m 697 0 l 697 729 q 680 823 697 781 q 627 901 663 866 q 454 972 555 972 l 334 972 q 161 900 233 972 q 90 729 90 829 l 90 0 l 211 0 l 211 243 l 576 243 l 576 0 l 697 0 m 576 364 l 211 364 l 211 607 q 221 654 211 632 q 247 693 231 677 q 286 720 264 710 q 334 729 309 729 l 454 729 q 503 720 480 729 q 541 694 525 710 q 567 655 557 677 q 576 607 576 633 l 576 364 z "},"Ä":{"ha":787,"x_min":61,"x_max":726,"o":"m 454 1015 q 434 1024 443 1015 q 425 1044 425 1033 l 425 1166 q 434 1187 425 1178 q 454 1196 443 1196 l 576 1196 q 597 1187 588 1196 q 606 1166 606 1178 l 606 1044 q 597 1024 606 1033 q 576 1015 588 1015 l 454 1015 m 211 1015 q 191 1024 199 1015 q 182 1044 182 1033 l 182 1166 q 191 1187 182 1178 q 211 1196 199 1196 l 334 1196 q 354 1187 345 1196 q 363 1166 363 1178 l 363 1044 q 354 1024 363 1033 q 334 1015 345 1015 l 211 1015 m 240 393 l 547 393 l 547 607 q 540 644 547 627 q 520 673 533 661 q 491 693 508 686 q 454 700 474 700 l 334 700 q 297 693 314 700 q 268 673 280 686 q 248 643 255 660 q 240 607 240 626 l 240 393 m 576 -29 q 555 -20 564 -29 q 547 0 547 -12 l 547 214 l 240 214 l 240 0 q 232 -20 240 -12 q 211 -29 224 -29 l 90 -29 q 70 -20 78 -29 q 61 0 61 -12 l 61 729 q 140 921 61 842 q 229 982 181 962 q 334 1002 276 1002 l 454 1002 q 560 982 512 1002 q 647 922 608 963 q 707 834 688 882 q 726 729 726 787 l 726 0 q 718 -20 726 -12 q 697 -29 710 -29 l 576 -29 m 576 1044 l 576 1166 l 454 1166 l 454 1044 l 576 1044 m 334 1044 l 334 1166 l 211 1166 l 211 1044 l 334 1044 m 697 0 l 697 729 q 680 823 697 781 q 627 901 663 866 q 454 972 555 972 l 334 972 q 161 900 233 972 q 90 729 90 829 l 90 0 l 211 0 l 211 243 l 576 243 l 576 0 l 697 0 m 576 364 l 211 364 l 211 607 q 221 654 211 632 q 247 693 231 677 q 286 720 264 710 q 334 729 309 729 l 454 729 q 503 720 480 729 q 541 694 525 710 q 567 655 557 677 q 576 607 576 633 l 576 364 z "},"Å":{"ha":787,"x_min":61,"x_max":726,"o":"m 461 1069 q 456 1096 461 1084 q 442 1117 451 1108 q 420 1132 433 1126 q 393 1137 408 1137 q 367 1132 379 1137 q 345 1117 354 1126 q 330 1096 336 1108 q 325 1069 325 1084 q 330 1043 325 1055 q 345 1022 336 1031 q 367 1007 354 1013 q 393 1002 379 1002 q 420 1007 408 1002 q 442 1022 433 1013 q 456 1043 451 1031 q 461 1069 461 1055 m 240 393 l 547 393 l 547 607 q 540 644 547 627 q 520 673 533 661 q 491 693 508 686 q 454 700 474 700 l 334 700 q 297 693 314 700 q 268 673 280 686 q 248 643 255 660 q 240 607 240 626 l 240 393 m 576 -29 q 555 -20 564 -29 q 547 0 547 -12 l 547 214 l 240 214 l 240 0 q 232 -20 240 -12 q 211 -29 224 -29 l 90 -29 q 70 -20 78 -29 q 61 0 61 -12 l 61 729 q 123 903 61 825 q 177 952 149 932 q 239 986 206 972 q 218 1069 218 1021 q 269 1193 218 1142 q 393 1244 321 1244 q 518 1193 467 1244 q 568 1069 568 1143 q 563 1026 568 1046 q 549 986 558 1005 q 665 903 617 962 l 664 903 q 711 821 695 864 q 726 729 726 778 l 726 0 q 718 -20 726 -12 q 697 -29 710 -29 l 576 -29 m 697 0 l 697 729 q 642 885 697 819 q 500 968 587 951 q 539 1069 539 1009 q 497 1173 539 1131 q 450 1204 476 1193 q 393 1215 424 1215 q 337 1204 363 1215 q 290 1173 311 1193 q 248 1069 248 1130 q 258 1015 248 1040 q 289 968 268 989 q 146 885 202 951 q 104 812 117 851 q 90 729 90 773 l 90 0 l 211 0 l 211 243 l 576 243 l 576 0 l 697 0 m 490 1069 q 483 1031 490 1049 q 462 1001 475 1014 q 431 980 449 987 q 393 972 414 972 q 356 980 374 972 q 325 1001 338 987 q 303 1031 311 1014 q 296 1069 296 1049 q 303 1107 296 1089 q 325 1138 311 1124 q 356 1159 338 1151 q 393 1166 374 1166 q 431 1159 414 1166 q 462 1138 449 1151 q 483 1107 475 1124 q 490 1069 490 1089 m 576 364 l 211 364 l 211 607 q 221 654 211 632 q 247 693 231 677 q 286 720 264 710 q 334 729 309 729 l 454 729 q 503 720 480 729 q 541 694 525 710 q 567 655 557 677 q 576 607 576 633 l 576 364 z "},"Æ":{"ha":1092,"x_min":61,"x_max":1031,"o":"m 240 393 l 547 393 l 547 607 q 540 644 547 627 q 520 673 533 661 q 491 693 508 686 q 454 700 474 700 l 334 700 q 297 693 314 700 q 268 673 280 686 q 248 643 255 660 q 240 607 240 626 l 240 393 m 819 -29 q 714 -10 762 -29 q 627 50 666 9 q 571 125 590 85 q 549 214 553 165 l 240 214 l 240 0 q 232 -20 240 -12 q 211 -29 224 -29 l 90 -29 q 70 -20 78 -29 q 61 0 61 -12 l 61 729 q 140 921 61 842 q 229 982 181 962 q 334 1002 276 1002 l 406 1002 q 547 964 484 1002 l 547 972 q 555 993 547 984 q 576 1002 564 1002 l 1002 1002 q 1022 993 1013 1002 q 1031 972 1031 984 l 1031 729 q 1022 709 1031 718 q 1002 700 1013 700 l 726 700 l 726 576 l 879 576 q 900 568 892 576 q 908 547 908 559 l 908 425 q 900 405 908 414 q 879 396 892 396 l 726 396 l 726 364 q 733 328 726 345 q 753 299 741 311 q 783 279 766 286 q 819 272 800 272 l 1002 272 q 1022 263 1013 272 q 1031 243 1031 254 l 1031 0 q 1022 -20 1031 -12 q 1002 -29 1013 -29 l 819 -29 m 1002 0 l 1002 243 l 819 243 q 771 252 793 243 q 732 278 749 262 q 707 316 716 294 q 697 364 697 338 l 697 425 l 879 425 l 879 547 l 697 547 l 697 729 l 1002 729 l 1002 972 l 576 972 l 576 904 q 406 972 504 972 l 334 972 q 161 900 233 972 q 90 729 90 829 l 90 0 l 211 0 l 211 243 l 576 243 q 646 71 576 140 q 725 18 682 35 q 819 0 768 0 l 1002 0 m 576 364 l 211 364 l 211 607 q 221 654 211 632 q 247 693 231 677 q 286 720 264 710 q 334 729 309 729 l 454 729 q 503 720 480 729 q 541 694 525 710 q 567 655 557 677 q 576 607 576 633 l 576 364 z "},"Ç":{"ha":787,"x_min":61,"x_max":726,"o":"m 496 -29 l 494 -32 q 548 -78 528 -47 q 568 -146 568 -109 q 558 -195 568 -172 q 531 -235 549 -218 q 491 -262 514 -252 q 441 -272 468 -272 l 345 -272 q 331 -269 337 -272 q 321 -260 325 -266 q 315 -248 317 -255 q 317 -233 314 -241 l 329 -197 q 340 -183 332 -189 q 357 -178 349 -178 l 441 -178 q 464 -168 455 -178 q 473 -146 473 -159 q 464 -123 473 -133 q 441 -114 455 -114 l 382 -114 q 359 -104 368 -114 q 354 -79 350 -94 l 364 -29 l 334 -29 q 229 -9 276 -29 q 140 52 181 11 q 61 243 61 131 l 61 729 q 140 921 61 842 q 229 982 181 962 q 334 1002 276 1002 l 697 1002 q 718 993 710 1002 q 726 972 726 984 l 726 729 q 718 709 726 718 q 697 700 710 700 l 334 700 q 297 693 314 700 q 268 673 280 686 q 248 643 255 660 q 240 607 240 626 l 240 364 q 248 329 240 345 q 268 299 255 312 q 297 279 280 287 q 334 272 314 272 l 697 272 q 718 263 710 272 q 726 243 726 254 l 726 0 q 718 -20 726 -12 q 697 -29 710 -29 l 496 -29 m 697 0 l 697 243 l 334 243 q 286 252 309 243 q 247 278 264 262 q 221 317 231 295 q 211 364 211 339 l 211 607 q 221 654 211 632 q 247 693 231 677 q 286 720 264 710 q 334 729 309 729 l 697 729 l 697 972 l 334 972 q 161 900 233 972 q 90 729 90 829 l 90 243 q 161 72 90 143 q 334 0 231 0 l 401 0 l 382 -85 l 441 -85 q 485 -103 467 -85 q 503 -146 503 -121 q 485 -189 503 -171 q 441 -207 467 -207 l 357 -207 l 345 -243 l 441 -243 q 479 -235 462 -243 q 510 -215 497 -228 q 531 -184 524 -201 q 539 -146 539 -166 q 533 -114 539 -130 q 517 -86 528 -98 q 493 -64 507 -73 q 461 -52 478 -55 l 472 0 l 697 0 z "},"È":{"ha":665,"x_min":61,"x_max":606,"o":"m 296 1015 q 282 1020 290 1015 q 271 1031 274 1025 l 174 1200 q 169 1215 169 1208 q 173 1230 169 1223 q 183 1240 176 1236 q 199 1244 190 1244 l 296 1244 q 312 1239 303 1244 q 323 1226 320 1233 l 396 1055 q 394 1027 402 1040 q 370 1015 387 1015 l 296 1015 m 334 -29 q 228 -10 276 -29 q 140 50 180 9 q 80 138 100 90 q 61 243 61 185 l 61 972 q 70 993 61 984 q 90 1002 78 1002 l 576 1002 q 597 993 588 1002 q 606 972 606 984 l 606 729 q 597 709 606 718 q 576 700 588 700 l 240 700 l 240 576 l 454 576 q 475 568 467 576 q 484 547 484 559 l 484 425 q 475 405 484 414 q 454 396 467 396 l 240 396 l 240 364 q 247 328 240 345 q 267 299 254 311 q 297 279 279 286 q 334 272 314 272 l 576 272 q 597 263 588 272 q 606 243 606 254 l 606 0 q 597 -20 606 -12 q 576 -29 588 -29 l 334 -29 m 370 1044 l 296 1215 l 199 1215 l 296 1044 l 370 1044 m 576 0 l 576 243 l 334 243 q 285 252 307 243 q 246 278 262 262 q 220 316 230 294 q 211 364 211 338 l 211 425 l 454 425 l 454 547 l 211 547 l 211 729 l 576 729 l 576 972 l 90 972 l 90 243 q 160 71 90 140 q 334 0 233 0 l 576 0 z "},"É":{"ha":665,"x_min":61,"x_max":606,"o":"m 395 1031 q 384 1020 393 1025 q 370 1015 376 1015 l 296 1015 q 272 1027 280 1015 q 269 1055 263 1040 l 343 1226 q 354 1239 345 1233 q 370 1244 362 1244 l 467 1244 q 482 1240 475 1244 q 493 1230 489 1236 q 496 1215 496 1223 q 492 1200 496 1208 l 395 1031 m 334 -29 q 228 -10 276 -29 q 140 50 180 9 q 80 138 100 90 q 61 243 61 185 l 61 972 q 70 993 61 984 q 90 1002 78 1002 l 576 1002 q 597 993 588 1002 q 606 972 606 984 l 606 729 q 597 709 606 718 q 576 700 588 700 l 240 700 l 240 576 l 454 576 q 475 568 467 576 q 484 547 484 559 l 484 425 q 475 405 484 414 q 454 396 467 396 l 240 396 l 240 364 q 247 328 240 345 q 267 299 254 311 q 297 279 279 286 q 334 272 314 272 l 576 272 q 597 263 588 272 q 606 243 606 254 l 606 0 q 597 -20 606 -12 q 576 -29 588 -29 l 334 -29 m 467 1215 l 370 1215 l 296 1044 l 370 1044 l 467 1215 m 576 0 l 576 243 l 334 243 q 285 252 307 243 q 246 278 262 262 q 220 316 230 294 q 211 364 211 338 l 211 425 l 454 425 l 454 547 l 211 547 l 211 729 l 576 729 l 576 972 l 90 972 l 90 243 q 160 71 90 140 q 334 0 233 0 l 576 0 z "},"Ê":{"ha":665,"x_min":61,"x_max":606,"o":"m 406 1015 q 392 1019 400 1015 q 382 1028 384 1023 l 334 1096 l 285 1028 q 273 1019 281 1023 q 260 1015 265 1015 l 187 1015 q 171 1019 178 1015 q 161 1030 164 1023 q 157 1044 157 1036 q 161 1060 157 1052 l 258 1229 q 270 1240 262 1236 q 285 1244 279 1244 l 382 1244 q 396 1240 388 1244 q 407 1229 404 1236 l 504 1060 q 509 1044 509 1052 q 505 1030 509 1036 q 495 1019 502 1023 q 479 1015 488 1015 l 406 1015 m 334 -29 q 228 -10 276 -29 q 140 50 180 9 q 80 138 100 90 q 61 243 61 185 l 61 972 q 70 993 61 984 q 90 1002 78 1002 l 576 1002 q 597 993 588 1002 q 606 972 606 984 l 606 729 q 597 709 606 718 q 576 700 588 700 l 240 700 l 240 576 l 454 576 q 475 568 467 576 q 484 547 484 559 l 484 425 q 475 405 484 414 q 454 396 467 396 l 240 396 l 240 364 q 247 328 240 345 q 267 299 254 311 q 297 279 279 286 q 334 272 314 272 l 576 272 q 597 263 588 272 q 606 243 606 254 l 606 0 q 597 -20 606 -12 q 576 -29 588 -29 l 334 -29 m 479 1044 l 382 1215 l 285 1215 l 187 1044 l 260 1044 l 334 1147 l 406 1044 l 479 1044 m 576 0 l 576 243 l 334 243 q 285 252 307 243 q 246 278 262 262 q 220 316 230 294 q 211 364 211 338 l 211 425 l 454 425 l 454 547 l 211 547 l 211 729 l 576 729 l 576 972 l 90 972 l 90 243 q 160 71 90 140 q 334 0 233 0 l 576 0 z "},"Ë":{"ha":665,"x_min":61,"x_max":606,"o":"m 393 1015 q 373 1024 382 1015 q 364 1044 364 1033 l 364 1166 q 373 1187 364 1178 q 393 1196 382 1196 l 515 1196 q 536 1187 527 1196 q 545 1166 545 1178 l 545 1044 q 536 1024 545 1033 q 515 1015 527 1015 l 393 1015 m 150 1015 q 130 1024 138 1015 q 121 1044 121 1033 l 121 1166 q 130 1187 121 1178 q 150 1196 138 1196 l 272 1196 q 292 1187 283 1196 q 301 1166 301 1178 l 301 1044 q 292 1024 301 1033 q 272 1015 283 1015 l 150 1015 m 334 -29 q 228 -10 276 -29 q 140 50 180 9 q 80 138 100 90 q 61 243 61 185 l 61 972 q 70 993 61 984 q 90 1002 78 1002 l 576 1002 q 597 993 588 1002 q 606 972 606 984 l 606 729 q 597 709 606 718 q 576 700 588 700 l 240 700 l 240 576 l 454 576 q 475 568 467 576 q 484 547 484 559 l 484 425 q 475 405 484 414 q 454 396 467 396 l 240 396 l 240 364 q 247 328 240 345 q 267 299 254 311 q 297 279 279 286 q 334 272 314 272 l 576 272 q 597 263 588 272 q 606 243 606 254 l 606 0 q 597 -20 606 -12 q 576 -29 588 -29 l 334 -29 m 515 1044 l 515 1166 l 393 1166 l 393 1044 l 515 1044 m 272 1044 l 272 1166 l 150 1166 l 150 1044 l 272 1044 m 576 0 l 576 243 l 334 243 q 285 252 307 243 q 246 278 262 262 q 220 316 230 294 q 211 364 211 338 l 211 425 l 454 425 l 454 547 l 211 547 l 211 729 l 576 729 l 576 972 l 90 972 l 90 243 q 160 71 90 140 q 334 0 233 0 l 576 0 z "},"Ì":{"ha":422,"x_min":47,"x_max":363,"o":"m 175 1015 q 160 1020 169 1015 q 150 1031 152 1025 l 53 1200 q 48 1216 48 1208 q 51 1230 47 1223 q 62 1240 55 1236 q 78 1244 68 1244 l 175 1244 q 191 1239 182 1244 q 201 1226 199 1233 l 275 1055 q 273 1027 281 1040 q 248 1015 264 1015 l 175 1015 m 90 -29 q 70 -20 78 -29 q 61 0 61 -12 l 61 243 q 70 263 61 254 q 90 272 78 272 l 121 272 l 121 700 l 90 700 q 70 709 78 700 q 61 729 61 718 l 61 972 q 70 993 61 984 q 90 1002 78 1002 l 334 1002 q 354 993 345 1002 q 363 972 363 984 l 363 729 q 354 709 363 718 q 334 700 345 700 l 301 700 l 301 272 l 334 272 q 354 263 345 272 q 363 243 363 254 l 363 0 q 354 -20 363 -12 q 334 -29 345 -29 l 90 -29 m 248 1044 l 175 1215 l 78 1215 l 175 1044 l 248 1044 m 334 0 l 334 243 l 272 243 l 272 729 l 334 729 l 334 972 l 90 972 l 90 729 l 150 729 l 150 243 l 90 243 l 90 0 l 334 0 z "},"Í":{"ha":422,"x_min":61,"x_max":376,"o":"m 273 1031 q 262 1020 270 1025 q 248 1015 255 1015 l 175 1015 q 150 1027 158 1015 q 149 1055 142 1040 l 221 1226 q 232 1239 224 1233 q 248 1244 240 1244 l 345 1244 q 361 1240 354 1244 q 372 1230 368 1236 q 376 1215 376 1223 q 371 1200 376 1208 l 273 1031 m 90 -29 q 70 -20 78 -29 q 61 0 61 -12 l 61 243 q 70 263 61 254 q 90 272 78 272 l 121 272 l 121 700 l 90 700 q 70 709 78 700 q 61 729 61 718 l 61 972 q 70 993 61 984 q 90 1002 78 1002 l 334 1002 q 354 993 345 1002 q 363 972 363 984 l 363 729 q 354 709 363 718 q 334 700 345 700 l 301 700 l 301 272 l 334 272 q 354 263 345 272 q 363 243 363 254 l 363 0 q 354 -20 363 -12 q 334 -29 345 -29 l 90 -29 m 345 1215 l 248 1215 l 175 1044 l 248 1044 l 345 1215 m 334 0 l 334 243 l 272 243 l 272 729 l 334 729 l 334 972 l 90 972 l 90 729 l 150 729 l 150 243 l 90 243 l 90 0 l 334 0 z "},"Î":{"ha":422,"x_min":35,"x_max":387,"o":"m 285 1015 q 271 1019 279 1015 q 260 1028 263 1023 l 211 1096 l 163 1028 q 153 1019 161 1023 q 139 1015 144 1015 l 65 1015 q 50 1019 56 1015 q 39 1030 43 1023 q 35 1044 35 1036 q 40 1060 35 1052 l 138 1229 q 148 1240 140 1236 q 163 1244 156 1244 l 260 1244 q 274 1240 266 1244 q 286 1229 283 1236 l 383 1060 q 387 1044 387 1052 q 384 1030 387 1036 q 373 1019 380 1023 q 357 1015 366 1015 l 285 1015 m 90 -29 q 70 -20 78 -29 q 61 0 61 -12 l 61 243 q 70 263 61 254 q 90 272 78 272 l 121 272 l 121 700 l 90 700 q 70 709 78 700 q 61 729 61 718 l 61 972 q 70 993 61 984 q 90 1002 78 1002 l 334 1002 q 354 993 345 1002 q 363 972 363 984 l 363 729 q 354 709 363 718 q 334 700 345 700 l 301 700 l 301 272 l 334 272 q 354 263 345 272 q 363 243 363 254 l 363 0 q 354 -20 363 -12 q 334 -29 345 -29 l 90 -29 m 357 1044 l 260 1215 l 163 1215 l 65 1044 l 139 1044 l 211 1147 l 285 1044 l 357 1044 m 334 0 l 334 243 l 272 243 l 272 729 l 334 729 l 334 972 l 90 972 l 90 729 l 150 729 l 150 243 l 90 243 l 90 0 l 334 0 z "},"Ï":{"ha":422,"x_min":0,"x_max":422,"o":"m 272 1015 q 252 1024 260 1015 q 243 1044 243 1033 l 243 1166 q 252 1187 243 1178 q 272 1196 260 1196 l 393 1196 q 414 1187 406 1196 q 422 1166 422 1178 l 422 1044 q 414 1024 422 1033 q 393 1015 406 1015 l 272 1015 m 29 1015 q 9 1024 18 1015 q 0 1044 0 1033 l 0 1166 q 9 1187 0 1178 q 29 1196 18 1196 l 150 1196 q 171 1187 163 1196 q 179 1166 179 1178 l 179 1044 q 171 1024 179 1033 q 150 1015 163 1015 l 29 1015 m 90 -29 q 70 -20 78 -29 q 61 0 61 -12 l 61 243 q 70 263 61 254 q 90 272 78 272 l 121 272 l 121 700 l 90 700 q 70 709 78 700 q 61 729 61 718 l 61 972 q 70 993 61 984 q 90 1002 78 1002 l 334 1002 q 354 993 345 1002 q 363 972 363 984 l 363 729 q 354 709 363 718 q 334 700 345 700 l 301 700 l 301 272 l 334 272 q 354 263 345 272 q 363 243 363 254 l 363 0 q 354 -20 363 -12 q 334 -29 345 -29 l 90 -29 m 393 1044 l 393 1166 l 272 1166 l 272 1044 l 393 1044 m 150 1044 l 150 1166 l 29 1166 l 29 1044 l 150 1044 m 334 0 l 334 243 l 272 243 l 272 729 l 334 729 l 334 972 l 90 972 l 90 729 l 150 729 l 150 243 l 90 243 l 90 0 l 334 0 z "},"Ð":{"ha":879,"x_min":31,"x_max":818,"o":"m 637 607 q 630 643 637 626 q 611 673 623 660 q 582 693 599 686 q 546 700 565 700 l 332 700 l 332 576 l 546 576 q 566 568 557 576 q 575 547 575 559 l 575 425 q 566 405 575 414 q 546 396 557 396 l 332 396 l 332 272 l 546 272 q 582 279 565 272 q 611 299 599 286 q 630 328 623 311 q 637 364 637 345 l 637 607 m 818 243 q 739 50 818 130 q 651 -10 699 9 q 546 -29 604 -29 l 180 -29 q 160 -20 169 -29 q 151 0 151 -12 l 151 396 l 60 396 q 39 405 47 396 q 31 425 31 414 l 31 547 q 39 568 31 559 q 60 576 47 576 l 151 576 l 151 972 q 160 993 151 984 q 180 1002 169 1002 l 546 1002 q 737 921 659 1002 q 818 729 818 842 l 818 243 m 789 243 l 789 729 q 770 822 789 780 q 717 900 752 864 q 546 972 644 972 l 180 972 l 180 547 l 60 547 l 60 425 l 180 425 l 180 0 l 546 0 q 718 71 646 0 q 789 243 789 142 m 667 364 q 657 316 667 338 q 632 278 648 294 q 594 252 616 262 q 546 243 572 243 l 302 243 l 302 425 l 546 425 l 546 547 l 302 547 l 302 729 l 546 729 q 593 720 571 729 q 631 693 615 710 q 657 654 648 677 q 667 607 667 632 l 667 364 z "},"Ñ":{"ha":787,"x_min":61,"x_max":726,"o":"m 597 1074 q 532 1030 567 1044 q 454 1015 496 1015 q 378 1044 421 1015 q 334 1064 348 1064 q 232 1025 271 1064 q 216 1016 224 1017 q 199 1017 207 1014 q 187 1027 192 1020 q 182 1044 182 1034 l 182 1141 q 185 1153 182 1146 q 191 1162 188 1160 q 255 1206 220 1192 q 334 1219 291 1219 q 369 1212 349 1219 q 410 1190 388 1205 q 436 1176 425 1182 q 454 1171 447 1171 q 555 1211 513 1171 q 572 1220 563 1219 q 588 1218 581 1221 q 601 1208 595 1215 q 606 1190 606 1200 l 606 1093 l 597 1074 m 576 -29 q 555 -20 564 -29 q 547 0 547 -12 l 547 607 q 540 644 547 627 q 520 673 533 661 q 491 693 508 686 q 454 700 474 700 l 334 700 q 297 693 314 700 q 268 673 280 686 q 248 643 255 660 q 240 607 240 626 l 240 0 q 232 -20 240 -12 q 211 -29 224 -29 l 90 -29 q 70 -20 78 -29 q 61 0 61 -12 l 61 729 q 80 833 61 786 q 140 921 100 881 q 334 1002 219 1002 l 454 1002 q 560 982 512 1002 q 647 922 608 963 q 707 834 688 882 q 726 729 726 787 l 726 0 q 718 -20 726 -12 q 697 -29 710 -29 l 576 -29 m 576 1093 l 576 1190 q 454 1141 524 1141 q 427 1148 443 1141 q 393 1166 412 1155 q 334 1190 357 1190 q 267 1179 298 1190 q 211 1141 236 1167 l 211 1044 q 267 1081 236 1069 q 334 1093 298 1093 q 360 1087 345 1093 q 393 1069 376 1081 q 427 1051 412 1058 q 454 1044 443 1044 q 576 1093 524 1044 m 697 0 l 697 729 q 680 823 697 781 q 627 901 663 866 q 454 972 555 972 l 334 972 q 240 954 283 972 q 160 900 197 936 q 90 729 90 830 l 90 0 l 211 0 l 211 607 q 221 654 211 632 q 247 693 231 677 q 286 720 264 710 q 334 729 309 729 l 454 729 q 503 720 480 729 q 541 694 525 710 q 567 655 557 677 q 576 607 576 633 l 576 0 l 697 0 z "},"Ò":{"ha":787,"x_min":61,"x_max":726,"o":"m 357 1015 q 342 1020 351 1015 q 332 1031 334 1025 l 235 1200 q 230 1215 230 1208 q 234 1230 230 1223 q 244 1240 237 1236 q 260 1244 251 1244 l 357 1244 q 373 1239 364 1244 q 383 1226 381 1233 l 457 1055 q 455 1027 463 1040 q 431 1015 446 1015 l 357 1015 m 547 607 q 540 643 547 626 q 520 673 532 660 q 490 693 507 686 q 454 700 473 700 l 334 700 q 297 693 314 700 q 268 673 280 686 q 248 643 255 660 q 240 607 240 626 l 240 364 q 248 329 240 345 q 268 299 255 312 q 297 279 280 287 q 334 272 314 272 l 454 272 q 491 279 474 272 q 520 299 508 286 q 540 328 533 311 q 547 364 547 345 l 547 607 m 726 243 q 707 138 726 185 q 647 50 688 90 q 560 -10 608 9 q 454 -29 512 -29 l 334 -29 q 228 -10 276 -29 q 140 50 180 9 q 80 138 100 90 q 61 243 61 186 l 61 729 q 80 833 61 786 q 140 921 100 881 q 334 1002 219 1002 l 454 1002 q 646 921 567 1002 q 726 729 726 842 l 726 243 m 431 1044 l 357 1215 l 260 1215 l 357 1044 l 431 1044 m 697 243 l 697 729 q 627 900 697 828 q 547 954 590 936 q 454 972 505 972 l 334 972 q 240 954 283 972 q 160 900 197 936 q 90 729 90 830 l 90 243 q 107 150 90 193 q 160 71 124 106 q 334 0 233 0 l 454 0 q 627 71 555 0 q 680 149 663 106 q 697 243 697 192 m 576 364 q 567 316 576 338 q 541 278 557 294 q 503 252 525 262 q 454 243 480 243 l 334 243 q 286 252 309 243 q 247 278 264 262 q 221 317 231 295 q 211 364 211 339 l 211 607 q 221 654 211 632 q 247 693 231 677 q 286 720 264 710 q 334 729 309 729 l 454 729 q 502 720 479 729 q 540 693 524 710 q 567 654 557 677 q 576 607 576 632 l 576 364 z "},"Ó":{"ha":787,"x_min":61,"x_max":726,"o":"m 456 1031 q 445 1020 452 1025 q 431 1015 437 1015 l 357 1015 q 332 1027 340 1015 q 330 1055 324 1040 l 403 1226 q 415 1239 406 1233 q 431 1244 423 1244 l 528 1244 q 543 1240 536 1244 q 554 1230 550 1236 q 557 1215 557 1223 q 553 1200 557 1208 l 456 1031 m 547 607 q 540 643 547 626 q 520 673 532 660 q 490 693 507 686 q 454 700 473 700 l 334 700 q 297 693 314 700 q 268 673 280 686 q 248 643 255 660 q 240 607 240 626 l 240 364 q 248 329 240 345 q 268 299 255 312 q 297 279 280 287 q 334 272 314 272 l 454 272 q 491 279 474 272 q 520 299 508 286 q 540 328 533 311 q 547 364 547 345 l 547 607 m 726 243 q 707 138 726 185 q 647 50 688 90 q 560 -10 608 9 q 454 -29 512 -29 l 334 -29 q 228 -10 276 -29 q 140 50 180 9 q 80 138 100 90 q 61 243 61 186 l 61 729 q 80 833 61 786 q 140 921 100 881 q 334 1002 219 1002 l 454 1002 q 646 921 567 1002 q 726 729 726 842 l 726 243 m 528 1215 l 431 1215 l 357 1044 l 431 1044 l 528 1215 m 697 243 l 697 729 q 627 900 697 828 q 547 954 590 936 q 454 972 505 972 l 334 972 q 240 954 283 972 q 160 900 197 936 q 90 729 90 830 l 90 243 q 107 150 90 193 q 160 71 124 106 q 334 0 233 0 l 454 0 q 627 71 555 0 q 680 149 663 106 q 697 243 697 192 m 576 364 q 567 316 576 338 q 541 278 557 294 q 503 252 525 262 q 454 243 480 243 l 334 243 q 286 252 309 243 q 247 278 264 262 q 221 317 231 295 q 211 364 211 339 l 211 607 q 221 654 211 632 q 247 693 231 677 q 286 720 264 710 q 334 729 309 729 l 454 729 q 502 720 479 729 q 540 693 524 710 q 567 654 557 677 q 576 607 576 632 l 576 364 z "},"Ô":{"ha":787,"x_min":61,"x_max":726,"o":"m 467 1015 q 453 1019 461 1015 q 441 1028 445 1023 l 393 1096 l 345 1028 q 334 1019 342 1023 q 321 1015 326 1015 l 248 1015 q 232 1019 239 1015 q 221 1030 225 1023 q 218 1044 218 1036 q 222 1060 218 1052 l 319 1229 q 331 1240 323 1236 q 345 1244 338 1244 l 441 1244 q 457 1240 449 1244 q 468 1229 465 1236 l 566 1060 q 570 1044 570 1052 q 566 1030 570 1036 q 555 1019 562 1023 q 539 1015 548 1015 l 467 1015 m 547 607 q 540 643 547 626 q 520 673 532 660 q 490 693 507 686 q 454 700 473 700 l 334 700 q 297 693 314 700 q 268 673 280 686 q 248 643 255 660 q 240 607 240 626 l 240 364 q 248 329 240 345 q 268 299 255 312 q 297 279 280 287 q 334 272 314 272 l 454 272 q 491 279 474 272 q 520 299 508 286 q 540 328 533 311 q 547 364 547 345 l 547 607 m 726 243 q 707 138 726 185 q 647 50 688 90 q 560 -10 608 9 q 454 -29 512 -29 l 334 -29 q 228 -10 276 -29 q 140 50 180 9 q 80 138 100 90 q 61 243 61 186 l 61 729 q 80 833 61 786 q 140 921 100 881 q 334 1002 219 1002 l 454 1002 q 646 921 567 1002 q 726 729 726 842 l 726 243 m 539 1044 l 441 1215 l 345 1215 l 248 1044 l 321 1044 l 393 1147 l 467 1044 l 539 1044 m 697 243 l 697 729 q 627 900 697 828 q 547 954 590 936 q 454 972 505 972 l 334 972 q 240 954 283 972 q 160 900 197 936 q 90 729 90 830 l 90 243 q 107 150 90 193 q 160 71 124 106 q 334 0 233 0 l 454 0 q 627 71 555 0 q 680 149 663 106 q 697 243 697 192 m 576 364 q 567 316 576 338 q 541 278 557 294 q 503 252 525 262 q 454 243 480 243 l 334 243 q 286 252 309 243 q 247 278 264 262 q 221 317 231 295 q 211 364 211 339 l 211 607 q 221 654 211 632 q 247 693 231 677 q 286 720 264 710 q 334 729 309 729 l 454 729 q 502 720 479 729 q 540 693 524 710 q 567 654 557 677 q 576 607 576 632 l 576 364 z "},"Õ":{"ha":787,"x_min":61,"x_max":726,"o":"m 597 1074 q 532 1030 567 1044 q 454 1015 496 1015 q 378 1044 421 1015 q 334 1064 348 1064 q 232 1025 271 1064 q 216 1016 224 1017 q 199 1017 207 1014 q 187 1027 192 1020 q 182 1044 182 1034 l 182 1141 q 185 1153 182 1146 q 191 1162 188 1160 q 255 1206 220 1192 q 334 1219 291 1219 q 369 1212 349 1219 q 410 1190 388 1205 q 436 1176 425 1182 q 454 1171 447 1171 q 555 1211 513 1171 q 572 1220 563 1219 q 588 1218 581 1221 q 601 1208 595 1215 q 606 1190 606 1200 l 606 1093 l 597 1074 m 547 607 q 540 643 547 626 q 520 673 532 660 q 490 693 507 686 q 454 700 473 700 l 334 700 q 297 693 314 700 q 268 673 280 686 q 248 643 255 660 q 240 607 240 626 l 240 364 q 248 329 240 345 q 268 299 255 312 q 297 279 280 287 q 334 272 314 272 l 454 272 q 491 279 474 272 q 520 299 508 286 q 540 328 533 311 q 547 364 547 345 l 547 607 m 726 243 q 707 138 726 185 q 647 50 688 90 q 560 -10 608 9 q 454 -29 512 -29 l 334 -29 q 228 -10 276 -29 q 140 50 180 9 q 80 138 100 90 q 61 243 61 186 l 61 729 q 80 833 61 786 q 140 921 100 881 q 334 1002 219 1002 l 454 1002 q 646 921 567 1002 q 726 729 726 842 l 726 243 m 576 1093 l 576 1190 q 454 1141 524 1141 q 427 1148 443 1141 q 393 1166 412 1155 q 334 1190 357 1190 q 267 1179 298 1190 q 211 1141 236 1167 l 211 1044 q 267 1081 236 1069 q 334 1093 298 1093 q 360 1087 345 1093 q 393 1069 376 1081 q 427 1051 412 1058 q 454 1044 443 1044 q 576 1093 524 1044 m 697 243 l 697 729 q 627 900 697 828 q 547 954 590 936 q 454 972 505 972 l 334 972 q 240 954 283 972 q 160 900 197 936 q 90 729 90 830 l 90 243 q 107 150 90 193 q 160 71 124 106 q 334 0 233 0 l 454 0 q 627 71 555 0 q 680 149 663 106 q 697 243 697 192 m 576 364 q 567 316 576 338 q 541 278 557 294 q 503 252 525 262 q 454 243 480 243 l 334 243 q 286 252 309 243 q 247 278 264 262 q 221 317 231 295 q 211 364 211 339 l 211 607 q 221 654 211 632 q 247 693 231 677 q 286 720 264 710 q 334 729 309 729 l 454 729 q 502 720 479 729 q 540 693 524 710 q 567 654 557 677 q 576 607 576 632 l 576 364 z "},"Ö":{"ha":787,"x_min":61,"x_max":726,"o":"m 211 1015 q 191 1024 199 1015 q 182 1044 182 1033 l 182 1166 q 191 1187 182 1178 q 211 1196 199 1196 l 334 1196 q 354 1187 345 1196 q 363 1166 363 1178 l 363 1044 q 354 1024 363 1033 q 334 1015 345 1015 l 211 1015 m 454 1015 q 434 1024 443 1015 q 425 1044 425 1033 l 425 1166 q 434 1187 425 1178 q 454 1196 443 1196 l 576 1196 q 597 1187 588 1196 q 606 1166 606 1178 l 606 1044 q 597 1024 606 1033 q 576 1015 588 1015 l 454 1015 m 547 607 q 540 643 547 626 q 520 673 532 660 q 490 693 507 686 q 454 700 473 700 l 334 700 q 297 693 314 700 q 268 673 280 686 q 248 643 255 660 q 240 607 240 626 l 240 364 q 248 329 240 345 q 268 299 255 312 q 297 279 280 287 q 334 272 314 272 l 454 272 q 491 279 474 272 q 520 299 508 286 q 540 328 533 311 q 547 364 547 345 l 547 607 m 726 243 q 707 138 726 185 q 647 50 688 90 q 560 -10 608 9 q 454 -29 512 -29 l 334 -29 q 228 -10 276 -29 q 140 50 180 9 q 80 138 100 90 q 61 243 61 186 l 61 729 q 80 833 61 786 q 140 921 100 881 q 334 1002 219 1002 l 454 1002 q 646 921 567 1002 q 726 729 726 842 l 726 243 m 576 1044 l 576 1166 l 454 1166 l 454 1044 l 576 1044 m 334 1044 l 334 1166 l 211 1166 l 211 1044 l 334 1044 m 697 243 l 697 729 q 627 900 697 828 q 547 954 590 936 q 454 972 505 972 l 334 972 q 240 954 283 972 q 160 900 197 936 q 90 729 90 830 l 90 243 q 107 150 90 193 q 160 71 124 106 q 334 0 233 0 l 454 0 q 627 71 555 0 q 680 149 663 106 q 697 243 697 192 m 576 364 q 567 316 576 338 q 541 278 557 294 q 503 252 525 262 q 454 243 480 243 l 334 243 q 286 252 309 243 q 247 278 264 262 q 221 317 231 295 q 211 364 211 339 l 211 607 q 221 654 211 632 q 247 693 231 677 q 286 720 264 710 q 334 729 309 729 l 454 729 q 502 720 479 729 q 540 693 524 710 q 567 654 557 677 q 576 607 576 632 l 576 364 z "},"×":{"ha":627,"x_min":61,"x_max":566,"o":"m 489 180 q 468 172 481 172 q 447 180 456 172 l 314 315 l 179 180 q 159 172 172 172 q 139 180 147 172 l 69 250 q 61 271 61 258 q 69 292 61 283 l 203 425 l 69 558 q 61 579 61 567 q 69 600 61 591 l 139 669 q 159 678 147 678 q 179 669 172 678 l 314 536 l 447 669 q 468 678 456 678 q 489 669 481 678 l 558 600 q 566 579 566 591 q 558 558 566 567 l 424 425 l 558 292 q 566 271 566 283 q 558 250 566 258 l 489 180 m 538 271 l 383 425 l 538 579 l 468 648 l 314 494 l 160 648 l 90 579 l 244 425 l 90 271 l 160 201 l 314 355 l 468 201 l 538 271 z "},"Ø":{"ha":787,"x_min":-2,"x_max":789,"o":"m 240 375 l 473 697 q 465 699 469 699 q 454 700 460 700 l 334 700 q 297 693 314 700 q 268 673 280 686 q 248 643 255 660 q 240 607 240 626 l 240 375 m 547 596 l 313 275 q 322 272 318 273 q 334 272 327 272 l 454 272 q 491 279 474 272 q 520 299 508 286 q 540 328 533 311 q 547 364 547 345 l 547 596 m 711 821 q 723 776 719 799 q 726 729 726 753 l 726 243 q 707 138 726 185 q 647 50 688 90 q 560 -10 608 9 q 454 -29 512 -29 l 334 -29 q 231 -11 278 -29 q 146 45 184 7 l 102 -17 q 82 -29 94 -27 q 61 -24 71 -31 l 12 14 q 0 32 3 21 q 5 53 -2 43 l 77 150 q 64 195 68 172 q 61 243 61 219 l 61 729 q 80 833 61 786 q 140 921 100 881 q 334 1002 219 1002 l 454 1002 q 555 983 509 1002 q 642 928 602 964 l 686 989 q 705 1001 694 1000 q 726 996 717 1003 l 775 958 q 787 940 785 951 q 782 918 789 928 l 711 821 m 758 936 l 710 972 l 644 880 q 559 950 607 927 q 454 972 512 972 l 334 972 q 240 954 283 972 q 160 900 197 936 q 90 729 90 830 l 90 243 q 95 194 90 217 q 110 147 99 170 l 29 36 l 78 0 l 143 92 q 334 0 218 0 l 454 0 q 627 71 555 0 q 680 149 663 106 q 697 243 697 192 l 697 729 q 693 778 697 754 q 677 825 688 802 l 758 936 m 519 710 l 227 307 q 211 364 211 334 l 211 607 q 221 654 211 632 q 247 693 231 677 q 286 720 264 710 q 334 729 309 729 l 454 729 q 488 725 472 729 q 519 710 504 720 m 576 364 q 567 316 576 338 q 541 278 557 294 q 503 252 525 262 q 454 243 480 243 l 334 243 q 268 262 298 243 l 561 665 q 572 636 568 650 q 576 607 576 623 l 576 364 z "},"Ù":{"ha":787,"x_min":61,"x_max":726,"o":"m 357 1015 q 342 1020 351 1015 q 332 1031 334 1025 l 235 1200 q 230 1215 230 1208 q 234 1230 230 1223 q 244 1240 237 1236 q 260 1244 251 1244 l 357 1244 q 373 1239 364 1244 q 383 1226 381 1233 l 457 1055 q 455 1027 463 1040 q 431 1015 446 1015 l 357 1015 m 726 243 q 707 138 726 185 q 647 50 688 90 q 560 -10 608 9 q 454 -29 512 -29 l 334 -29 q 228 -10 276 -29 q 140 50 180 9 q 80 138 100 90 q 61 243 61 186 l 61 972 q 70 993 61 984 q 90 1002 78 1002 l 211 1002 q 232 993 224 1002 q 240 972 240 984 l 240 364 q 248 329 240 345 q 268 299 255 312 q 297 279 280 287 q 334 272 314 272 l 454 272 q 491 279 474 272 q 520 299 508 286 q 540 328 533 311 q 547 364 547 345 l 547 972 q 555 993 547 984 q 576 1002 564 1002 l 697 1002 q 718 993 710 1002 q 726 972 726 984 l 726 243 m 431 1044 l 357 1215 l 260 1215 l 357 1044 l 431 1044 m 697 243 l 697 972 l 576 972 l 576 364 q 567 316 576 338 q 541 278 557 294 q 503 252 525 262 q 454 243 480 243 l 334 243 q 286 252 309 243 q 247 278 264 262 q 221 317 231 295 q 211 364 211 339 l 211 972 l 90 972 l 90 243 q 107 150 90 193 q 160 71 124 106 q 334 0 233 0 l 454 0 q 627 71 555 0 q 680 149 663 106 q 697 243 697 192 z "},"Ú":{"ha":787,"x_min":61,"x_max":726,"o":"m 456 1031 q 445 1020 452 1025 q 431 1015 437 1015 l 357 1015 q 332 1027 340 1015 q 330 1055 324 1040 l 403 1226 q 415 1239 406 1233 q 431 1244 423 1244 l 528 1244 q 543 1240 536 1244 q 554 1230 550 1236 q 557 1215 557 1223 q 553 1200 557 1208 l 456 1031 m 726 243 q 707 138 726 185 q 647 50 688 90 q 560 -10 608 9 q 454 -29 512 -29 l 334 -29 q 228 -10 276 -29 q 140 50 180 9 q 80 138 100 90 q 61 243 61 186 l 61 972 q 70 993 61 984 q 90 1002 78 1002 l 211 1002 q 232 993 224 1002 q 240 972 240 984 l 240 364 q 248 329 240 345 q 268 299 255 312 q 297 279 280 287 q 334 272 314 272 l 454 272 q 491 279 474 272 q 520 299 508 286 q 540 328 533 311 q 547 364 547 345 l 547 972 q 555 993 547 984 q 576 1002 564 1002 l 697 1002 q 718 993 710 1002 q 726 972 726 984 l 726 243 m 528 1215 l 431 1215 l 357 1044 l 431 1044 l 528 1215 m 697 243 l 697 972 l 576 972 l 576 364 q 567 316 576 338 q 541 278 557 294 q 503 252 525 262 q 454 243 480 243 l 334 243 q 286 252 309 243 q 247 278 264 262 q 221 317 231 295 q 211 364 211 339 l 211 972 l 90 972 l 90 243 q 107 150 90 193 q 160 71 124 106 q 334 0 233 0 l 454 0 q 627 71 555 0 q 680 149 663 106 q 697 243 697 192 z "},"Û":{"ha":787,"x_min":61,"x_max":726,"o":"m 467 1015 q 453 1019 461 1015 q 441 1028 445 1023 l 393 1096 l 345 1028 q 334 1019 342 1023 q 321 1015 326 1015 l 248 1015 q 232 1019 239 1015 q 221 1030 225 1023 q 218 1044 218 1036 q 222 1060 218 1052 l 319 1229 q 331 1240 323 1236 q 345 1244 338 1244 l 441 1244 q 457 1240 449 1244 q 468 1229 465 1236 l 566 1060 q 570 1044 570 1052 q 566 1030 570 1036 q 555 1019 562 1023 q 539 1015 548 1015 l 467 1015 m 726 243 q 707 138 726 185 q 647 50 688 90 q 560 -10 608 9 q 454 -29 512 -29 l 334 -29 q 228 -10 276 -29 q 140 50 180 9 q 80 138 100 90 q 61 243 61 186 l 61 972 q 70 993 61 984 q 90 1002 78 1002 l 211 1002 q 232 993 224 1002 q 240 972 240 984 l 240 364 q 248 329 240 345 q 268 299 255 312 q 297 279 280 287 q 334 272 314 272 l 454 272 q 491 279 474 272 q 520 299 508 286 q 540 328 533 311 q 547 364 547 345 l 547 972 q 555 993 547 984 q 576 1002 564 1002 l 697 1002 q 718 993 710 1002 q 726 972 726 984 l 726 243 m 539 1044 l 441 1215 l 345 1215 l 248 1044 l 321 1044 l 393 1147 l 467 1044 l 539 1044 m 697 243 l 697 972 l 576 972 l 576 364 q 567 316 576 338 q 541 278 557 294 q 503 252 525 262 q 454 243 480 243 l 334 243 q 286 252 309 243 q 247 278 264 262 q 221 317 231 295 q 211 364 211 339 l 211 972 l 90 972 l 90 243 q 107 150 90 193 q 160 71 124 106 q 334 0 233 0 l 454 0 q 627 71 555 0 q 680 149 663 106 q 697 243 697 192 z "},"Ü":{"ha":787,"x_min":61,"x_max":726,"o":"m 211 1015 q 191 1024 199 1015 q 182 1044 182 1033 l 182 1166 q 191 1187 182 1178 q 211 1196 199 1196 l 334 1196 q 354 1187 345 1196 q 363 1166 363 1178 l 363 1044 q 354 1024 363 1033 q 334 1015 345 1015 l 211 1015 m 454 1015 q 434 1024 443 1015 q 425 1044 425 1033 l 425 1166 q 434 1187 425 1178 q 454 1196 443 1196 l 576 1196 q 597 1187 588 1196 q 606 1166 606 1178 l 606 1044 q 597 1024 606 1033 q 576 1015 588 1015 l 454 1015 m 726 243 q 707 138 726 185 q 647 50 688 90 q 560 -10 608 9 q 454 -29 512 -29 l 334 -29 q 228 -10 276 -29 q 140 50 180 9 q 80 138 100 90 q 61 243 61 186 l 61 972 q 70 993 61 984 q 90 1002 78 1002 l 211 1002 q 232 993 224 1002 q 240 972 240 984 l 240 364 q 248 329 240 345 q 268 299 255 312 q 297 279 280 287 q 334 272 314 272 l 454 272 q 491 279 474 272 q 520 299 508 286 q 540 328 533 311 q 547 364 547 345 l 547 972 q 555 993 547 984 q 576 1002 564 1002 l 697 1002 q 718 993 710 1002 q 726 972 726 984 l 726 243 m 576 1044 l 576 1166 l 454 1166 l 454 1044 l 576 1044 m 334 1044 l 334 1166 l 211 1166 l 211 1044 l 334 1044 m 697 243 l 697 972 l 576 972 l 576 364 q 567 316 576 338 q 541 278 557 294 q 503 252 525 262 q 454 243 480 243 l 334 243 q 286 252 309 243 q 247 278 264 262 q 221 317 231 295 q 211 364 211 339 l 211 972 l 90 972 l 90 243 q 107 150 90 193 q 160 71 124 106 q 334 0 233 0 l 454 0 q 627 71 555 0 q 680 149 663 106 q 697 243 697 192 z "},"Ý":{"ha":787,"x_min":61,"x_max":726,"o":"m 456 1031 q 445 1020 452 1025 q 431 1015 437 1015 l 357 1015 q 332 1027 340 1015 q 330 1055 324 1040 l 403 1226 q 415 1239 406 1233 q 431 1244 423 1244 l 528 1244 q 543 1240 536 1244 q 554 1230 550 1236 q 557 1215 557 1223 q 553 1200 557 1208 l 456 1031 m 726 534 q 707 429 726 477 q 647 342 688 382 q 484 264 578 272 l 484 0 q 475 -20 484 -12 q 454 -29 467 -29 l 334 -29 q 313 -20 321 -29 q 304 0 304 -12 l 304 264 q 140 342 210 272 q 61 534 61 421 l 61 972 q 70 993 61 984 q 90 1002 78 1002 l 211 1002 q 232 993 224 1002 q 240 972 240 984 l 240 656 q 248 620 240 637 q 268 591 255 604 q 297 571 280 578 q 334 564 314 564 l 454 564 q 491 571 474 564 q 520 590 508 578 q 540 620 533 603 q 547 656 547 636 l 547 972 q 555 993 547 984 q 576 1002 564 1002 l 697 1002 q 718 993 710 1002 q 726 972 726 984 l 726 534 m 528 1215 l 431 1215 l 357 1044 l 431 1044 l 528 1215 m 697 534 l 697 972 l 576 972 l 576 656 q 567 608 576 630 q 541 570 557 586 q 503 544 525 553 q 454 534 480 534 l 334 534 q 286 544 309 534 q 247 570 264 553 q 221 609 231 587 q 211 656 211 631 l 211 972 l 90 972 l 90 534 q 108 441 90 484 q 161 363 125 398 q 334 292 231 292 l 334 0 l 454 0 l 454 292 q 627 363 555 292 q 680 441 663 398 q 697 534 697 484 z "},"Þ":{"ha":787,"x_min":61,"x_max":726,"o":"m 486 425 q 481 450 486 438 q 468 470 477 461 q 448 483 460 478 q 424 488 437 488 l 240 488 l 240 364 l 424 364 q 448 369 437 364 q 468 382 460 374 q 481 402 477 391 q 486 425 486 413 m 726 456 q 646 264 726 342 q 454 183 567 183 l 240 183 l 240 0 q 232 -20 240 -12 q 211 -29 224 -29 l 90 -29 q 70 -20 78 -29 q 61 0 61 -12 l 61 972 q 70 993 61 984 q 90 1002 78 1002 l 211 1002 q 232 993 224 1002 q 240 972 240 984 l 240 789 l 454 789 q 646 708 567 789 q 726 517 726 630 l 726 456 m 697 456 l 697 517 q 627 688 697 616 q 547 741 590 723 q 454 760 505 760 l 211 760 l 211 972 l 90 972 l 90 0 l 211 0 l 211 212 l 454 212 q 547 231 505 212 q 627 285 590 249 q 697 456 697 355 m 515 425 q 508 390 515 406 q 488 361 500 374 q 459 342 475 349 q 424 335 442 335 l 211 335 l 211 517 l 424 517 q 459 509 442 517 q 488 489 475 502 q 508 460 500 477 q 515 425 515 444 z "},"ß":{"ha":787,"x_min":61,"x_max":726,"o":"m 726 243 q 646 52 726 130 q 454 -29 567 -29 l 334 -29 q 313 -20 321 -29 q 304 0 304 -12 l 304 243 q 313 263 304 254 q 334 272 321 272 l 424 272 q 448 277 437 272 q 468 290 460 281 q 481 310 477 299 q 486 335 486 321 q 481 358 486 347 q 468 378 477 370 q 448 391 460 387 q 424 396 437 396 l 334 396 q 313 405 321 396 q 304 425 304 414 l 304 547 q 313 568 304 559 q 334 576 321 576 l 424 576 q 448 581 437 576 q 468 594 460 586 q 481 614 477 603 q 486 637 486 625 q 481 662 486 650 q 468 682 477 673 q 448 695 460 690 q 424 700 437 700 l 302 700 q 278 695 290 700 q 258 682 267 690 q 245 662 250 673 q 240 637 240 650 l 240 -122 q 232 -142 240 -134 q 211 -151 224 -151 l 90 -151 q 70 -142 78 -151 q 61 -122 61 -134 l 61 729 q 80 834 61 787 q 140 922 100 882 q 228 982 180 963 q 334 1002 276 1002 l 454 1002 q 646 921 567 1002 q 726 729 726 842 l 726 717 q 714 634 726 673 q 673 558 701 595 l 675 558 q 599 486 644 513 q 693 385 661 448 q 726 243 726 321 m 697 243 q 686 323 697 285 q 653 394 675 362 q 601 450 632 426 q 529 486 569 473 q 597 520 567 498 q 650 575 627 543 q 686 642 674 606 q 697 717 697 678 l 697 729 q 627 900 697 828 q 547 954 590 936 q 454 972 505 972 l 334 972 q 160 901 232 972 q 90 729 90 832 l 90 -122 l 211 -122 l 211 637 q 218 673 211 656 q 238 702 226 690 q 268 722 251 715 q 302 729 284 729 l 424 729 q 459 722 442 729 q 488 702 475 715 q 508 673 500 690 q 515 637 515 656 q 508 602 515 618 q 488 574 500 586 q 459 554 475 562 q 424 547 442 547 l 334 547 l 334 425 l 424 425 q 459 418 442 425 q 488 398 475 410 q 508 370 500 386 q 515 335 515 353 q 508 299 515 316 q 488 270 500 283 q 459 250 475 258 q 424 243 442 243 l 334 243 l 334 0 l 454 0 q 627 72 554 0 q 697 243 697 144 z "},"à":{"ha":787,"x_min":61,"x_max":726,"o":"m 357 895 q 342 899 351 895 q 332 908 334 903 l 235 1079 q 230 1095 230 1087 q 234 1109 230 1103 q 244 1119 237 1115 q 260 1122 251 1122 l 357 1122 q 373 1116 364 1122 q 383 1104 381 1110 l 457 935 q 455 907 463 919 q 431 895 446 895 l 357 895 m 547 486 q 540 523 547 506 q 520 552 533 540 q 491 571 508 564 q 454 578 474 578 l 334 578 q 297 571 314 578 q 268 551 280 564 q 248 522 255 539 q 240 486 240 505 l 240 364 q 248 329 240 345 q 268 299 255 312 q 297 279 280 287 q 334 272 314 272 l 454 272 q 490 279 473 272 q 520 299 507 287 q 540 329 532 312 q 547 364 547 345 l 547 486 m 576 -29 q 557 -23 565 -29 q 547 -5 549 -16 q 503 -24 526 -18 q 454 -29 479 -29 l 334 -29 q 229 -9 276 -29 q 140 52 181 11 q 61 243 61 131 l 61 607 q 81 712 61 665 q 140 800 100 760 q 229 859 181 840 q 334 879 276 879 l 454 879 q 560 860 512 879 q 647 802 608 842 q 707 713 688 761 q 726 607 726 666 l 726 0 q 718 -20 726 -12 q 697 -29 710 -29 l 576 -29 m 431 924 l 357 1093 l 260 1093 l 357 924 l 431 924 m 697 0 l 697 607 q 680 701 697 658 q 627 781 663 745 q 548 833 591 817 q 454 850 505 850 l 334 850 q 161 779 231 850 q 90 607 90 708 l 90 243 q 161 72 90 143 q 334 0 231 0 l 454 0 q 495 4 475 0 q 532 20 515 9 q 576 82 574 43 l 576 0 l 697 0 m 576 364 q 567 317 576 339 q 540 278 557 295 q 502 252 524 262 q 454 243 479 243 l 334 243 q 286 252 309 243 q 247 278 264 262 q 221 317 231 295 q 211 364 211 339 l 211 486 q 221 533 211 511 q 247 572 231 555 q 286 597 264 588 q 334 607 309 607 l 454 607 q 503 598 480 607 q 541 572 525 589 q 567 534 557 556 q 576 486 576 512 l 576 364 z "},"á":{"ha":787,"x_min":61,"x_max":726,"o":"m 456 908 q 445 899 452 903 q 431 895 437 895 l 357 895 q 332 907 340 895 q 330 935 324 919 l 403 1104 q 415 1116 406 1110 q 431 1122 423 1122 l 528 1122 q 543 1119 536 1122 q 554 1109 550 1115 q 557 1095 557 1103 q 553 1079 557 1087 l 456 908 m 547 486 q 540 523 547 506 q 520 552 533 540 q 491 571 508 564 q 454 578 474 578 l 334 578 q 297 571 314 578 q 268 551 280 564 q 248 522 255 539 q 240 486 240 505 l 240 364 q 248 329 240 345 q 268 299 255 312 q 297 279 280 287 q 334 272 314 272 l 454 272 q 490 279 473 272 q 520 299 507 287 q 540 329 532 312 q 547 364 547 345 l 547 486 m 576 -29 q 557 -23 565 -29 q 547 -5 549 -16 q 503 -24 526 -18 q 454 -29 479 -29 l 334 -29 q 229 -9 276 -29 q 140 52 181 11 q 61 243 61 131 l 61 607 q 81 712 61 665 q 140 800 100 760 q 229 859 181 840 q 334 879 276 879 l 454 879 q 560 860 512 879 q 647 802 608 842 q 707 713 688 761 q 726 607 726 666 l 726 0 q 718 -20 726 -12 q 697 -29 710 -29 l 576 -29 m 528 1093 l 431 1093 l 357 924 l 431 924 l 528 1093 m 697 0 l 697 607 q 680 701 697 658 q 627 781 663 745 q 548 833 591 817 q 454 850 505 850 l 334 850 q 161 779 231 850 q 90 607 90 708 l 90 243 q 161 72 90 143 q 334 0 231 0 l 454 0 q 495 4 475 0 q 532 20 515 9 q 576 82 574 43 l 576 0 l 697 0 m 576 364 q 567 317 576 339 q 540 278 557 295 q 502 252 524 262 q 454 243 479 243 l 334 243 q 286 252 309 243 q 247 278 264 262 q 221 317 231 295 q 211 364 211 339 l 211 486 q 221 533 211 511 q 247 572 231 555 q 286 597 264 588 q 334 607 309 607 l 454 607 q 503 598 480 607 q 541 572 525 589 q 567 534 557 556 q 576 486 576 512 l 576 364 z "},"â":{"ha":787,"x_min":61,"x_max":726,"o":"m 467 895 q 453 898 461 895 q 441 907 445 901 l 393 975 l 345 907 q 334 898 342 901 q 321 895 326 895 l 248 895 q 232 899 239 895 q 221 909 225 903 q 218 922 218 915 q 222 937 218 930 l 319 1108 q 331 1118 323 1114 q 345 1122 338 1122 l 441 1122 q 457 1118 449 1122 q 468 1108 465 1114 l 566 937 q 570 922 570 930 q 566 909 570 915 q 555 899 562 903 q 539 895 548 895 l 467 895 m 547 486 q 540 523 547 506 q 520 552 533 540 q 491 571 508 564 q 454 578 474 578 l 334 578 q 297 571 314 578 q 268 551 280 564 q 248 522 255 539 q 240 486 240 505 l 240 364 q 248 329 240 345 q 268 299 255 312 q 297 279 280 287 q 334 272 314 272 l 454 272 q 490 279 473 272 q 520 299 507 287 q 540 329 532 312 q 547 364 547 345 l 547 486 m 576 -29 q 557 -23 565 -29 q 547 -5 549 -16 q 503 -24 526 -18 q 454 -29 479 -29 l 334 -29 q 229 -9 276 -29 q 140 52 181 11 q 61 243 61 131 l 61 607 q 81 712 61 665 q 140 800 100 760 q 229 859 181 840 q 334 879 276 879 l 454 879 q 560 860 512 879 q 647 802 608 842 q 707 713 688 761 q 726 607 726 666 l 726 0 q 718 -20 726 -12 q 697 -29 710 -29 l 576 -29 m 539 924 l 441 1093 l 345 1093 l 248 924 l 321 924 l 393 1025 l 467 924 l 539 924 m 697 0 l 697 607 q 680 701 697 658 q 627 781 663 745 q 548 833 591 817 q 454 850 505 850 l 334 850 q 161 779 231 850 q 90 607 90 708 l 90 243 q 161 72 90 143 q 334 0 231 0 l 454 0 q 495 4 475 0 q 532 20 515 9 q 576 82 574 43 l 576 0 l 697 0 m 576 364 q 567 317 576 339 q 540 278 557 295 q 502 252 524 262 q 454 243 479 243 l 334 243 q 286 252 309 243 q 247 278 264 262 q 221 317 231 295 q 211 364 211 339 l 211 486 q 221 533 211 511 q 247 572 231 555 q 286 597 264 588 q 334 607 309 607 l 454 607 q 503 598 480 607 q 541 572 525 589 q 567 534 557 556 q 576 486 576 512 l 576 364 z "},"ã":{"ha":787,"x_min":61,"x_max":726,"o":"m 597 951 q 454 895 538 895 q 378 924 421 895 q 352 938 363 933 q 334 943 341 943 q 232 903 273 943 q 216 894 224 895 q 199 896 207 892 q 187 906 192 899 q 182 924 182 913 l 182 1021 q 185 1031 182 1024 q 191 1042 188 1038 q 334 1099 248 1099 q 369 1092 349 1099 q 410 1069 388 1084 q 436 1055 425 1060 q 454 1050 447 1050 q 555 1090 513 1050 q 572 1099 563 1097 q 588 1097 581 1100 q 601 1087 595 1094 q 606 1069 606 1080 l 606 972 l 597 951 m 547 486 q 540 523 547 506 q 520 552 533 540 q 491 571 508 564 q 454 578 474 578 l 334 578 q 297 571 314 578 q 268 551 280 564 q 248 522 255 539 q 240 486 240 505 l 240 364 q 248 329 240 345 q 268 299 255 312 q 297 279 280 287 q 334 272 314 272 l 454 272 q 490 279 473 272 q 520 299 507 287 q 540 329 532 312 q 547 364 547 345 l 547 486 m 576 -29 q 557 -23 565 -29 q 547 -5 549 -16 q 503 -24 526 -18 q 454 -29 479 -29 l 334 -29 q 229 -9 276 -29 q 140 52 181 11 q 61 243 61 131 l 61 607 q 81 712 61 665 q 140 800 100 760 q 229 859 181 840 q 334 879 276 879 l 454 879 q 560 860 512 879 q 647 802 608 842 q 707 713 688 761 q 726 607 726 666 l 726 0 q 718 -20 726 -12 q 697 -29 710 -29 l 576 -29 m 576 972 l 576 1069 q 454 1021 526 1021 q 427 1027 443 1021 q 393 1044 412 1033 q 360 1063 376 1057 q 334 1069 345 1069 q 267 1058 298 1069 q 211 1021 236 1046 l 211 924 q 267 961 236 949 q 334 972 298 972 q 393 947 357 972 q 454 924 431 924 q 520 935 490 924 q 576 972 551 947 m 697 0 l 697 607 q 680 701 697 658 q 627 781 663 745 q 548 833 591 817 q 454 850 505 850 l 334 850 q 161 779 231 850 q 90 607 90 708 l 90 243 q 161 72 90 143 q 334 0 231 0 l 454 0 q 495 4 475 0 q 532 20 515 9 q 576 82 574 43 l 576 0 l 697 0 m 576 364 q 567 317 576 339 q 540 278 557 295 q 502 252 524 262 q 454 243 479 243 l 334 243 q 286 252 309 243 q 247 278 264 262 q 221 317 231 295 q 211 364 211 339 l 211 486 q 221 533 211 511 q 247 572 231 555 q 286 597 264 588 q 334 607 309 607 l 454 607 q 503 598 480 607 q 541 572 525 589 q 567 534 557 556 q 576 486 576 512 l 576 364 z "},"ä":{"ha":787,"x_min":61,"x_max":726,"o":"m 454 895 q 434 903 443 895 q 425 924 425 912 l 425 1044 q 434 1065 425 1057 q 454 1074 443 1074 l 576 1074 q 597 1065 588 1074 q 606 1044 606 1057 l 606 924 q 597 903 606 912 q 576 895 588 895 l 454 895 m 211 895 q 191 903 199 895 q 182 924 182 912 l 182 1044 q 191 1065 182 1057 q 211 1074 199 1074 l 334 1074 q 354 1065 345 1074 q 363 1044 363 1057 l 363 924 q 354 903 363 912 q 334 895 345 895 l 211 895 m 547 486 q 540 523 547 506 q 520 552 533 540 q 491 571 508 564 q 454 578 474 578 l 334 578 q 297 571 314 578 q 268 551 280 564 q 248 522 255 539 q 240 486 240 505 l 240 364 q 248 329 240 345 q 268 299 255 312 q 297 279 280 287 q 334 272 314 272 l 454 272 q 490 279 473 272 q 520 299 507 287 q 540 329 532 312 q 547 364 547 345 l 547 486 m 576 -29 q 557 -23 565 -29 q 547 -5 549 -16 q 503 -24 526 -18 q 454 -29 479 -29 l 334 -29 q 229 -9 276 -29 q 140 52 181 11 q 61 243 61 131 l 61 607 q 81 712 61 665 q 140 800 100 760 q 229 859 181 840 q 334 879 276 879 l 454 879 q 560 860 512 879 q 647 802 608 842 q 707 713 688 761 q 726 607 726 666 l 726 0 q 718 -20 726 -12 q 697 -29 710 -29 l 576 -29 m 576 924 l 576 1044 l 454 1044 l 454 924 l 576 924 m 334 924 l 334 1044 l 211 1044 l 211 924 l 334 924 m 697 0 l 697 607 q 680 701 697 658 q 627 781 663 745 q 548 833 591 817 q 454 850 505 850 l 334 850 q 161 779 231 850 q 90 607 90 708 l 90 243 q 161 72 90 143 q 334 0 231 0 l 454 0 q 495 4 475 0 q 532 20 515 9 q 576 82 574 43 l 576 0 l 697 0 m 576 364 q 567 317 576 339 q 540 278 557 295 q 502 252 524 262 q 454 243 479 243 l 334 243 q 286 252 309 243 q 247 278 264 262 q 221 317 231 295 q 211 364 211 339 l 211 486 q 221 533 211 511 q 247 572 231 555 q 286 597 264 588 q 334 607 309 607 l 454 607 q 503 598 480 607 q 541 572 525 589 q 567 534 557 556 q 576 486 576 512 l 576 364 z "},"å":{"ha":787,"x_min":61,"x_max":726,"o":"m 461 1069 q 456 1096 461 1084 q 442 1117 451 1108 q 420 1132 433 1126 q 393 1137 408 1137 q 367 1132 379 1137 q 345 1117 354 1126 q 330 1096 336 1108 q 325 1069 325 1084 q 330 1043 325 1055 q 345 1022 336 1031 q 367 1007 354 1013 q 393 1002 379 1002 q 420 1007 408 1002 q 442 1022 433 1013 q 456 1043 451 1031 q 461 1069 461 1055 m 547 486 q 540 523 547 506 q 520 552 533 540 q 491 571 508 564 q 454 578 474 578 l 334 578 q 297 571 314 578 q 268 551 280 564 q 248 522 255 539 q 240 486 240 505 l 240 364 q 248 329 240 345 q 268 299 255 312 q 297 279 280 287 q 334 272 314 272 l 454 272 q 490 279 473 272 q 520 299 507 287 q 540 329 532 312 q 547 364 547 345 l 547 486 m 568 1069 q 518 946 568 996 q 393 895 467 895 q 269 946 321 895 q 218 1069 218 997 q 269 1193 218 1142 q 393 1244 321 1244 q 518 1193 467 1244 q 568 1069 568 1143 m 576 -29 q 557 -23 565 -29 q 547 -5 549 -16 q 503 -24 526 -18 q 454 -29 479 -29 l 334 -29 q 229 -9 276 -29 q 140 52 181 11 q 61 243 61 131 l 61 607 q 81 712 61 665 q 140 800 100 760 q 229 859 181 840 q 334 879 276 879 l 454 879 q 560 860 512 879 q 647 802 608 842 q 707 713 688 761 q 726 607 726 666 l 726 0 q 718 -20 726 -12 q 697 -29 710 -29 l 576 -29 m 539 1069 q 497 1173 539 1131 q 450 1204 476 1193 q 393 1215 424 1215 q 337 1204 363 1215 q 290 1173 311 1193 q 248 1069 248 1130 q 290 966 248 1009 q 337 934 311 945 q 393 924 363 924 q 450 934 424 924 q 497 966 476 945 q 539 1069 539 1008 m 697 0 l 697 607 q 680 701 697 658 q 627 781 663 745 q 548 833 591 817 q 454 850 505 850 l 334 850 q 161 779 231 850 q 90 607 90 708 l 90 243 q 161 72 90 143 q 334 0 231 0 l 454 0 q 495 4 475 0 q 532 20 515 9 q 576 82 574 43 l 576 0 l 697 0 m 490 1069 q 483 1031 490 1049 q 462 1001 475 1014 q 431 980 449 987 q 393 972 414 972 q 356 980 374 972 q 325 1001 338 987 q 303 1031 311 1014 q 296 1069 296 1049 q 303 1107 296 1089 q 325 1138 311 1124 q 356 1159 338 1151 q 393 1166 374 1166 q 431 1159 414 1166 q 462 1138 449 1151 q 483 1107 475 1124 q 490 1069 490 1089 m 576 364 q 567 317 576 339 q 540 278 557 295 q 502 252 524 262 q 454 243 479 243 l 334 243 q 286 252 309 243 q 247 278 264 262 q 221 317 231 295 q 211 364 211 339 l 211 486 q 221 533 211 511 q 247 572 231 555 q 286 597 264 588 q 334 607 309 607 l 454 607 q 503 598 480 607 q 541 572 525 589 q 567 534 557 556 q 576 486 576 512 l 576 364 z "}}}
